AnekDevanagari-ExpandedMedium.ufo
<glyph name="greater" format="2">
  <advance width="1362"/>
  <unicode hex="003E"/>
  <outline>
    <contour>
      <point x="1059" y="593" type="line"/>
      <point x="166" y="373" type="line"/>
      <point x="166" y="181" type="line"/>
      <point x="1221" y="458" type="line"/>
      <point x="1221" y="747" type="line"/>
      <point x="166" y="1022" type="line"/>
      <point x="166" y="831" type="line"/>
      <point x="1059" y="614" type="line"/>
    </contour>
  </outline>
</glyph>
<glyph name="W" format="2">
  <advance width="2198"/>
  <unicode hex="0057"/>
  <anchor x="1099" y="0" name="bottom"/>
  <anchor x="1099" y="1278" name="top"/>
  <outline>
    <contour>
      <point x="788" y="0" type="line"/>
      <point x="1011" y="777" type="line"/>
      <point x="1090" y="1059" type="line"/>
      <point x="1108" y="1059" type="line"/>
      <point x="1187" y="777" type="line"/>
      <point x="1410" y="0" type="line"/>
      <point x="1742" y="0" type="line"/>
      <point x="2129" y="1278" type="line"/>
      <point x="1891" y="1278" type="line"/>
      <point x="1605" y="273" type="line"/>
      <point x="1581" y="187" type="line"/>
      <point x="1561" y="187" type="line"/>
      <point x="1536" y="273" type="line"/>
      <point x="1257" y="1241" type="line"/>
      <point x="941" y="1241" type="line"/>
      <point x="662" y="274" type="line"/>
      <point x="637" y="187" type="line"/>
      <point x="617" y="187" type="line"/>
      <point x="592" y="274" type="line"/>
      <point x="308" y="1278" type="line"/>
      <point x="69" y="1278" type="line"/>
      <point x="456" y="0" type="line"/>
    </contour>
  </outline>
</glyph>
<glyph name="j" format="2">
  <advance width="587"/>
  <unicode hex="006A"/>
  <outline>
    <contour>
      <point x="425" y="172" type="line"/>
      <point x="425" y="958" type="line"/>
      <point x="208" y="958" type="line"/>
      <point x="208" y="172" type="line"/>
    </contour>
    <contour>
      <point x="316" y="1104" type="curve" smooth="yes"/>
      <point x="407" y="1104"/>
      <point x="450" y="1145"/>
      <point x="450" y="1215" type="curve" smooth="yes"/>
      <point x="450" y="1219" type="line" smooth="yes"/>
      <point x="450" y="1287"/>
      <point x="407" y="1329"/>
      <point x="316" y="1329" type="curve" smooth="yes"/>
      <point x="226" y="1329"/>
      <point x="184" y="1287"/>
      <point x="184" y="1219" type="curve" smooth="yes"/>
      <point x="184" y="1215" type="line" smooth="yes"/>
      <point x="184" y="1146"/>
      <point x="226" y="1104"/>
    </contour>
    <contour>
      <point x="66" y="-358" type="curve" smooth="yes"/>
      <point x="336" y="-358"/>
      <point x="425" y="-207"/>
      <point x="425" y="38" type="curve" smooth="yes"/>
      <point x="425" y="268" type="line"/>
      <point x="208" y="268" type="line"/>
      <point x="208" y="45" type="line" smooth="yes"/>
      <point x="208" y="-106"/>
      <point x="162" y="-186"/>
      <point x="9" y="-186" type="curve" smooth="yes"/>
      <point x="-40" y="-186"/>
      <point x="-87" y="-177"/>
      <point x="-129" y="-160" type="curve"/>
      <point x="-110" y="-331" type="line"/>
      <point x="-67" y="-346"/>
      <point x="-4" y="-358"/>
    </contour>
  </outline>
</glyph>
<glyph name="section" format="2">
  <advance width="1296"/>
  <unicode hex="00A7"/>
  <outline>
    <contour>
      <point x="953" y="384" type="line"/>
      <point x="953" y="429" type="line"/>
      <point x="1089" y="440"/>
      <point x="1168" y="512"/>
      <point x="1168" y="631" type="curve"/>
      <point x="1168" y="631" type="line"/>
      <point x="1167" y="805"/>
      <point x="1028" y="860"/>
      <point x="671" y="893" type="curve" smooth="yes"/>
      <point x="403" y="918"/>
      <point x="343" y="943"/>
      <point x="343" y="1024" type="curve"/>
      <point x="343" y="1024" type="line"/>
      <point x="343" y="1095"/>
      <point x="409" y="1138"/>
      <point x="617" y="1138" type="curve" smooth="yes"/>
      <point x="820" y="1138"/>
      <point x="992" y="1090"/>
      <point x="1119" y="1026" type="curve"/>
      <point x="1095" y="1209" type="line"/>
      <point x="986" y="1260"/>
      <point x="816" y="1306"/>
      <point x="599" y="1306" type="curve" smooth="yes"/>
      <point x="281" y="1306"/>
      <point x="129" y="1214"/>
      <point x="129" y="1027" type="curve"/>
      <point x="129" y="1025" type="line"/>
      <point x="129" y="827"/>
      <point x="268" y="762"/>
      <point x="607" y="735" type="curve" smooth="yes"/>
      <point x="871" y="714"/>
      <point x="960" y="687"/>
      <point x="960" y="580" type="curve"/>
      <point x="960" y="580" type="line"/>
      <point x="960" y="506"/>
      <point x="891" y="457"/>
      <point x="775" y="432" type="curve"/>
    </contour>
    <contour>
      <point x="328" y="805" type="line"/>
      <point x="328" y="770" type="line"/>
      <point x="208" y="750"/>
      <point x="131" y="686"/>
      <point x="131" y="575" type="curve"/>
      <point x="131" y="573" type="line"/>
      <point x="131" y="405"/>
      <point x="267" y="342"/>
      <point x="628" y="305" type="curve" smooth="yes"/>
      <point x="870" y="280"/>
      <point x="954" y="256"/>
      <point x="954" y="173" type="curve"/>
      <point x="954" y="173" type="line"/>
      <point x="954" y="87"/>
      <point x="857" y="52"/>
      <point x="654" y="52" type="curve" smooth="yes"/>
      <point x="441" y="52"/>
      <point x="254" y="106"/>
      <point x="124" y="169" type="curve"/>
      <point x="148" y="-25" type="line"/>
      <point x="259" y="-73"/>
      <point x="444" y="-120"/>
      <point x="672" y="-120" type="curve" smooth="yes"/>
      <point x="1009" y="-120"/>
      <point x="1170" y="-25"/>
      <point x="1170" y="170" type="curve"/>
      <point x="1170" y="170" type="line"/>
      <point x="1170" y="370"/>
      <point x="1034" y="432"/>
      <point x="692" y="463" type="curve" smooth="yes"/>
      <point x="423" y="487"/>
      <point x="336" y="526"/>
      <point x="336" y="620" type="curve"/>
      <point x="336" y="620" type="line"/>
      <point x="336" y="692"/>
      <point x="391" y="741"/>
      <point x="522" y="772" type="curve"/>
    </contour>
  </outline>
</glyph>
<glyph name="guillemetleft" format="2">
  <advance width="1285"/>
  <unicode hex="00AB"/>
  <outline>
    <contour>
      <point x="1247" y="875" type="line"/>
      <point x="1009" y="875" type="line"/>
      <point x="627" y="504" type="line"/>
      <point x="627" y="458" type="line"/>
      <point x="1009" y="75" type="line"/>
      <point x="1247" y="75" type="line"/>
      <point x="854" y="475" type="line"/>
    </contour>
    <contour>
      <point x="696" y="875" type="line"/>
      <point x="458" y="875" type="line"/>
      <point x="76" y="504" type="line"/>
      <point x="76" y="458" type="line"/>
      <point x="458" y="75" type="line"/>
      <point x="696" y="75" type="line"/>
      <point x="303" y="475" type="line"/>
    </contour>
  </outline>
</glyph>
<glyph name="onequarter" format="2">
  <advance width="1837"/>
  <unicode hex="00BC"/>
  <outline>
    <contour>
      <point x="441" y="605" type="line"/>
      <point x="441" y="1278" type="line"/>
      <point x="284" y="1278" type="line"/>
      <point x="44" y="1174" type="line"/>
      <point x="37" y="1028" type="line"/>
      <point x="266" y="1125" type="line"/>
      <point x="274" y="1125" type="line"/>
      <point x="274" y="605" type="line"/>
    </contour>
    <contour>
      <point x="336" y="0" type="line"/>
      <point x="1552" y="1278" type="line"/>
      <point x="1352" y="1278" type="line"/>
      <point x="132" y="0" type="line"/>
    </contour>
    <contour>
      <point x="1685" y="0" type="line"/>
      <point x="1685" y="673" type="line"/>
      <point x="1428" y="673" type="line"/>
      <point x="986" y="265" type="line"/>
      <point x="986" y="114" type="line"/>
      <point x="1815" y="114" type="line"/>
      <point x="1815" y="246" type="line"/>
      <point x="1093" y="246" type="line"/>
      <point x="1170" y="189" type="line"/>
      <point x="1170" y="252" type="line"/>
      <point x="1511" y="564" type="line"/>
      <point x="1527" y="564" type="line"/>
      <point x="1525" y="427" type="line"/>
      <point x="1525" y="0" type="line"/>
    </contour>
  </outline>
</glyph>
<glyph name="onehalf" format="2">
  <advance width="1951"/>
  <unicode hex="00BD"/>
  <outline>
    <contour>
      <point x="441" y="605" type="line"/>
      <point x="441" y="1278" type="line"/>
      <point x="284" y="1278" type="line"/>
      <point x="44" y="1174" type="line"/>
      <point x="37" y="1028" type="line"/>
      <point x="266" y="1125" type="line"/>
      <point x="274" y="1125" type="line"/>
      <point x="274" y="605" type="line"/>
    </contour>
    <contour>
      <point x="336" y="0" type="line"/>
      <point x="1552" y="1278" type="line"/>
      <point x="1352" y="1278" type="line"/>
      <point x="132" y="0" type="line"/>
    </contour>
    <contour>
      <point x="1894" y="0" type="line"/>
      <point x="1894" y="139" type="line"/>
      <point x="1368" y="138" type="line"/>
      <point x="1482" y="109" type="line"/>
      <point x="1482" y="143" type="line"/>
      <point x="1618" y="202" type="line" smooth="yes"/>
      <point x="1798" y="280"/>
      <point x="1879" y="349"/>
      <point x="1879" y="470" type="curve" smooth="yes"/>
      <point x="1879" y="477" type="line" smooth="yes"/>
      <point x="1879" y="615"/>
      <point x="1756" y="692"/>
      <point x="1534" y="692" type="curve" smooth="yes"/>
      <point x="1413" y="692"/>
      <point x="1278" y="660"/>
      <point x="1202" y="622" type="curve"/>
      <point x="1186" y="484" type="line"/>
      <point x="1283" y="524"/>
      <point x="1390" y="557"/>
      <point x="1517" y="557" type="curve" smooth="yes"/>
      <point x="1649" y="557"/>
      <point x="1704" y="525"/>
      <point x="1704" y="457" type="curve"/>
      <point x="1704" y="455" type="line"/>
      <point x="1704" y="379"/>
      <point x="1600" y="325"/>
      <point x="1479" y="272" type="curve" smooth="yes"/>
      <point x="1181" y="142" type="line"/>
      <point x="1181" y="0" type="line"/>
    </contour>
  </outline>
</glyph>
<glyph name="Agrave" format="2">
  <advance width="1608"/>
  <unicode hex="00C0"/>
  <anchor x="804" y="0" name="bottom"/>
  <anchor x="1598" y="5" name="ogonek"/>
  <anchor x="657" y="1662" name="top"/>
  <outline>
    <contour>
      <point x="278" y="0" type="line"/>
      <point x="790" y="1138" type="line"/>
      <point x="822" y="1138" type="line"/>
      <point x="1330" y="0" type="line"/>
      <point x="1561" y="0" type="line"/>
      <point x="974" y="1278" type="line"/>
      <point x="638" y="1278" type="line"/>
      <point x="47" y="0" type="line"/>
    </contour>
    <contour>
      <point x="1215" y="354" type="line"/>
      <point x="1215" y="534" type="line"/>
      <point x="393" y="534" type="line"/>
      <point x="393" y="354" type="line"/>
    </contour>
    <contour>
      <point x="340" y="1697" type="line"/>
      <point x="340" y="1691" type="line"/>
      <point x="691" y="1424" type="line"/>
      <point x="917" y="1424" type="line"/>
      <point x="917" y="1428" type="line"/>
      <point x="611" y="1697" type="line"/>
    </contour>
  </outline>
</glyph>
<glyph name="Atilde" format="2">
  <advance width="1608"/>
  <unicode hex="00C3"/>
  <anchor x="804" y="0" name="bottom"/>
  <anchor x="1598" y="5" name="ogonek"/>
  <anchor x="804" y="1652" name="top"/>
  <outline>
    <contour>
      <point x="278" y="0" type="line"/>
      <point x="790" y="1138" type="line"/>
      <point x="822" y="1138" type="line"/>
      <point x="1330" y="0" type="line"/>
      <point x="1561" y="0" type="line"/>
      <point x="974" y="1278" type="line"/>
      <point x="638" y="1278" type="line"/>
      <point x="47" y="0" type="line"/>
    </contour>
    <contour>
      <point x="1215" y="354" type="line"/>
      <point x="1215" y="534" type="line"/>
      <point x="393" y="534" type="line"/>
      <point x="393" y="354" type="line"/>
    </contour>
    <contour>
      <point x="978" y="1432" type="curve" smooth="yes"/>
      <point x="1118" y="1432"/>
      <point x="1170" y="1512"/>
      <point x="1170" y="1644" type="curve" smooth="yes"/>
      <point x="1170" y="1676" type="line"/>
      <point x="1031" y="1676" type="line"/>
      <point x="1031" y="1666" type="line" smooth="yes"/>
      <point x="1031" y="1611"/>
      <point x="1013" y="1582"/>
      <point x="966" y="1582" type="curve" smooth="yes"/>
      <point x="871" y="1582"/>
      <point x="764" y="1664"/>
      <point x="630" y="1664" type="curve" smooth="yes"/>
      <point x="489" y="1664"/>
      <point x="438" y="1582"/>
      <point x="438" y="1452" type="curve" smooth="yes"/>
      <point x="438" y="1420" type="line"/>
      <point x="576" y="1420" type="line"/>
      <point x="576" y="1430" type="line" smooth="yes"/>
      <point x="576" y="1485"/>
      <point x="595" y="1514"/>
      <point x="642" y="1514" type="curve" smooth="yes"/>
      <point x="736" y="1514"/>
      <point x="846" y="1432"/>
    </contour>
  </outline>
</glyph>
<glyph name="AE" format="2">
  <advance width="2504"/>
  <unicode hex="00C6"/>
  <anchor x="1253" y="0" name="bottom"/>
  <anchor x="1253" y="1278" name="top"/>
  <outline>
    <contour>
      <point x="303" y="0" type="line"/>
      <point x="1157" y="1138" type="line"/>
      <point x="1274" y="1138" type="line"/>
      <point x="1276" y="1278" type="line"/>
      <point x="1013" y="1278" type="line"/>
      <point x="50" y="0" type="line"/>
    </contour>
    <contour>
      <point x="1228" y="359" type="line"/>
      <point x="1228" y="539" type="line"/>
      <point x="481" y="539" type="line"/>
      <point x="481" y="359" type="line"/>
    </contour>
    <contour>
      <point x="2377" y="0" type="line"/>
      <point x="2377" y="181" type="line"/>
      <point x="1227" y="181" type="line"/>
      <point x="1227" y="0" type="line"/>
    </contour>
    <contour>
      <point x="1435" y="0" type="line"/>
      <point x="1435" y="1278" type="line"/>
      <point x="1216" y="1278" type="line"/>
      <point x="1216" y="0" type="line"/>
    </contour>
    <contour>
      <point x="2340" y="560" type="line"/>
      <point x="2340" y="738" type="line"/>
      <point x="1330" y="738" type="line"/>
      <point x="1330" y="560" type="line"/>
    </contour>
    <contour>
      <point x="2363" y="1097" type="line"/>
      <point x="2363" y="1278" type="line"/>
      <point x="1227" y="1278" type="line"/>
      <point x="1227" y="1097" type="line"/>
    </contour>
  </outline>
</glyph>
<glyph name="Ccedilla" format="2">
  <advance width="1493"/>
  <unicode hex="00C7"/>
  <anchor x="869" y="-439" name="bottom"/>
  <anchor x="811" y="1278" name="top"/>
  <outline>
    <contour>
      <point x="853" y="-33" type="curve" smooth="yes"/>
      <point x="1082" y="-33"/>
      <point x="1254" y="30"/>
      <point x="1361" y="92" type="curve"/>
      <point x="1380" y="292" type="line"/>
      <point x="1254" y="217"/>
      <point x="1084" y="153"/>
      <point x="872" y="153" type="curve" smooth="yes"/>
      <point x="519" y="153"/>
      <point x="344" y="330"/>
      <point x="344" y="633" type="curve" smooth="yes"/>
      <point x="344" y="652" type="line" smooth="yes"/>
      <point x="344" y="952"/>
      <point x="520" y="1127"/>
      <point x="854" y="1127" type="curve" smooth="yes"/>
      <point x="1079" y="1127"/>
      <point x="1243" y="1061"/>
      <point x="1367" y="987" type="curve"/>
      <point x="1347" y="1187" type="line"/>
      <point x="1240" y="1249"/>
      <point x="1070" y="1311"/>
      <point x="841" y="1311" type="curve" smooth="yes"/>
      <point x="364" y="1311"/>
      <point x="112" y="1067"/>
      <point x="112" y="651" type="curve" smooth="yes"/>
      <point x="112" y="632" type="line" smooth="yes"/>
      <point x="112" y="211"/>
      <point x="366" y="-33"/>
    </contour>
    <contour>
      <point x="736" y="15" type="line"/>
      <point x="702" y="-192" type="line"/>
      <point x="711" y="-192"/>
      <point x="719" y="-192"/>
      <point x="745" y="-193" type="curve" smooth="yes"/>
      <point x="890" y="-198"/>
      <point x="940" y="-213"/>
      <point x="940" y="-254" type="curve"/>
      <point x="940" y="-256" type="line"/>
      <point x="940" y="-296"/>
      <point x="891" y="-310"/>
      <point x="812" y="-310" type="curve" smooth="yes"/>
      <point x="737" y="-310"/>
      <point x="671" y="-299"/>
      <point x="614" y="-282" type="curve"/>
      <point x="643" y="-419" type="line"/>
      <point x="692" y="-432"/>
      <point x="766" y="-444"/>
      <point x="838" y="-444" type="curve" smooth="yes"/>
      <point x="1020" y="-444"/>
      <point x="1113" y="-389"/>
      <point x="1113" y="-268" type="curve" smooth="yes"/>
      <point x="1113" y="-262" type="line" smooth="yes"/>
      <point x="1113" y="-157"/>
      <point x="1042" y="-103"/>
      <point x="874" y="-96" type="curve" smooth="yes"/>
      <point x="844" y="-95"/>
      <point x="814" y="-95"/>
      <point x="784" y="-95" type="curve"/>
      <point x="863" y="-160" type="line"/>
      <point x="896" y="15" type="line"/>
    </contour>
  </outline>
</glyph>
<glyph name="Ecircumflex" format="2">
  <advance width="1473"/>
  <unicode hex="00CA"/>
  <anchor x="773" y="0" name="bottom"/>
  <anchor x="1363" y="5" name="ogonek"/>
  <anchor x="775" y="1662" name="top"/>
  <anchor x="20" y="1278" name="topleft"/>
  <outline>
    <contour>
      <point x="404" y="0" type="line"/>
      <point x="404" y="1278" type="line"/>
      <point x="185" y="1278" type="line"/>
      <point x="185" y="0" type="line"/>
    </contour>
    <contour>
      <point x="1346" y="0" type="line"/>
      <point x="1346" y="181" type="line"/>
      <point x="196" y="181" type="line"/>
      <point x="196" y="0" type="line"/>
    </contour>
    <contour>
      <point x="1309" y="560" type="line"/>
      <point x="1309" y="738" type="line"/>
      <point x="299" y="738" type="line"/>
      <point x="299" y="560" type="line"/>
    </contour>
    <contour>
      <point x="1332" y="1097" type="line"/>
      <point x="1332" y="1278" type="line"/>
      <point x="196" y="1278" type="line"/>
      <point x="196" y="1097" type="line"/>
    </contour>
    <contour>
      <point x="374" y="1430" type="line"/>
      <point x="374" y="1424" type="line"/>
      <point x="571" y="1424" type="line"/>
      <point x="770" y="1580" type="line"/>
      <point x="778" y="1580" type="line"/>
      <point x="976" y="1424" type="line"/>
      <point x="1173" y="1424" type="line"/>
      <point x="1173" y="1430" type="line"/>
      <point x="887" y="1697" type="line"/>
      <point x="660" y="1697" type="line"/>
    </contour>
  </outline>
</glyph>
<glyph name="Edieresis" format="2">
  <advance width="1473"/>
  <unicode hex="00CB"/>
  <anchor x="773" y="0" name="bottom"/>
  <anchor x="1363" y="5" name="ogonek"/>
  <anchor x="773" y="1626" name="top"/>
  <anchor x="20" y="1278" name="topleft"/>
  <outline>
    <contour>
      <point x="404" y="0" type="line"/>
      <point x="404" y="1278" type="line"/>
      <point x="185" y="1278" type="line"/>
      <point x="185" y="0" type="line"/>
    </contour>
    <contour>
      <point x="1346" y="0" type="line"/>
      <point x="1346" y="181" type="line"/>
      <point x="196" y="181" type="line"/>
      <point x="196" y="0" type="line"/>
    </contour>
    <contour>
      <point x="1309" y="560" type="line"/>
      <point x="1309" y="738" type="line"/>
      <point x="299" y="738" type="line"/>
      <point x="299" y="560" type="line"/>
    </contour>
    <contour>
      <point x="1332" y="1097" type="line"/>
      <point x="1332" y="1278" type="line"/>
      <point x="196" y="1278" type="line"/>
      <point x="196" y="1097" type="line"/>
    </contour>
    <contour>
      <point x="581" y="1446" type="curve" smooth="yes"/>
      <point x="667" y="1446"/>
      <point x="708" y="1486"/>
      <point x="708" y="1554" type="curve" smooth="yes"/>
      <point x="708" y="1557" type="line" smooth="yes"/>
      <point x="708" y="1623"/>
      <point x="667" y="1664"/>
      <point x="581" y="1664" type="curve" smooth="yes"/>
      <point x="496" y="1664"/>
      <point x="456" y="1623"/>
      <point x="456" y="1557" type="curve" smooth="yes"/>
      <point x="456" y="1554" type="line" smooth="yes"/>
      <point x="456" y="1487"/>
      <point x="496" y="1446"/>
    </contour>
    <contour>
      <point x="962" y="1446" type="curve" smooth="yes"/>
      <point x="1048" y="1446"/>
      <point x="1089" y="1486"/>
      <point x="1089" y="1554" type="curve" smooth="yes"/>
      <point x="1089" y="1557" type="line" smooth="yes"/>
      <point x="1089" y="1623"/>
      <point x="1048" y="1664"/>
      <point x="962" y="1664" type="curve" smooth="yes"/>
      <point x="877" y="1664"/>
      <point x="837" y="1623"/>
      <point x="837" y="1557" type="curve" smooth="yes"/>
      <point x="837" y="1554" type="line" smooth="yes"/>
      <point x="837" y="1487"/>
      <point x="877" y="1446"/>
    </contour>
  </outline>
</glyph>
<glyph name="Igrave" format="2">
  <advance width="597"/>
  <unicode hex="00CC"/>
  <anchor x="299" y="0" name="bottom"/>
  <anchor x="448" y="5" name="ogonek"/>
  <anchor x="152" y="1662" name="top"/>
  <anchor x="20" y="1278" name="topleft"/>
  <outline>
    <contour>
      <point x="410" y="1278" type="line"/>
      <point x="187" y="1278" type="line"/>
      <point x="187" y="0" type="line"/>
      <point x="410" y="0" type="line"/>
    </contour>
    <contour>
      <point x="-165" y="1697" type="line"/>
      <point x="-165" y="1691" type="line"/>
      <point x="186" y="1424" type="line"/>
      <point x="412" y="1424" type="line"/>
      <point x="412" y="1428" type="line"/>
      <point x="106" y="1697" type="line"/>
    </contour>
  </outline>
</glyph>
<glyph name="Eth" format="2">
  <advance width="1635"/>
  <unicode hex="00D0"/>
  <anchor x="798" y="0" name="bottom"/>
  <anchor x="818" y="639" name="center"/>
  <anchor x="798" y="1278" name="top"/>
  <outline>
    <contour>
      <point x="857" y="568" type="line"/>
      <point x="857" y="732" type="line"/>
      <point x="-3" y="733" type="line"/>
      <point x="-3" y="569" type="line"/>
    </contour>
    <contour>
      <point x="825" y="0" type="line" smooth="yes"/>
      <point x="1281" y="0"/>
      <point x="1525" y="226"/>
      <point x="1525" y="631" type="curve" smooth="yes"/>
      <point x="1525" y="651" type="line" smooth="yes"/>
      <point x="1525" y="1054"/>
      <point x="1281" y="1278"/>
      <point x="825" y="1278" type="curve" smooth="yes"/>
      <point x="344" y="1278" type="line"/>
      <point x="344" y="1097" type="line"/>
      <point x="818" y="1097" type="line" smooth="yes"/>
      <point x="1129" y="1097"/>
      <point x="1294" y="935"/>
      <point x="1294" y="650" type="curve" smooth="yes"/>
      <point x="1294" y="631" type="line" smooth="yes"/>
      <point x="1294" y="346"/>
      <point x="1129" y="181"/>
      <point x="818" y="181" type="curve" smooth="yes"/>
      <point x="350" y="181" type="line"/>
      <point x="350" y="0" type="line"/>
    </contour>
    <contour>
      <point x="408" y="0" type="line"/>
      <point x="408" y="1278" type="line"/>
      <point x="185" y="1278" type="line"/>
      <point x="185" y="0" type="line"/>
    </contour>
  </outline>
</glyph>
<glyph name="Ntilde" format="2">
  <advance width="1688"/>
  <unicode hex="00D1"/>
  <anchor x="844" y="0" name="bottom"/>
  <anchor x="844" y="1652" name="top"/>
  <outline>
    <contour>
      <point x="185" y="1278" type="line"/>
      <point x="185" y="0" type="line"/>
      <point x="408" y="0" type="line"/>
      <point x="408" y="530" type="line"/>
      <point x="400" y="1078" type="line"/>
      <point x="418" y="1078" type="line"/>
      <point x="1191" y="0" type="line"/>
      <point x="1503" y="0" type="line"/>
      <point x="1503" y="1278" type="line"/>
      <point x="1281" y="1278" type="line"/>
      <point x="1281" y="725" type="line"/>
      <point x="1289" y="218" type="line"/>
      <point x="1271" y="218" type="line"/>
      <point x="510" y="1278" type="line"/>
    </contour>
    <contour>
      <point x="1018" y="1432" type="curve" smooth="yes"/>
      <point x="1158" y="1432"/>
      <point x="1210" y="1512"/>
      <point x="1210" y="1644" type="curve" smooth="yes"/>
      <point x="1210" y="1676" type="line"/>
      <point x="1071" y="1676" type="line"/>
      <point x="1071" y="1666" type="line" smooth="yes"/>
      <point x="1071" y="1611"/>
      <point x="1053" y="1582"/>
      <point x="1006" y="1582" type="curve" smooth="yes"/>
      <point x="911" y="1582"/>
      <point x="804" y="1664"/>
      <point x="670" y="1664" type="curve" smooth="yes"/>
      <point x="529" y="1664"/>
      <point x="478" y="1582"/>
      <point x="478" y="1452" type="curve" smooth="yes"/>
      <point x="478" y="1420" type="line"/>
      <point x="616" y="1420" type="line"/>
      <point x="616" y="1430" type="line" smooth="yes"/>
      <point x="616" y="1485"/>
      <point x="635" y="1514"/>
      <point x="682" y="1514" type="curve" smooth="yes"/>
      <point x="776" y="1514"/>
      <point x="886" y="1432"/>
    </contour>
  </outline>
</glyph>
<glyph name="Uacute" format="2">
  <advance width="1661"/>
  <unicode hex="00DA"/>
  <anchor x="831" y="0" name="bottom"/>
  <anchor x="1168" y="5" name="ogonek"/>
  <anchor x="831" y="1662" name="top"/>
  <anchor x="1626" y="1278" name="topright"/>
  <outline>
    <contour>
      <point x="831" y="-33" type="curve" smooth="yes"/>
      <point x="1284" y="-33"/>
      <point x="1489" y="182"/>
      <point x="1489" y="593" type="curve" smooth="yes"/>
      <point x="1489" y="1278" type="line"/>
      <point x="1266" y="1278" type="line"/>
      <point x="1266" y="595" type="line" smooth="yes"/>
      <point x="1266" y="308"/>
      <point x="1136" y="153"/>
      <point x="831" y="153" type="curve" smooth="yes"/>
      <point x="526" y="153"/>
      <point x="395" y="308"/>
      <point x="395" y="595" type="curve" smooth="yes"/>
      <point x="395" y="1278" type="line"/>
      <point x="172" y="1278" type="line"/>
      <point x="172" y="593" type="line" smooth="yes"/>
      <point x="172" y="182"/>
      <point x="379" y="-33"/>
    </contour>
    <contour>
      <point x="717" y="1428" type="line"/>
      <point x="717" y="1424" type="line"/>
      <point x="943" y="1424" type="line"/>
      <point x="1294" y="1691" type="line"/>
      <point x="1294" y="1697" type="line"/>
      <point x="1023" y="1697" type="line"/>
    </contour>
  </outline>
</glyph>
<glyph name="agrave" format="2">
  <advance width="1323"/>
  <unicode hex="00E0"/>
  <anchor x="650" y="0" name="bottom"/>
  <anchor x="1227" y="5" name="ogonek"/>
  <anchor x="499" y="1348" name="top"/>
  <outline>
    <contour>
      <point x="1184" y="0" type="line"/>
      <point x="1184" y="557" type="line" smooth="yes"/>
      <point x="1184" y="801"/>
      <point x="1053" y="989"/>
      <point x="660" y="989" type="curve" smooth="yes"/>
      <point x="436" y="989"/>
      <point x="272" y="926"/>
      <point x="168" y="872" type="curve"/>
      <point x="144" y="692" type="line"/>
      <point x="270" y="752"/>
      <point x="429" y="811"/>
      <point x="628" y="811" type="curve" smooth="yes"/>
      <point x="863" y="811"/>
      <point x="970" y="727"/>
      <point x="970" y="573" type="curve"/>
      <point x="969" y="540" type="line"/>
      <point x="969" y="322" type="line"/>
      <point x="975" y="278" type="line"/>
      <point x="966" y="0" type="line"/>
    </contour>
    <contour>
      <point x="488" y="-29" type="curve" smooth="yes"/>
      <point x="791" y="-29"/>
      <point x="919" y="100"/>
      <point x="964" y="244" type="curve"/>
      <point x="1006" y="244" type="line"/>
      <point x="975" y="400" type="line"/>
      <point x="937" y="265"/>
      <point x="789" y="149"/>
      <point x="546" y="149" type="curve" smooth="yes"/>
      <point x="389" y="149"/>
      <point x="306" y="196"/>
      <point x="306" y="280" type="curve" smooth="yes"/>
      <point x="306" y="287" type="line" smooth="yes"/>
      <point x="306" y="380"/>
      <point x="375" y="412"/>
      <point x="588" y="429" type="curve" smooth="yes"/>
      <point x="995" y="461" type="line"/>
      <point x="991" y="608" type="line"/>
      <point x="572" y="577" type="line" smooth="yes"/>
      <point x="245" y="553"/>
      <point x="88" y="471"/>
      <point x="88" y="267" type="curve" smooth="yes"/>
      <point x="88" y="258" type="line" smooth="yes"/>
      <point x="88" y="74"/>
      <point x="236" y="-29"/>
    </contour>
    <contour>
      <point x="237" y="1387" type="line"/>
      <point x="237" y="1381" type="line"/>
      <point x="546" y="1094" type="line"/>
      <point x="750" y="1094" type="line"/>
      <point x="750" y="1099" type="line"/>
      <point x="490" y="1387" type="line"/>
    </contour>
  </outline>
</glyph>
<glyph name="aring" format="2">
  <advance width="1323"/>
  <unicode hex="00E5"/>
  <anchor x="650" y="0" name="bottom"/>
  <anchor x="1227" y="5" name="ogonek"/>
  <anchor x="650" y="1413" name="top"/>
  <outline>
    <contour>
      <point x="1184" y="0" type="line"/>
      <point x="1184" y="557" type="line" smooth="yes"/>
      <point x="1184" y="801"/>
      <point x="1053" y="989"/>
      <point x="660" y="989" type="curve" smooth="yes"/>
      <point x="436" y="989"/>
      <point x="272" y="926"/>
      <point x="168" y="872" type="curve"/>
      <point x="144" y="692" type="line"/>
      <point x="270" y="752"/>
      <point x="429" y="811"/>
      <point x="628" y="811" type="curve" smooth="yes"/>
      <point x="863" y="811"/>
      <point x="970" y="727"/>
      <point x="970" y="573" type="curve"/>
      <point x="969" y="540" type="line"/>
      <point x="969" y="322" type="line"/>
      <point x="975" y="278" type="line"/>
      <point x="966" y="0" type="line"/>
    </contour>
    <contour>
      <point x="488" y="-29" type="curve" smooth="yes"/>
      <point x="791" y="-29"/>
      <point x="919" y="100"/>
      <point x="964" y="244" type="curve"/>
      <point x="1006" y="244" type="line"/>
      <point x="975" y="400" type="line"/>
      <point x="937" y="265"/>
      <point x="789" y="149"/>
      <point x="546" y="149" type="curve" smooth="yes"/>
      <point x="389" y="149"/>
      <point x="306" y="196"/>
      <point x="306" y="280" type="curve" smooth="yes"/>
      <point x="306" y="287" type="line" smooth="yes"/>
      <point x="306" y="380"/>
      <point x="375" y="412"/>
      <point x="588" y="429" type="curve" smooth="yes"/>
      <point x="995" y="461" type="line"/>
      <point x="991" y="608" type="line"/>
      <point x="572" y="577" type="line" smooth="yes"/>
      <point x="245" y="553"/>
      <point x="88" y="471"/>
      <point x="88" y="267" type="curve" smooth="yes"/>
      <point x="88" y="258" type="line" smooth="yes"/>
      <point x="88" y="74"/>
      <point x="236" y="-29"/>
    </contour>
    <contour>
      <point x="424" y="1258" type="line" smooth="yes"/>
      <point x="424" y="1147"/>
      <point x="498" y="1075"/>
      <point x="650" y="1075" type="curve" smooth="yes"/>
      <point x="801" y="1075"/>
      <point x="875" y="1147"/>
      <point x="875" y="1258" type="curve" smooth="yes"/>
      <point x="875" y="1262" type="line" smooth="yes"/>
      <point x="875" y="1374"/>
      <point x="801" y="1445"/>
      <point x="650" y="1445" type="curve" smooth="yes"/>
      <point x="498" y="1445"/>
      <point x="424" y="1374"/>
      <point x="424" y="1262" type="curve" smooth="yes"/>
    </contour>
    <contour>
      <point x="552" y="1262" type="line" smooth="yes"/>
      <point x="552" y="1313"/>
      <point x="586" y="1341"/>
      <point x="650" y="1341" type="curve" smooth="yes"/>
      <point x="714" y="1341"/>
      <point x="748" y="1313"/>
      <point x="748" y="1262" type="curve" smooth="yes"/>
      <point x="748" y="1259" type="line" smooth="yes"/>
      <point x="748" y="1208"/>
      <point x="714" y="1179"/>
      <point x="650" y="1179" type="curve" smooth="yes"/>
      <point x="586" y="1179"/>
      <point x="552" y="1208"/>
      <point x="552" y="1259" type="curve" smooth="yes"/>
    </contour>
  </outline>
</glyph>
<glyph name="ccedilla" format="2">
  <advance width="1229"/>
  <unicode hex="00E7"/>
  <anchor x="718" y="-439" name="bottom"/>
  <anchor x="660" y="958" name="top"/>
  <outline>
    <contour>
      <point x="690" y="-32" type="curve" smooth="yes"/>
      <point x="888" y="-32"/>
      <point x="1031" y="18"/>
      <point x="1120" y="69" type="curve"/>
      <point x="1141" y="261" type="line"/>
      <point x="1036" y="200"/>
      <point x="907" y="149"/>
      <point x="727" y="149" type="curve" smooth="yes"/>
      <point x="461" y="149"/>
      <point x="321" y="267"/>
      <point x="321" y="476" type="curve" smooth="yes"/>
      <point x="321" y="493" type="line" smooth="yes"/>
      <point x="321" y="700"/>
      <point x="457" y="814"/>
      <point x="719" y="814" type="curve" smooth="yes"/>
      <point x="900" y="814"/>
      <point x="1031" y="763"/>
      <point x="1129" y="703" type="curve"/>
      <point x="1108" y="893" type="line"/>
      <point x="1023" y="941"/>
      <point x="883" y="992"/>
      <point x="688" y="992" type="curve" smooth="yes"/>
      <point x="306" y="992"/>
      <point x="101" y="813"/>
      <point x="101" y="494" type="curve" smooth="yes"/>
      <point x="101" y="475" type="line" smooth="yes"/>
      <point x="101" y="149"/>
      <point x="306" y="-32"/>
    </contour>
    <contour>
      <point x="585" y="20" type="line"/>
      <point x="551" y="-187" type="line"/>
      <point x="560" y="-187"/>
      <point x="568" y="-187"/>
      <point x="594" y="-188" type="curve" smooth="yes"/>
      <point x="739" y="-193"/>
      <point x="789" y="-208"/>
      <point x="789" y="-249" type="curve"/>
      <point x="789" y="-251" type="line"/>
      <point x="789" y="-291"/>
      <point x="740" y="-305"/>
      <point x="661" y="-305" type="curve" smooth="yes"/>
      <point x="586" y="-305"/>
      <point x="520" y="-294"/>
      <point x="463" y="-277" type="curve"/>
      <point x="492" y="-414" type="line"/>
      <point x="541" y="-427"/>
      <point x="615" y="-439"/>
      <point x="687" y="-439" type="curve" smooth="yes"/>
      <point x="869" y="-439"/>
      <point x="962" y="-384"/>
      <point x="962" y="-263" type="curve" smooth="yes"/>
      <point x="962" y="-257" type="line" smooth="yes"/>
      <point x="962" y="-152"/>
      <point x="891" y="-98"/>
      <point x="723" y="-91" type="curve" smooth="yes"/>
      <point x="693" y="-90"/>
      <point x="663" y="-90"/>
      <point x="633" y="-90" type="curve"/>
      <point x="712" y="-155" type="line"/>
      <point x="745" y="20" type="line"/>
    </contour>
  </outline>
</glyph>
<glyph name="iacute" format="2">
  <advance width="541"/>
  <unicode hex="00ED"/>
  <anchor x="271" y="0" name="bottom"/>
  <anchor x="423" y="5" name="ogonek"/>
  <anchor x="221" y="1348" name="top"/>
  <outline>
    <contour>
      <point x="379" y="0" type="line"/>
      <point x="379" y="958" type="line"/>
      <point x="162" y="958" type="line"/>
      <point x="162" y="0" type="line"/>
    </contour>
    <contour>
      <point x="182" y="1097" type="line"/>
      <point x="182" y="1094" type="line"/>
      <point x="368" y="1094" type="line"/>
      <point x="553" y="1383" type="line"/>
      <point x="553" y="1387" type="line"/>
      <point x="328" y="1387" type="line"/>
    </contour>
  </outline>
</glyph>
<glyph name="ocircumflex" format="2">
  <advance width="1409"/>
  <unicode hex="00F4"/>
  <anchor x="705" y="0" name="bottom"/>
  <anchor x="705" y="479" name="center"/>
  <anchor x="1017" y="5" name="ogonek"/>
  <anchor x="705" y="1346" name="top"/>
  <anchor x="1251" y="958" name="topright"/>
  <outline>
    <contour>
      <point x="704" y="-30" type="curve" smooth="yes"/>
      <point x="1096" y="-30"/>
      <point x="1308" y="146"/>
      <point x="1308" y="468" type="curve" smooth="yes"/>
      <point x="1308" y="493" type="line" smooth="yes"/>
      <point x="1308" y="813"/>
      <point x="1096" y="990"/>
      <point x="704" y="990" type="curve" smooth="yes"/>
      <point x="313" y="990"/>
      <point x="101" y="813"/>
      <point x="101" y="493" type="curve" smooth="yes"/>
      <point x="101" y="468" type="line" smooth="yes"/>
      <point x="101" y="147"/>
      <point x="312" y="-30"/>
    </contour>
    <contour>
      <point x="704" y="143" type="curve" smooth="yes"/>
      <point x="458" y="143"/>
      <point x="320" y="259"/>
      <point x="320" y="468" type="curve" smooth="yes"/>
      <point x="320" y="493" type="line" smooth="yes"/>
      <point x="320" y="702"/>
      <point x="458" y="817"/>
      <point x="704" y="817" type="curve" smooth="yes"/>
      <point x="952" y="817"/>
      <point x="1089" y="702"/>
      <point x="1089" y="493" type="curve" smooth="yes"/>
      <point x="1089" y="468" type="line" smooth="yes"/>
      <point x="1089" y="259"/>
      <point x="951" y="143"/>
    </contour>
    <contour>
      <point x="333" y="1099" type="line"/>
      <point x="333" y="1094" type="line"/>
      <point x="516" y="1094" type="line"/>
      <point x="701" y="1270" type="line"/>
      <point x="709" y="1270" type="line"/>
      <point x="893" y="1094" type="line"/>
      <point x="1076" y="1094" type="line"/>
      <point x="1076" y="1099" type="line"/>
      <point x="817" y="1387" type="line"/>
      <point x="592" y="1387" type="line"/>
    </contour>
  </outline>
</glyph>
<glyph name="yacute" format="2">
  <advance width="1315"/>
  <unicode hex="00FD"/>
  <anchor x="1025" y="32" name="bottom"/>
  <anchor x="658" y="1348" name="top"/>
  <outline>
    <contour>
      <point x="638" y="185" type="line"/>
      <point x="274" y="958" type="line"/>
      <point x="38" y="958" type="line"/>
      <point x="488" y="39" type="line"/>
      <point x="718" y="39" type="line"/>
      <point x="633" y="133" type="line"/>
      <point x="398" y="-338" type="line"/>
      <point x="631" y="-338" type="line"/>
      <point x="1277" y="958" type="line"/>
      <point x="1041" y="958" type="line"/>
      <point x="632" y="108" type="line"/>
      <point x="760" y="185" type="line"/>
    </contour>
    <contour>
      <point x="558" y="1099" type="line"/>
      <point x="558" y="1094" type="line"/>
      <point x="762" y="1094" type="line"/>
      <point x="1071" y="1381" type="line"/>
      <point x="1071" y="1387" type="line"/>
      <point x="818" y="1387" type="line"/>
    </contour>
  </outline>
</glyph>
<glyph name="ydieresis" format="2">
  <advance width="1315"/>
  <unicode hex="00FF"/>
  <anchor x="1025" y="32" name="bottom"/>
  <anchor x="658" y="1338" name="top"/>
  <outline>
    <contour>
      <point x="638" y="185" type="line"/>
      <point x="274" y="958" type="line"/>
      <point x="38" y="958" type="line"/>
      <point x="488" y="39" type="line"/>
      <point x="718" y="39" type="line"/>
      <point x="633" y="133" type="line"/>
      <point x="398" y="-338" type="line"/>
      <point x="631" y="-338" type="line"/>
      <point x="1277" y="958" type="line"/>
      <point x="1041" y="958" type="line"/>
      <point x="632" y="108" type="line"/>
      <point x="760" y="185" type="line"/>
    </contour>
    <contour>
      <point x="466" y="1125" type="curve" smooth="yes"/>
      <point x="552" y="1125"/>
      <point x="593" y="1165"/>
      <point x="593" y="1233" type="curve" smooth="yes"/>
      <point x="593" y="1236" type="line" smooth="yes"/>
      <point x="593" y="1302"/>
      <point x="552" y="1343"/>
      <point x="466" y="1343" type="curve" smooth="yes"/>
      <point x="381" y="1343"/>
      <point x="341" y="1302"/>
      <point x="341" y="1236" type="curve" smooth="yes"/>
      <point x="341" y="1233" type="line" smooth="yes"/>
      <point x="341" y="1166"/>
      <point x="381" y="1125"/>
    </contour>
    <contour>
      <point x="847" y="1125" type="curve" smooth="yes"/>
      <point x="933" y="1125"/>
      <point x="974" y="1165"/>
      <point x="974" y="1233" type="curve" smooth="yes"/>
      <point x="974" y="1236" type="line" smooth="yes"/>
      <point x="974" y="1302"/>
      <point x="933" y="1343"/>
      <point x="847" y="1343" type="curve" smooth="yes"/>
      <point x="762" y="1343"/>
      <point x="722" y="1302"/>
      <point x="722" y="1236" type="curve" smooth="yes"/>
      <point x="722" y="1233" type="line" smooth="yes"/>
      <point x="722" y="1166"/>
      <point x="762" y="1125"/>
    </contour>
  </outline>
</glyph>
<glyph name="idotless" format="2">
  <advance width="541"/>
  <unicode hex="0131"/>
  <anchor x="271" y="0" name="bottom"/>
  <anchor x="423" y="5" name="ogonek"/>
  <anchor x="271" y="958" name="top"/>
  <outline>
    <contour>
      <point x="379" y="0" type="line"/>
      <point x="379" y="958" type="line"/>
      <point x="162" y="958" type="line"/>
      <point x="162" y="0" type="line"/>
    </contour>
  </outline>
</glyph>
<glyph name="ringcomb" format="2">
  <advance width="651"/>
  <unicode hex="030A"/>
  <anchor x="326" y="958" name="_top"/>
  <anchor x="326" y="1413" name="top"/>
  <outline>
    <contour>
      <point x="100" y="1258" type="line" smooth="yes"/>
      <point x="100" y="1147"/>
      <point x="174" y="1075"/>
      <point x="326" y="1075" type="curve" smooth="yes"/>
      <point x="477" y="1075"/>
      <point x="551" y="1147"/>
      <point x="551" y="1258" type="curve" smooth="yes"/>
      <point x="551" y="1262" type="line" smooth="yes"/>
      <point x="551" y="1374"/>
      <point x="477" y="1445"/>
      <point x="326" y="1445" type="curve" smooth="yes"/>
      <point x="174" y="1445"/>
      <point x="100" y="1374"/>
      <point x="100" y="1262" type="curve" smooth="yes"/>
    </contour>
    <contour>
      <point x="228" y="1262" type="line" smooth="yes"/>
      <point x="228" y="1313"/>
      <point x="262" y="1341"/>
      <point x="326" y="1341" type="curve" smooth="yes"/>
      <point x="390" y="1341"/>
      <point x="424" y="1313"/>
      <point x="424" y="1262" type="curve" smooth="yes"/>
      <point x="424" y="1259" type="line" smooth="yes"/>
      <point x="424" y="1208"/>
      <point x="390" y="1179"/>
      <point x="326" y="1179" type="curve" smooth="yes"/>
      <point x="262" y="1179"/>
      <point x="228" y="1208"/>
      <point x="228" y="1259" type="curve" smooth="yes"/>
    </contour>
  </outline>
</glyph>
<glyph name="Chandrabindu.dv" format="2">
  <unicode hex="0901"/>
  <anchor x="-329.5" y="1217.5" name="_top"/>
  <outline>
    <contour>
      <point x="-328" y="1690.81" type="curve" smooth="yes"/>
      <point x="-415.217" y="1690.81"/>
      <point x="-453.087" y="1740.16"/>
      <point x="-453.087" y="1807.29" type="curve" smooth="yes"/>
      <point x="-453.087" y="1813.03" type="line" smooth="yes"/>
      <point x="-453.087" y="1879.59"/>
      <point x="-415.217" y="1928.94"/>
      <point x="-328" y="1928.94" type="curve" smooth="yes"/>
      <point x="-240.783" y="1928.94"/>
      <point x="-202.913" y="1879.59"/>
      <point x="-202.913" y="1813.03" type="curve" smooth="yes"/>
      <point x="-202.913" y="1807.29" type="line" smooth="yes"/>
      <point x="-202.913" y="1740.16"/>
      <point x="-240.783" y="1690.81"/>
    </contour>
    <contour>
      <point x="111" y="1783.5" type="line"/>
      <point x="112.5" y="1763"/>
      <point x="112.5" y="1752"/>
      <point x="112.5" y="1744.5" type="curve" smooth="yes"/>
      <point x="112.5" y="1533"/>
      <point x="-34" y="1415.5"/>
      <point x="-329.5" y="1415.5" type="curve" smooth="yes"/>
      <point x="-618" y="1415.5"/>
      <point x="-769.5" y="1533.65"/>
      <point x="-769.5" y="1743.5" type="curve" smooth="yes"/>
      <point x="-769.5" y="1751.65"/>
      <point x="-769.5" y="1763.01"/>
      <point x="-767.5" y="1783.5" type="curve"/>
      <point x="-587.5" y="1783.5" type="line"/>
      <point x="-587.5" y="1763" type="line" smooth="yes"/>
      <point x="-587.5" y="1631.6"/>
      <point x="-507.542" y="1565.5"/>
      <point x="-329.861" y="1565.5" type="curve" smooth="yes"/>
      <point x="-152.179" y="1565.5"/>
      <point x="-69" y="1633.78"/>
      <point x="-69" y="1763.91" type="curve" smooth="yes"/>
      <point x="-69" y="1784.5" type="line"/>
    </contour>
  </outline>
</glyph>
<glyph name="Bindu.dv" format="2">
  <unicode hex="0902"/>
  <anchor x="-329.5" y="1217.5" name="_top"/>
  <outline>
    <contour>
      <point x="-326.5" y="1473" type="curve" smooth="yes"/>
      <point x="-431" y="1473"/>
      <point x="-477" y="1524"/>
      <point x="-477" y="1597" type="curve" smooth="yes"/>
      <point x="-477" y="1602" type="line" smooth="yes"/>
      <point x="-477" y="1673.5"/>
      <point x="-428.5" y="1725.5"/>
      <point x="-326.5" y="1725.5" type="curve" smooth="yes"/>
      <point x="-224.5" y="1725.5"/>
      <point x="-176" y="1676"/>
      <point x="-176" y="1602" type="curve" smooth="yes"/>
      <point x="-176" y="1597" type="line" smooth="yes"/>
      <point x="-176" y="1524"/>
      <point x="-220.5" y="1473"/>
    </contour>
  </outline>
  <guideline angle="90" x="-169" y="0"/>
  <guideline angle="0" x="0" y="1262"/>
</glyph>
<glyph name="Visarga.dv" format="2">
  <advance width="532"/>
  <unicode hex="0903"/>
  <outline>
    <contour>
      <point x="-35.5" y="1092.5" type="line"/>
      <point x="-50" y="1248" type="line"/>
      <point x="568" y="1248" type="line"/>
      <point x="582" y="1092.5" type="line"/>
    </contour>
    <contour>
      <point x="258.95" y="641.13" type="curve" smooth="yes"/>
      <point x="368.15" y="641.13"/>
      <point x="417.03" y="689.49"/>
      <point x="417.03" y="765.41" type="curve" smooth="yes"/>
      <point x="417.03" y="770.09" type="line" smooth="yes"/>
      <point x="417.03" y="846.01"/>
      <point x="365.03" y="894.37"/>
      <point x="259.99" y="894.37" type="curve" smooth="yes"/>
      <point x="152.87" y="894.37"/>
      <point x="103.47" y="844.97"/>
      <point x="103.47" y="770.09" type="curve" smooth="yes"/>
      <point x="103.47" y="765.41" type="line" smooth="yes"/>
      <point x="103.47" y="689.49"/>
      <point x="150.79" y="641.13"/>
    </contour>
    <contour>
      <point x="258.95" y="148.14" type="curve" smooth="yes"/>
      <point x="368.15" y="148.14"/>
      <point x="417.03" y="197.54"/>
      <point x="417.03" y="272.42" type="curve" smooth="yes"/>
      <point x="417.03" y="277.62" type="line" smooth="yes"/>
      <point x="417.03" y="351.46"/>
      <point x="365.03" y="400.86"/>
      <point x="259.99" y="400.86" type="curve" smooth="yes"/>
      <point x="152.87" y="400.86"/>
      <point x="103.47" y="350.94"/>
      <point x="103.47" y="277.62" type="curve" smooth="yes"/>
      <point x="103.47" y="272.42" type="line" smooth="yes"/>
      <point x="103.47" y="197.54"/>
      <point x="150.79" y="148.14"/>
    </contour>
  </outline>
</glyph>
<glyph name="vowelI.dv" format="2">
  <advance width="1462"/>
  <unicode hex="0907"/>
  <anchor x="1307" y="-272.5" name="bottom3"/>
  <anchor x="1135.5" y="1217.5" name="top"/>
  <outline>
    <contour>
      <point x="908.5" y="1093.5" type="line"/>
      <point x="894.5" y="1248" type="line"/>
      <point x="1476" y="1248" type="line"/>
      <point x="1490" y="1093.5" type="line"/>
    </contour>
    <contour>
      <point x="1240.5" y="1145.5" type="line"/>
      <point x="1240.5" y="912.5" type="line"/>
      <point x="1037" y="912.5" type="line"/>
      <point x="1037" y="1145.5" type="line"/>
    </contour>
    <contour>
      <point x="1498" y="1093" type="line"/>
      <point x="-26" y="1093" type="line"/>
      <point x="-40" y="1248" type="line"/>
      <point x="1484" y="1248" type="line"/>
    </contour>
    <contour>
      <point x="1037" y="1140" type="line"/>
      <point x="1241" y="1140" type="line"/>
      <point x="1241" y="734" type="line"/>
      <point x="1037" y="767" type="line"/>
    </contour>
    <contour>
      <point x="1028" y="-395" type="line"/>
      <point x="767" y="-395" type="line"/>
      <point x="358" y="-4.32272" type="line"/>
      <point x="142" y="76" type="line"/>
      <point x="569" y="7" type="line"/>
      <point x="569" y="-38" type="line"/>
      <point x="677.301" y="-94.3258"/>
      <point x="738.742" y="-134.541"/>
      <point x="832" y="-214" type="curve" smooth="yes"/>
      <point x="1028" y="-381" type="line"/>
    </contour>
    <contour>
      <point x="125" y="267" type="line"/>
      <point x="320.606" y="172"/>
      <point x="518.209" y="120"/>
      <point x="731.779" y="120" type="curve" smooth="yes"/>
      <point x="1030.41" y="120"/>
      <point x="1119" y="164.571"/>
      <point x="1119" y="261.465" type="curve" smooth="yes"/>
      <point x="1119" y="265.394" type="line" smooth="yes"/>
      <point x="1119" y="346.338"/>
      <point x="1052.37" y="399"/>
      <point x="829.597" y="399" type="curve" smooth="yes"/>
      <point x="659.947" y="399"/>
      <point x="530.214" y="373"/>
      <point x="410.461" y="336" type="curve"/>
      <point x="240.811" y="391.198"/>
      <point x="149" y="477.309"/>
      <point x="149" y="617.112" type="curve" smooth="yes"/>
      <point x="149" y="624.178" type="line" smooth="yes"/>
      <point x="149" y="809.525"/>
      <point x="288" y="926"/>
      <point x="726" y="926" type="curve" smooth="yes"/>
      <point x="909" y="926"/>
      <point x="1053" y="916"/>
      <point x="1241" y="889" type="curve"/>
      <point x="1241" y="734" type="line"/>
      <point x="1085.35" y="756"/>
      <point x="927.714" y="766"/>
      <point x="767.08" y="766" type="curve" smooth="yes"/>
      <point x="451.579" y="766"/>
      <point x="363" y="708.177"/>
      <point x="363" y="623.978" type="curve" smooth="yes"/>
      <point x="363" y="619.891" type="line" smooth="yes"/>
      <point x="363" y="566.761"/>
      <point x="390.61" y="531"/>
      <point x="445.829" y="506" type="curve"/>
      <point x="558.597" y="540"/>
      <point x="688.329" y="564"/>
      <point x="849.996" y="564" type="curve" smooth="yes"/>
      <point x="1210.25" y="564"/>
      <point x="1333" y="438.029"/>
      <point x="1333" y="264.447" type="curve" smooth="yes"/>
      <point x="1333" y="259.488" type="line" smooth="yes"/>
      <point x="1333" y="71.0275"/>
      <point x="1189" y="-48"/>
      <point x="762" y="-48" type="curve" smooth="yes"/>
      <point x="641" y="-48"/>
      <point x="529.053" y="-28.1755"/>
      <point x="411" y="13" type="curve"/>
      <point x="142" y="76" type="line"/>
    </contour>
  </outline>
</glyph>
<glyph name="vowelIi.dv" format="2">
  <advance width="1462"/>
  <unicode hex="0908"/>
  <anchor x="1307" y="-272.5" name="bottom3"/>
  <anchor x="1135.5" y="1217.5" name="top"/>
  <outline>
    <contour>
      <point x="908.5" y="1093.5" type="line"/>
      <point x="894.5" y="1248" type="line"/>
      <point x="1476" y="1248" type="line"/>
      <point x="1490" y="1093.5" type="line"/>
    </contour>
    <contour>
      <point x="1240.5" y="1145.5" type="line"/>
      <point x="1240.5" y="912.5" type="line"/>
      <point x="1037" y="912.5" type="line"/>
      <point x="1037" y="1145.5" type="line"/>
    </contour>
    <contour>
      <point x="1498" y="1093" type="line"/>
      <point x="-26" y="1093" type="line"/>
      <point x="-40" y="1248" type="line"/>
      <point x="1484" y="1248" type="line"/>
    </contour>
    <contour>
      <point x="1037" y="1140" type="line"/>
      <point x="1241" y="1140" type="line"/>
      <point x="1241" y="734" type="line"/>
      <point x="1037" y="767" type="line"/>
    </contour>
    <contour>
      <point x="1028" y="-395" type="line"/>
      <point x="767" y="-395" type="line"/>
      <point x="358" y="-4.32272" type="line"/>
      <point x="142" y="76" type="line"/>
      <point x="569" y="7" type="line"/>
      <point x="569" y="-38" type="line"/>
      <point x="677.301" y="-94.3258"/>
      <point x="738.742" y="-134.541"/>
      <point x="832" y="-214" type="curve" smooth="yes"/>
      <point x="1028" y="-381" type="line"/>
    </contour>
    <contour>
      <point x="125" y="267" type="line"/>
      <point x="320.606" y="172"/>
      <point x="518.209" y="120"/>
      <point x="731.779" y="120" type="curve" smooth="yes"/>
      <point x="1030.41" y="120"/>
      <point x="1119" y="164.571"/>
      <point x="1119" y="261.465" type="curve" smooth="yes"/>
      <point x="1119" y="265.394" type="line" smooth="yes"/>
      <point x="1119" y="346.338"/>
      <point x="1052.37" y="399"/>
      <point x="829.597" y="399" type="curve" smooth="yes"/>
      <point x="659.947" y="399"/>
      <point x="530.214" y="373"/>
      <point x="410.461" y="336" type="curve"/>
      <point x="240.811" y="391.198"/>
      <point x="149" y="477.309"/>
      <point x="149" y="617.112" type="curve" smooth="yes"/>
      <point x="149" y="624.178" type="line" smooth="yes"/>
      <point x="149" y="809.525"/>
      <point x="288" y="926"/>
      <point x="726" y="926" type="curve" smooth="yes"/>
      <point x="909" y="926"/>
      <point x="1053" y="916"/>
      <point x="1241" y="889" type="curve"/>
      <point x="1241" y="734" type="line"/>
      <point x="1085.35" y="756"/>
      <point x="927.714" y="766"/>
      <point x="767.08" y="766" type="curve" smooth="yes"/>
      <point x="451.579" y="766"/>
      <point x="363" y="708.177"/>
      <point x="363" y="623.978" type="curve" smooth="yes"/>
      <point x="363" y="619.891" type="line" smooth="yes"/>
      <point x="363" y="566.761"/>
      <point x="390.61" y="531"/>
      <point x="445.829" y="506" type="curve"/>
      <point x="558.597" y="540"/>
      <point x="688.329" y="564"/>
      <point x="849.996" y="564" type="curve" smooth="yes"/>
      <point x="1210.25" y="564"/>
      <point x="1333" y="438.029"/>
      <point x="1333" y="264.447" type="curve" smooth="yes"/>
      <point x="1333" y="259.488" type="line" smooth="yes"/>
      <point x="1333" y="71.0275"/>
      <point x="1189" y="-48"/>
      <point x="762" y="-48" type="curve" smooth="yes"/>
      <point x="641" y="-48"/>
      <point x="529.053" y="-28.1755"/>
      <point x="411" y="13" type="curve"/>
      <point x="142" y="76" type="line"/>
    </contour>
    <contour>
      <point x="1218" y="1229.5" type="line"/>
      <point x="1020" y="1229.5" type="line"/>
      <point x="1020" y="1255" type="line"/>
      <point x="844.5" y="1304"/>
      <point x="765" y="1389"/>
      <point x="765" y="1529.51" type="curve" smooth="yes"/>
      <point x="765" y="1536.02" type="line" smooth="yes"/>
      <point x="765" y="1698.67"/>
      <point x="890.5" y="1805"/>
      <point x="1132.5" y="1805" type="curve" smooth="yes"/>
      <point x="1218.5" y="1805"/>
      <point x="1292.5" y="1796"/>
      <point x="1353" y="1778.5" type="curve"/>
      <point x="1376" y="1618.5" type="line"/>
      <point x="1302.74" y="1635.19"/>
      <point x="1240.95" y="1641.5"/>
      <point x="1173.5" y="1641.5" type="curve" smooth="yes"/>
      <point x="1039.2" y="1641.5"/>
      <point x="967.5" y="1588.29"/>
      <point x="967.5" y="1493.37" type="curve" smooth="yes"/>
      <point x="967.5" y="1487.39" type="line" smooth="yes"/>
      <point x="967.5" y="1386.85"/>
      <point x="1044.37" y="1313.7"/>
      <point x="1218" y="1245" type="curve"/>
    </contour>
  </outline>
  <guideline angle="90" x="447" y="0"/>
  <guideline angle="0" x="0" y="-178"/>
  <guideline angle="90" x="974" y="0"/>
  <guideline angle="90" x="1307.5" y="0"/>
  <guideline angle="90" x="1020" y="0"/>
</glyph>
<glyph name="vowelUu.dv" format="2">
  <advance width="2097"/>
  <unicode hex="090A"/>
  <anchor x="1197" y="23" name="bottom3"/>
  <anchor x="675" y="42.5" name="bottom5"/>
  <anchor x="911" y="1217.5" name="top"/>
  <outline>
    <contour>
      <point x="1284" y="1093.5" type="line"/>
      <point x="1270" y="1248" type="line"/>
      <point x="2132" y="1248" type="line"/>
      <point x="2146.5" y="1093.5" type="line"/>
    </contour>
    <contour>
      <point x="1574" y="-2" type="line"/>
      <point x="1698" y="98.5"/>
      <point x="1761" y="204.5"/>
      <point x="1761" y="322" type="curve" smooth="yes"/>
      <point x="1761" y="328" type="line" smooth="yes"/>
      <point x="1761" y="460.626"/>
      <point x="1675.72" y="551.5"/>
      <point x="1524" y="551.5" type="curve" smooth="yes"/>
      <point x="1372.98" y="551.5"/>
      <point x="1270.28" y="460.671"/>
      <point x="1229" y="314.5" type="curve"/>
      <point x="1123.5" y="466.623" type="line"/>
      <point x="1178.19" y="614.506"/>
      <point x="1314.65" y="721"/>
      <point x="1546" y="721" type="curve" smooth="yes"/>
      <point x="1833.59" y="721"/>
      <point x="1978.5" y="552.5"/>
      <point x="1978.5" y="346" type="curve" smooth="yes"/>
      <point x="1978.5" y="340" type="line" smooth="yes"/>
      <point x="1978.5" y="203"/>
      <point x="1927.7" y="92"/>
      <point x="1827.5" y="-2" type="curve"/>
    </contour>
    <contour>
      <point x="-40" y="1093" type="line"/>
      <point x="-54" y="1248" type="line"/>
      <point x="1426" y="1248" type="line"/>
      <point x="1440" y="1093" type="line"/>
    </contour>
    <contour>
      <point x="1089" y="1130" type="line"/>
      <point x="1159" y="1080.31"/>
      <point x="1197" y="1010.95"/>
      <point x="1197" y="924" type="curve" smooth="yes"/>
      <point x="1197" y="918" type="line" smooth="yes"/>
      <point x="1197" y="785.487"/>
      <point x="1125.62" y="685.154"/>
      <point x="887" y="652" type="curve"/>
      <point x="887" y="644" type="line"/>
      <point x="1141.35" y="616.322"/>
      <point x="1243" y="500"/>
      <point x="1243" y="335" type="curve" smooth="yes"/>
      <point x="1243" y="330" type="line" smooth="yes"/>
      <point x="1243" y="116"/>
      <point x="1050" y="-19"/>
      <point x="658" y="-19" type="curve" smooth="yes"/>
      <point x="423" y="-19"/>
      <point x="246" y="22"/>
      <point x="113" y="89" type="curve"/>
      <point x="97" y="278" type="line"/>
      <point x="253" y="197"/>
      <point x="432" y="149"/>
      <point x="643" y="149" type="curve" smooth="yes"/>
      <point x="909" y="149"/>
      <point x="1025" y="226.239"/>
      <point x="1025" y="352" type="curve" smooth="yes"/>
      <point x="1025" y="356" type="line" smooth="yes"/>
      <point x="1025" y="481.198"/>
      <point x="921.395" y="550.064"/>
      <point x="555" y="558.942" type="curve" smooth="yes"/>
      <point x="305" y="565" type="line"/>
      <point x="305" y="730" type="line"/>
      <point x="547" y="734" type="line" smooth="yes"/>
      <point x="895.423" y="739.759"/>
      <point x="981" y="820"/>
      <point x="981" y="937" type="curve" smooth="yes"/>
      <point x="981" y="942" type="line" smooth="yes"/>
      <point x="981" y="1013"/>
      <point x="948" y="1079"/>
      <point x="860" y="1130" type="curve"/>
    </contour>
  </outline>
</glyph>
<glyph name="vowelLru.dv" format="2">
  <advance width="1856"/>
  <unicode hex="090C"/>
  <anchor x="1511" y="-202" name="bottom3"/>
  <anchor x="1340.5" y="1217.5" name="top"/>
  <outline>
    <contour>
      <point x="1726" y="507" type="line" smooth="yes"/>
      <point x="1726" y="355.574"/>
      <point x="1669.61" y="271.127"/>
      <point x="1543.02" y="171.5" type="curve" smooth="yes"/>
      <point x="1416.44" y="71.8866"/>
      <point x="1360" y="38.7867"/>
      <point x="1360" y="-40" type="curve" smooth="yes"/>
      <point x="1360" y="-110.819"/>
      <point x="1422.4" y="-148"/>
      <point x="1532.5" y="-148" type="curve" smooth="yes"/>
      <point x="1622.63" y="-148"/>
      <point x="1702.66" y="-120.5"/>
      <point x="1769" y="-78.5" type="curve"/>
      <point x="1756" y="-254.5" type="line"/>
      <point x="1697.7" y="-291.5"/>
      <point x="1616.69" y="-313"/>
      <point x="1505.5" y="-313" type="curve" smooth="yes"/>
      <point x="1296.22" y="-313"/>
      <point x="1153.5" y="-211.485"/>
      <point x="1153.5" y="-47.4204" type="curve" smooth="yes"/>
      <point x="1153.5" y="71.7039"/>
      <point x="1208.86" y="146.321"/>
      <point x="1340.07" y="248" type="curve" smooth="yes"/>
      <point x="1456.59" y="338.295"/>
      <point x="1508" y="392.028"/>
      <point x="1508" y="492.54" type="curve" smooth="yes"/>
      <point x="1508" y="499" type="line"/>
      <point x="1726" y="511" type="line"/>
    </contour>
    <contour>
      <point x="1113.5" y="1093.5" type="line"/>
      <point x="1099.5" y="1248" type="line"/>
      <point x="1681" y="1248" type="line"/>
      <point x="1695" y="1093.5" type="line"/>
    </contour>
    <contour>
      <point x="1445.5" y="1145.5" type="line"/>
      <point x="1445.5" y="912.5" type="line"/>
      <point x="1242" y="912.5" type="line"/>
      <point x="1242" y="1145.5" type="line"/>
    </contour>
    <contour>
      <point x="-36" y="1092.5" type="line"/>
      <point x="-50" y="1248" type="line"/>
      <point x="1891.5" y="1248" type="line"/>
      <point x="1906" y="1092.5" type="line"/>
    </contour>
    <contour>
      <point x="1445.5" y="1129.5" type="line"/>
      <point x="1445.5" y="833" type="line"/>
      <point x="1242" y="833" type="line"/>
      <point x="1242" y="1129.5" type="line"/>
    </contour>
    <contour>
      <point x="134.5" y="448" type="curve" smooth="yes"/>
      <point x="134.5" y="456" type="line" smooth="yes"/>
      <point x="134.5" y="702.806"/>
      <point x="304.687" y="866"/>
      <point x="581.511" y="866" type="curve" smooth="yes"/>
      <point x="792.803" y="866"/>
      <point x="901.43" y="776.285"/>
      <point x="935" y="637.5" type="curve"/>
      <point x="943.5" y="637.5" type="line"/>
      <point x="979.33" y="777.331"/>
      <point x="1103.34" y="866"/>
      <point x="1309.27" y="866" type="curve" smooth="yes"/>
      <point x="1576.56" y="866"/>
      <point x="1726" y="711.569"/>
      <point x="1726" y="508" type="curve" smooth="yes"/>
      <point x="1726" y="500" type="line"/>
      <point x="1508" y="485" type="line"/>
      <point x="1508" y="492" type="line" smooth="yes"/>
      <point x="1508" y="618.735"/>
      <point x="1434.3" y="695.5"/>
      <point x="1284.11" y="695.5" type="curve" smooth="yes"/>
      <point x="1141.91" y="695.5"/>
      <point x="1053.06" y="611.056"/>
      <point x="1047.98" y="454.5" type="curve" smooth="yes"/>
      <point x="1042" y="270.5" type="line"/>
      <point x="839" y="270.5" type="line"/>
      <point x="832.527" y="454.5" type="line" smooth="yes"/>
      <point x="827.037" y="610.542"/>
      <point x="751.976" y="695.5"/>
      <point x="607.173" y="695.5" type="curve" smooth="yes"/>
      <point x="453.898" y="695.5"/>
      <point x="353.5" y="601.327"/>
      <point x="353.5" y="447.5" type="curve" smooth="yes"/>
      <point x="353.5" y="440.5" type="line" smooth="yes"/>
      <point x="353.5" y="268.208"/>
      <point x="455.5" y="137.105"/>
      <point x="646.5" y="5.49999" type="curve"/>
      <point x="646.5" y="0" type="line"/>
      <point x="375.459" y="0" type="line"/>
      <point x="220.457" y="115.448"/>
      <point x="134.5" y="268.197"/>
    </contour>
  </outline>
</glyph>
<glyph name="vowelShortE.dv" format="2">
  <advance width="1483"/>
  <unicode hex="090E"/>
  <anchor x="1308" y="23" name="bottom3"/>
  <anchor x="1281" y="1217.5" name="top"/>
  <outline>
    <contour>
      <point x="390.5" y="1816" type="curve" smooth="yes"/>
      <point x="392.521" y="1686.49"/>
      <point x="454.43" y="1626"/>
      <point x="640.726" y="1626" type="curve" smooth="yes"/>
      <point x="872.441" y="1626" type="line" smooth="yes"/>
      <point x="1166.44" y="1626"/>
      <point x="1276.5" y="1501.5"/>
      <point x="1276.5" y="1271.5" type="curve" smooth="yes"/>
      <point x="1276.5" y="1216.5" type="line"/>
      <point x="1091.5" y="1216.5" type="line"/>
      <point x="1091.5" y="1261.46" type="line" smooth="yes"/>
      <point x="1091.5" y="1398.8"/>
      <point x="1033.68" y="1465"/>
      <point x="857.789" y="1465" type="curve" smooth="yes"/>
      <point x="616.863" y="1465" type="line" smooth="yes"/>
      <point x="335.02" y="1465"/>
      <point x="207" y="1576.37"/>
      <point x="207" y="1759.31" type="curve" smooth="yes"/>
      <point x="207" y="1789.54"/>
      <point x="211" y="1819.78"/>
      <point x="219.5" y="1848" type="curve"/>
      <point x="390" y="1848" type="line"/>
      <point x="390.041" y="1845.38"/>
      <point x="390.458" y="1818.69"/>
    </contour>
    <contour>
      <point x="-36" y="1093" type="line"/>
      <point x="-50" y="1248" type="line"/>
      <point x="1519" y="1248" type="line"/>
      <point x="1533" y="1093" type="line"/>
    </contour>
    <contour>
      <point x="417" y="660" type="line" smooth="yes"/>
      <point x="417" y="303"/>
      <point x="590.938" y="156"/>
      <point x="912" y="156" type="curve" smooth="yes"/>
      <point x="1031.04" y="156"/>
      <point x="1158.14" y="176"/>
      <point x="1257" y="212" type="curve"/>
      <point x="1236" y="37" type="line"/>
      <point x="1145.18" y="4"/>
      <point x="1035.15" y="-12"/>
      <point x="900" y="-12" type="curve" smooth="yes"/>
      <point x="467.87" y="-12"/>
      <point x="205" y="199"/>
      <point x="205" y="657" type="curve" smooth="yes"/>
      <point x="205" y="1149" type="line"/>
      <point x="417" y="1149" type="line"/>
    </contour>
    <contour>
      <point x="1294" y="875" type="line" smooth="yes"/>
      <point x="1294" y="574.622"/>
      <point x="1165" y="439"/>
      <point x="889" y="439" type="curve" smooth="yes"/>
      <point x="849" y="439"/>
      <point x="808" y="442"/>
      <point x="775" y="448" type="curve"/>
      <point x="775" y="604" type="line"/>
      <point x="780.655" y="604"/>
      <point x="815.345" y="604"/>
      <point x="821" y="604" type="curve" smooth="yes"/>
      <point x="1013" y="604"/>
      <point x="1082" y="676.812"/>
      <point x="1082" y="881" type="curve" smooth="yes"/>
      <point x="1082" y="1142" type="line"/>
      <point x="1294" y="1142" type="line"/>
    </contour>
  </outline>
  <guideline angle="90" x="155" y="0"/>
  <guideline angle="90" x="317" y="0"/>
  <guideline angle="90" x="689" y="0"/>
  <guideline angle="90" x="547" y="0"/>
</glyph>
<glyph name="vowelE.dv" format="2">
  <advance width="1483"/>
  <unicode hex="090F"/>
  <anchor x="1308.5" y="23" name="bottom3"/>
  <anchor x="762.5" y="1217.5" name="top"/>
  <outline>
    <contour>
      <point x="-36" y="1093" type="line"/>
      <point x="-50" y="1248" type="line"/>
      <point x="1519" y="1248" type="line"/>
      <point x="1533" y="1093" type="line"/>
    </contour>
    <contour>
      <point x="417" y="660" type="line" smooth="yes"/>
      <point x="417" y="303"/>
      <point x="590.938" y="156"/>
      <point x="912" y="156" type="curve" smooth="yes"/>
      <point x="1031.04" y="156"/>
      <point x="1158.14" y="176"/>
      <point x="1257" y="212" type="curve"/>
      <point x="1236" y="37" type="line"/>
      <point x="1145.18" y="4"/>
      <point x="1035.15" y="-12"/>
      <point x="900" y="-12" type="curve" smooth="yes"/>
      <point x="467.87" y="-12"/>
      <point x="205" y="199"/>
      <point x="205" y="657" type="curve" smooth="yes"/>
      <point x="205" y="1149" type="line"/>
      <point x="417" y="1149" type="line"/>
    </contour>
    <contour>
      <point x="1294" y="875" type="line" smooth="yes"/>
      <point x="1294" y="574.622"/>
      <point x="1165" y="439"/>
      <point x="889" y="439" type="curve" smooth="yes"/>
      <point x="849" y="439"/>
      <point x="808" y="442"/>
      <point x="775" y="448" type="curve"/>
      <point x="775" y="604" type="line"/>
      <point x="780.655" y="604"/>
      <point x="815.345" y="604"/>
      <point x="821" y="604" type="curve" smooth="yes"/>
      <point x="1013" y="604"/>
      <point x="1082" y="676.812"/>
      <point x="1082" y="881" type="curve" smooth="yes"/>
      <point x="1082" y="1142" type="line"/>
      <point x="1294" y="1142" type="line"/>
    </contour>
  </outline>
</glyph>
<glyph name="vowelChandraO.dv" format="2">
  <advance width="2673"/>
  <unicode hex="0911"/>
  <anchor x="2344" y="1217.5" name="top"/>
  <outline>
    <contour>
      <point x="2448" y="0" type="line"/>
      <point x="2238" y="0" type="line"/>
      <point x="2238" y="1145.5" type="line"/>
      <point x="2448" y="1145.5" type="line"/>
    </contour>
    <contour>
      <point x="2722.5" y="1092.5" type="line"/>
      <point x="1977.5" y="1092.5" type="line"/>
      <point x="1963.5" y="1248" type="line"/>
      <point x="2708.5" y="1248" type="line"/>
    </contour>
    <contour>
      <point x="2063" y="1093" type="line"/>
      <point x="1330" y="1093" type="line"/>
      <point x="1316" y="1248" type="line"/>
      <point x="2049" y="1248" type="line"/>
    </contour>
    <contour>
      <point x="1578" y="0" type="line"/>
      <point x="1578" y="1149" type="line"/>
      <point x="1788" y="1149" type="line"/>
      <point x="1788" y="0" type="line"/>
    </contour>
    <contour>
      <point x="77" y="306" type="line"/>
      <point x="238.922" y="221.354"/>
      <point x="394.923" y="175"/>
      <point x="605" y="175" type="curve" smooth="yes"/>
      <point x="831.955" y="175"/>
      <point x="950" y="244.258"/>
      <point x="950" y="368.502" type="curve" smooth="yes"/>
      <point x="950" y="374.487" type="line" smooth="yes"/>
      <point x="950" y="506.476"/>
      <point x="834.002" y="558.929"/>
      <point x="559" y="565.922" type="curve" smooth="yes"/>
      <point x="320" y="572" type="line"/>
      <point x="320" y="729" type="line"/>
      <point x="545" y="731.984" type="line" smooth="yes"/>
      <point x="833.002" y="735.804"/>
      <point x="934" y="789.669"/>
      <point x="934" y="911.019" type="curve" smooth="yes"/>
      <point x="934" y="914.997" type="line" smooth="yes"/>
      <point x="934" y="1024.41"/>
      <point x="842.183" y="1101"/>
      <point x="597" y="1101" type="curve" smooth="yes"/>
      <point x="431.096" y="1101"/>
      <point x="283.026" y="1069"/>
      <point x="132" y="999" type="curve"/>
      <point x="148" y="1180" type="line"/>
      <point x="273.105" y="1233.72"/>
      <point x="430.247" y="1266"/>
      <point x="618.411" y="1266" type="curve" smooth="yes"/>
      <point x="988.219" y="1266"/>
      <point x="1148" y="1130"/>
      <point x="1148" y="947" type="curve" smooth="yes"/>
      <point x="1148" y="938" type="line" smooth="yes"/>
      <point x="1148" y="792.286"/>
      <point x="1036.09" y="694.861"/>
      <point x="780" y="683" type="curve"/>
      <point x="785" y="614" type="line"/>
      <point x="1067.23" y="569.24"/>
      <point x="1165" y="474.982"/>
      <point x="1165" y="331" type="curve" smooth="yes"/>
      <point x="1165" y="323" type="line" smooth="yes"/>
      <point x="1165" y="130.952"/>
      <point x="989.818" y="8"/>
      <point x="621.521" y="8" type="curve" smooth="yes"/>
      <point x="387.801" y="8"/>
      <point x="221.962" y="51.8064"/>
      <point x="90.9369" y="118.743" type="curve"/>
    </contour>
    <contour>
      <point x="772" y="698" type="line"/>
      <point x="938" y="716" type="line"/>
      <point x="939" y="698" type="line"/>
      <point x="1064.31" y="704.667"/>
      <point x="1134.71" y="712"/>
      <point x="1299" y="712" type="curve" smooth="yes"/>
      <point x="1662" y="712" type="line"/>
      <point x="1662" y="548" type="line"/>
      <point x="1306" y="548" type="line" smooth="yes"/>
      <point x="1145.58" y="548"/>
      <point x="1065.23" y="563"/>
      <point x="941" y="587" type="curve"/>
      <point x="937" y="566" type="line"/>
      <point x="772" y="606" type="line"/>
    </contour>
    <contour>
      <point x="2452.5" y="1787" type="line"/>
      <point x="2454.3" y="1770"/>
      <point x="2454" y="1757.5"/>
      <point x="2454" y="1748" type="curve" smooth="yes"/>
      <point x="2454" y="1530"/>
      <point x="2308.63" y="1415.5"/>
      <point x="2022.49" y="1415.5" type="curve" smooth="yes"/>
      <point x="1738.4" y="1415.5"/>
      <point x="1592" y="1530"/>
      <point x="1592" y="1748" type="curve" smooth="yes"/>
      <point x="1592" y="1755.5"/>
      <point x="1592" y="1766"/>
      <point x="1594.5" y="1787" type="curve"/>
      <point x="1777.5" y="1787" type="line"/>
      <point x="1777.5" y="1784.19"/>
      <point x="1777.5" y="1764.35"/>
      <point x="1777.5" y="1762.71" type="curve"/>
      <point x="1777.5" y="1631.28"/>
      <point x="1856.22" y="1567.5"/>
      <point x="2022.5" y="1567.5" type="curve" smooth="yes"/>
      <point x="2188.78" y="1567.5"/>
      <point x="2268.5" y="1632.23"/>
      <point x="2268.5" y="1762.71" type="curve"/>
      <point x="2268.5" y="1764.5"/>
      <point x="2268.5" y="1784.82"/>
      <point x="2268.5" y="1787" type="curve"/>
    </contour>
  </outline>
  <guideline angle="90" x="2345" y="0"/>
  <guideline angle="90" x="1176" y="0"/>
</glyph>
<glyph name="vowelShortO.dv" format="2">
  <advance width="2672"/>
  <unicode hex="0912"/>
  <anchor x="2440.5" y="1217.5" name="top"/>
  <outline>
    <contour>
      <point x="1515.77" y="1816" type="curve" smooth="yes"/>
      <point x="1517.79" y="1686.49"/>
      <point x="1579.7" y="1626"/>
      <point x="1766" y="1626" type="curve" smooth="yes"/>
      <point x="2027.71" y="1626" type="line" smooth="yes"/>
      <point x="2321.71" y="1626"/>
      <point x="2431.77" y="1501.5"/>
      <point x="2431.77" y="1271.5" type="curve" smooth="yes"/>
      <point x="2431.77" y="1216.5" type="line"/>
      <point x="2246.77" y="1216.5" type="line"/>
      <point x="2246.77" y="1261.46" type="line" smooth="yes"/>
      <point x="2246.77" y="1398.8"/>
      <point x="2188.96" y="1465"/>
      <point x="2013.06" y="1465" type="curve" smooth="yes"/>
      <point x="1742.14" y="1465" type="line" smooth="yes"/>
      <point x="1460.29" y="1465"/>
      <point x="1332.27" y="1576.37"/>
      <point x="1332.27" y="1759.31" type="curve" smooth="yes"/>
      <point x="1332.27" y="1789.54"/>
      <point x="1336.27" y="1819.78"/>
      <point x="1344.77" y="1848" type="curve"/>
      <point x="1515.27" y="1848" type="line"/>
      <point x="1515.31" y="1845.38"/>
      <point x="1515.73" y="1818.69"/>
    </contour>
    <contour>
      <point x="2063" y="1093" type="line"/>
      <point x="1330" y="1093" type="line"/>
      <point x="1316" y="1248" type="line"/>
      <point x="2049" y="1248" type="line"/>
    </contour>
    <contour>
      <point x="1578" y="0" type="line"/>
      <point x="1578" y="1149" type="line"/>
      <point x="1788" y="1149" type="line"/>
      <point x="1788" y="0" type="line"/>
    </contour>
    <contour>
      <point x="77" y="306" type="line"/>
      <point x="238.922" y="221.354"/>
      <point x="394.923" y="175"/>
      <point x="605" y="175" type="curve" smooth="yes"/>
      <point x="831.955" y="175"/>
      <point x="950" y="244.258"/>
      <point x="950" y="368.502" type="curve" smooth="yes"/>
      <point x="950" y="374.487" type="line" smooth="yes"/>
      <point x="950" y="506.476"/>
      <point x="834.002" y="558.929"/>
      <point x="559" y="565.922" type="curve" smooth="yes"/>
      <point x="320" y="572" type="line"/>
      <point x="320" y="729" type="line"/>
      <point x="545" y="731.984" type="line" smooth="yes"/>
      <point x="833.002" y="735.804"/>
      <point x="934" y="789.669"/>
      <point x="934" y="911.019" type="curve" smooth="yes"/>
      <point x="934" y="914.997" type="line" smooth="yes"/>
      <point x="934" y="1024.41"/>
      <point x="842.183" y="1101"/>
      <point x="597" y="1101" type="curve" smooth="yes"/>
      <point x="431.096" y="1101"/>
      <point x="283.026" y="1069"/>
      <point x="132" y="999" type="curve"/>
      <point x="148" y="1180" type="line"/>
      <point x="273.105" y="1233.72"/>
      <point x="430.247" y="1266"/>
      <point x="618.411" y="1266" type="curve" smooth="yes"/>
      <point x="988.219" y="1266"/>
      <point x="1148" y="1130"/>
      <point x="1148" y="947" type="curve" smooth="yes"/>
      <point x="1148" y="938" type="line" smooth="yes"/>
      <point x="1148" y="792.286"/>
      <point x="1036.09" y="694.861"/>
      <point x="780" y="683" type="curve"/>
      <point x="785" y="614" type="line"/>
      <point x="1067.23" y="569.24"/>
      <point x="1165" y="474.982"/>
      <point x="1165" y="331" type="curve" smooth="yes"/>
      <point x="1165" y="323" type="line" smooth="yes"/>
      <point x="1165" y="130.952"/>
      <point x="989.818" y="8"/>
      <point x="621.521" y="8" type="curve" smooth="yes"/>
      <point x="387.801" y="8"/>
      <point x="221.962" y="51.8064"/>
      <point x="90.9369" y="118.743" type="curve"/>
    </contour>
    <contour>
      <point x="772" y="698" type="line"/>
      <point x="938" y="716" type="line"/>
      <point x="939" y="698" type="line"/>
      <point x="1064.31" y="704.667"/>
      <point x="1134.71" y="712"/>
      <point x="1299" y="712" type="curve" smooth="yes"/>
      <point x="1662" y="712" type="line"/>
      <point x="1662" y="548" type="line"/>
      <point x="1306" y="548" type="line" smooth="yes"/>
      <point x="1145.58" y="548"/>
      <point x="1065.23" y="563"/>
      <point x="941" y="587" type="curve"/>
      <point x="937" y="566" type="line"/>
      <point x="772" y="606" type="line"/>
    </contour>
    <contour>
      <point x="2447.5" y="0" type="line"/>
      <point x="2237.5" y="0" type="line"/>
      <point x="2237.5" y="1145.5" type="line"/>
      <point x="2447.5" y="1145.5" type="line"/>
    </contour>
    <contour>
      <point x="2722" y="1092.5" type="line"/>
      <point x="1977" y="1092.5" type="line"/>
      <point x="1963" y="1248" type="line"/>
      <point x="2708" y="1248" type="line"/>
    </contour>
  </outline>
</glyph>
<glyph name="vowelO.dv" format="2">
  <advance width="2673"/>
  <unicode hex="0913"/>
  <anchor x="2264" y="1217.5" name="top"/>
  <outline>
    <contour>
      <point x="1415.21" y="1797.5" type="line"/>
      <point x="1696" y="1797.5" type="line"/>
      <point x="1842.08" y="1686.82"/>
      <point x="2290.9" y="1346.78"/>
      <point x="2429.21" y="1242" type="curve"/>
      <point x="2429.21" y="1217" type="line"/>
      <point x="2225.71" y="1217" type="line"/>
      <point x="2225.71" y="1252.5" type="line"/>
      <point x="2020.82" y="1337.5"/>
      <point x="1901.1" y="1412.11"/>
      <point x="1720.71" y="1545.5" type="curve" smooth="yes"/>
      <point x="1415.21" y="1771.4" type="line"/>
    </contour>
    <contour>
      <point x="2448.5" y="0" type="line"/>
      <point x="2238.5" y="0" type="line"/>
      <point x="2238.5" y="1145.5" type="line"/>
      <point x="2448.5" y="1145.5" type="line"/>
    </contour>
    <contour>
      <point x="2723" y="1092.5" type="line"/>
      <point x="1978" y="1092.5" type="line"/>
      <point x="1964" y="1248" type="line"/>
      <point x="2709" y="1248" type="line"/>
    </contour>
    <contour>
      <point x="2063" y="1093" type="line"/>
      <point x="1330" y="1093" type="line"/>
      <point x="1316" y="1248" type="line"/>
      <point x="2049" y="1248" type="line"/>
    </contour>
    <contour>
      <point x="1578" y="0" type="line"/>
      <point x="1578" y="1149" type="line"/>
      <point x="1788" y="1149" type="line"/>
      <point x="1788" y="0" type="line"/>
    </contour>
    <contour>
      <point x="77" y="306" type="line"/>
      <point x="238.922" y="221.354"/>
      <point x="394.923" y="175"/>
      <point x="605" y="175" type="curve" smooth="yes"/>
      <point x="831.955" y="175"/>
      <point x="950" y="244.258"/>
      <point x="950" y="368.502" type="curve" smooth="yes"/>
      <point x="950" y="374.487" type="line" smooth="yes"/>
      <point x="950" y="506.476"/>
      <point x="834.002" y="558.929"/>
      <point x="559" y="565.922" type="curve" smooth="yes"/>
      <point x="320" y="572" type="line"/>
      <point x="320" y="729" type="line"/>
      <point x="545" y="731.984" type="line" smooth="yes"/>
      <point x="833.002" y="735.804"/>
      <point x="934" y="789.669"/>
      <point x="934" y="911.019" type="curve" smooth="yes"/>
      <point x="934" y="914.997" type="line" smooth="yes"/>
      <point x="934" y="1024.41"/>
      <point x="842.183" y="1101"/>
      <point x="597" y="1101" type="curve" smooth="yes"/>
      <point x="431.096" y="1101"/>
      <point x="283.026" y="1069"/>
      <point x="132" y="999" type="curve"/>
      <point x="148" y="1180" type="line"/>
      <point x="273.105" y="1233.72"/>
      <point x="430.247" y="1266"/>
      <point x="618.411" y="1266" type="curve" smooth="yes"/>
      <point x="988.219" y="1266"/>
      <point x="1148" y="1130"/>
      <point x="1148" y="947" type="curve" smooth="yes"/>
      <point x="1148" y="938" type="line" smooth="yes"/>
      <point x="1148" y="792.286"/>
      <point x="1036.09" y="694.861"/>
      <point x="780" y="683" type="curve"/>
      <point x="785" y="614" type="line"/>
      <point x="1067.23" y="569.24"/>
      <point x="1165" y="474.982"/>
      <point x="1165" y="331" type="curve" smooth="yes"/>
      <point x="1165" y="323" type="line" smooth="yes"/>
      <point x="1165" y="130.952"/>
      <point x="989.818" y="8.00001"/>
      <point x="621.521" y="8.00001" type="curve" smooth="yes"/>
      <point x="387.801" y="8.00001"/>
      <point x="221.962" y="51.8064"/>
      <point x="90.9369" y="118.743" type="curve"/>
    </contour>
    <contour>
      <point x="772" y="698" type="line"/>
      <point x="938" y="716" type="line"/>
      <point x="939" y="698" type="line"/>
      <point x="1064.31" y="704.667"/>
      <point x="1134.71" y="712"/>
      <point x="1299" y="712" type="curve" smooth="yes"/>
      <point x="1662" y="712" type="line"/>
      <point x="1662" y="548" type="line"/>
      <point x="1306" y="548" type="line" smooth="yes"/>
      <point x="1145.58" y="548"/>
      <point x="1065.23" y="563"/>
      <point x="941" y="587" type="curve"/>
      <point x="937" y="566" type="line"/>
      <point x="772" y="606" type="line"/>
    </contour>
  </outline>
  <guideline angle="90" x="643" y="0"/>
  <guideline angle="90" x="1042" y="0"/>
  <guideline angle="90" x="1012" y="0"/>
  <guideline angle="90" x="1029" y="0"/>
  <guideline angle="0" x="0" y="1262"/>
</glyph>
<glyph name="Ga.dv" format="2">
  <advance width="1570"/>
  <unicode hex="0917"/>
  <anchor x="1241" y="23" name="bottom"/>
  <anchor x="1236" y="23" name="bottom2"/>
  <anchor x="1345.5" y="23" name="bottom3"/>
  <anchor x="1240.5" y="42.5" name="bottom5"/>
  <anchor x="1240.5" y="1217.5" name="top"/>
  <outline>
    <contour>
      <point x="1345.5" y="1145.5" type="line"/>
      <point x="1345.5" y="0" type="line"/>
      <point x="1135.5" y="0" type="line"/>
      <point x="1135.5" y="1145.5" type="line"/>
    </contour>
    <contour>
      <point x="1012" y="1092.5" type="line"/>
      <point x="998" y="1248" type="line"/>
      <point x="1606" y="1248" type="line"/>
      <point x="1620" y="1092.5" type="line"/>
    </contour>
    <contour>
      <point x="-36" y="1093" type="line"/>
      <point x="-50" y="1248" type="line"/>
      <point x="1496" y="1248" type="line"/>
      <point x="1510" y="1093" type="line"/>
    </contour>
    <contour>
      <point x="555.26" y="1118" type="line"/>
      <point x="670.415" y="1039.24"/>
      <point x="737" y="903.307"/>
      <point x="737" y="748.351" type="curve" smooth="yes"/>
      <point x="737" y="740.529" type="line" smooth="yes"/>
      <point x="737" y="475.521"/>
      <point x="570.011" y="325"/>
      <point x="266.822" y="325" type="curve" smooth="yes"/>
      <point x="196.905" y="325"/>
      <point x="132.815" y="332.905"/>
      <point x="90" y="345" type="curve"/>
      <point x="73" y="531" type="line"/>
      <point x="117.702" y="521.043"/>
      <point x="176.382" y="514"/>
      <point x="231.444" y="514" type="curve" smooth="yes"/>
      <point x="433.373" y="514"/>
      <point x="519" y="598.152"/>
      <point x="519" y="757.005" type="curve" smooth="yes"/>
      <point x="519" y="764.81" type="line" smooth="yes"/>
      <point x="519" y="912.598"/>
      <point x="445.369" y="1031.03"/>
      <point x="302" y="1118" type="curve"/>
    </contour>
  </outline>
  <guideline angle="0" x="0" y="119"/>
  <guideline angle="0" x="0" y="1156"/>
  <guideline angle="90" x="50" y="0"/>
  <guideline angle="90" x="1074" y="0"/>
  <guideline angle="0" x="0" y="9"/>
  <guideline angle="90" x="1079" y="0"/>
  <guideline angle="90" x="1062" y="0"/>
  <guideline angle="0" x="0" y="1262"/>
  <guideline angle="90" x="1241" y="0"/>
  <guideline angle="0" x="0" y="30"/>
</glyph>
<glyph name="Gha.dv" format="2">
  <advance width="1692"/>
  <unicode hex="0918"/>
  <anchor x="1362.5" y="23" name="bottom"/>
  <anchor x="1357.5" y="23" name="bottom2"/>
  <anchor x="1467" y="23" name="bottom3"/>
  <anchor x="1362" y="42.5" name="bottom5"/>
  <anchor x="1362" y="1217.5" name="top"/>
  <outline>
    <contour>
      <point x="1467" y="1145.5" type="line"/>
      <point x="1467" y="0" type="line"/>
      <point x="1257" y="0" type="line"/>
      <point x="1257" y="1145.5" type="line"/>
    </contour>
    <contour>
      <point x="1133.5" y="1092.5" type="line"/>
      <point x="1119.5" y="1248" type="line"/>
      <point x="1727.5" y="1248" type="line"/>
      <point x="1741.5" y="1092.5" type="line"/>
    </contour>
    <contour>
      <point x="-37.5" y="1093.5" type="line"/>
      <point x="-51.5" y="1248" type="line"/>
      <point x="1627.5" y="1248" type="line"/>
      <point x="1641.5" y="1093.5" type="line"/>
    </contour>
    <contour>
      <point x="510" y="725.5" type="line"/>
      <point x="249.857" y="750.254"/>
      <point x="163" y="837.123"/>
      <point x="163" y="964.354" type="curve" smooth="yes"/>
      <point x="163" y="968.333" type="line" smooth="yes"/>
      <point x="163" y="1034.48"/>
      <point x="191.5" y="1089.69"/>
      <point x="250.5" y="1125.5" type="curve"/>
      <point x="483.5" y="1125.5" type="line"/>
      <point x="413.5" y="1090.23"/>
      <point x="383" y="1042.53"/>
      <point x="383" y="981.918" type="curve" smooth="yes"/>
      <point x="383" y="978.44" type="line" smooth="yes"/>
      <point x="383" y="880.823"/>
      <point x="450.075" y="812.576"/>
      <point x="773.5" y="801.5" type="curve" smooth="yes"/>
      <point x="919.5" y="796.5" type="line"/>
      <point x="919.5" y="635.5" type="line"/>
      <point x="770" y="632" type="line" smooth="yes"/>
      <point x="457.523" y="624.684"/>
      <point x="377.5" y="574.498"/>
      <point x="377.5" y="472.57" type="curve" smooth="yes"/>
      <point x="377.5" y="468.546" type="line" smooth="yes"/>
      <point x="377.5" y="353.844"/>
      <point x="504.974" y="297.5"/>
      <point x="762.5" y="297.5" type="curve" smooth="yes"/>
      <point x="1068.03" y="297.5"/>
      <point x="1211.23" y="381.294"/>
      <point x="1263" y="506" type="curve"/>
      <point x="1266" y="344.5" type="line"/>
      <point x="1248" y="344.5" type="line"/>
      <point x="1196.47" y="217.915"/>
      <point x="1043.16" y="124.5"/>
      <point x="726.5" y="124.5" type="curve" smooth="yes"/>
      <point x="362.737" y="124.5"/>
      <point x="157.5" y="241.11"/>
      <point x="157.5" y="450.623" type="curve" smooth="yes"/>
      <point x="157.5" y="456.644" type="line" smooth="yes"/>
      <point x="157.5" y="603.69"/>
      <point x="250.62" y="703.298"/>
      <point x="510" y="717.5" type="curve"/>
    </contour>
  </outline>
</glyph>
<glyph name="Nya.dv" format="2">
  <advance width="1844"/>
  <unicode hex="091E"/>
  <anchor x="1514.5" y="23" name="bottom"/>
  <anchor x="1509.5" y="23" name="bottom2"/>
  <anchor x="1619" y="23" name="bottom3"/>
  <anchor x="1514" y="42.5" name="bottom5"/>
  <anchor x="1514" y="1217.5" name="top"/>
  <outline>
    <contour>
      <point x="-36" y="1092.5" type="line"/>
      <point x="-50" y="1248" type="line"/>
      <point x="1779.5" y="1248" type="line"/>
      <point x="1793.5" y="1092.5" type="line"/>
    </contour>
    <contour>
      <point x="176" y="867.5" type="line"/>
      <point x="275.534" y="898.177"/>
      <point x="394.638" y="914"/>
      <point x="527.5" y="914" type="curve" smooth="yes"/>
      <point x="883.454" y="914"/>
      <point x="1064.5" y="781"/>
      <point x="1064.5" y="526" type="curve" smooth="yes"/>
      <point x="1064.5" y="521" type="line" smooth="yes"/>
      <point x="1064.5" y="255.5"/>
      <point x="883.127" y="126"/>
      <point x="529.5" y="126" type="curve" smooth="yes"/>
      <point x="355.058" y="126"/>
      <point x="222.906" y="154.553"/>
      <point x="132.5" y="196" type="curve"/>
      <point x="119.5" y="372" type="line"/>
      <point x="216.5" y="327.5"/>
      <point x="353" y="294"/>
      <point x="492" y="294" type="curve" smooth="yes"/>
      <point x="741.5" y="294"/>
      <point x="853" y="371.476"/>
      <point x="853" y="521" type="curve" smooth="yes"/>
      <point x="853" y="524" type="line" smooth="yes"/>
      <point x="853" y="672.67"/>
      <point x="748.5" y="747.5"/>
      <point x="494" y="747.5" type="curve" smooth="yes"/>
      <point x="376" y="747.5"/>
      <point x="265.5" y="730.5"/>
      <point x="158.5" y="696.5" type="curve"/>
    </contour>
    <contour>
      <point x="1022" y="612.5" type="line"/>
      <point x="1448" y="612.5" type="line"/>
      <point x="1448" y="448.5" type="line"/>
      <point x="1021.5" y="448.5" type="line"/>
    </contour>
    <contour>
      <point x="1619" y="1145.5" type="line"/>
      <point x="1619" y="0" type="line"/>
      <point x="1409" y="0" type="line"/>
      <point x="1409" y="1145.5" type="line"/>
    </contour>
    <contour>
      <point x="1285.5" y="1092.5" type="line"/>
      <point x="1271.5" y="1248" type="line"/>
      <point x="1879.5" y="1248" type="line"/>
      <point x="1893.5" y="1092.5" type="line"/>
    </contour>
  </outline>
</glyph>
<glyph name="Tta.dv" format="2">
  <advance width="1436"/>
  <unicode hex="091F"/>
  <anchor x="827.5" y="-7" name="bottom"/>
  <anchor x="688" y="-7" name="bottom2"/>
  <anchor x="1320" y="-7" name="bottom3"/>
  <anchor x="792" y="0" name="bottom4"/>
  <anchor x="768" y="12" name="bottom5"/>
  <anchor x="1129.5" y="1217.5" name="top"/>
  <outline>
    <contour>
      <point x="902.5" y="1093.5" type="line"/>
      <point x="888.5" y="1248" type="line"/>
      <point x="1470" y="1248" type="line"/>
      <point x="1484" y="1093.5" type="line"/>
    </contour>
    <contour>
      <point x="1234.5" y="1145.5" type="line"/>
      <point x="1234.5" y="912.5" type="line"/>
      <point x="1031" y="912.5" type="line"/>
      <point x="1031" y="1145.5" type="line"/>
    </contour>
    <contour>
      <point x="-28" y="1093" type="line"/>
      <point x="-42" y="1248" type="line"/>
      <point x="1483" y="1248" type="line"/>
      <point x="1497" y="1093" type="line"/>
    </contour>
    <contour>
      <point x="1031" y="738" type="line"/>
      <point x="1031" y="1150" type="line"/>
      <point x="1235" y="1150" type="line"/>
      <point x="1235" y="659" type="line"/>
    </contour>
    <contour>
      <point x="1283" y="70" type="line"/>
      <point x="1147" y="1.96959"/>
      <point x="988" y="-30"/>
      <point x="776" y="-30" type="curve" smooth="yes"/>
      <point x="360" y="-30"/>
      <point x="132" y="130"/>
      <point x="132" y="416" type="curve" smooth="yes"/>
      <point x="132" y="427" type="line" smooth="yes"/>
      <point x="132" y="708"/>
      <point x="333.049" y="850"/>
      <point x="766" y="850" type="curve" smooth="yes"/>
      <point x="910.927" y="850"/>
      <point x="1045.79" y="842"/>
      <point x="1235" y="816" type="curve"/>
      <point x="1235" y="659" type="line"/>
      <point x="1057" y="682.586"/>
      <point x="933" y="690"/>
      <point x="791" y="690" type="curve" smooth="yes"/>
      <point x="486" y="690"/>
      <point x="350" y="603"/>
      <point x="350" y="425" type="curve" smooth="yes"/>
      <point x="350" y="419" type="line" smooth="yes"/>
      <point x="350" y="237"/>
      <point x="493" y="138"/>
      <point x="789" y="138" type="curve" smooth="yes"/>
      <point x="973" y="138"/>
      <point x="1158" y="178"/>
      <point x="1298" y="255" type="curve"/>
    </contour>
  </outline>
</glyph>
<glyph name="Ttha.dv" format="2">
  <advance width="1595"/>
  <unicode hex="0920"/>
  <anchor x="852" y="-8" name="bottom"/>
  <anchor x="715.5" y="-8" name="bottom2"/>
  <anchor x="1352" y="-8" name="bottom3"/>
  <anchor x="803" y="-1" name="bottom4"/>
  <anchor x="799.5" y="12" name="bottom5"/>
  <anchor x="1042.5" y="1217.5" name="top"/>
  <outline>
    <contour>
      <point x="815.5" y="1093.5" type="line"/>
      <point x="801.5" y="1248" type="line"/>
      <point x="1383" y="1248" type="line"/>
      <point x="1397" y="1093.5" type="line"/>
    </contour>
    <contour>
      <point x="1147.5" y="1145.5" type="line"/>
      <point x="1147.5" y="912.5" type="line"/>
      <point x="944" y="912.5" type="line"/>
      <point x="944" y="1145.5" type="line"/>
    </contour>
    <contour>
      <point x="-42" y="1248" type="line"/>
      <point x="1629" y="1248" type="line"/>
      <point x="1643" y="1093" type="line"/>
      <point x="-28" y="1093" type="line"/>
    </contour>
    <contour>
      <point x="944" y="1152" type="line"/>
      <point x="1148" y="1152" type="line"/>
      <point x="1148" y="700" type="line"/>
      <point x="944" y="717" type="line"/>
    </contour>
    <contour>
      <point x="1113" y="815" type="line"/>
      <point x="1350" y="741.429"/>
      <point x="1466" y="599.355"/>
      <point x="1466" y="418" type="curve" smooth="yes"/>
      <point x="1466" y="407" type="line" smooth="yes"/>
      <point x="1466" y="126.282"/>
      <point x="1247" y="-31"/>
      <point x="801" y="-31" type="curve" smooth="yes"/>
      <point x="371" y="-31"/>
      <point x="132" y="129"/>
      <point x="132" y="412" type="curve" smooth="yes"/>
      <point x="132" y="423" type="line" smooth="yes"/>
      <point x="132" y="703"/>
      <point x="344" y="851"/>
      <point x="772" y="851" type="curve" smooth="yes"/>
      <point x="892" y="851"/>
      <point x="996" y="843"/>
      <point x="1148" y="817" type="curve"/>
      <point x="1148" y="647" type="line"/>
      <point x="1025" y="678"/>
      <point x="930" y="691"/>
      <point x="805" y="691" type="curve" smooth="yes"/>
      <point x="498" y="691"/>
      <point x="350" y="602"/>
      <point x="350" y="422" type="curve" smooth="yes"/>
      <point x="350" y="416" type="line" smooth="yes"/>
      <point x="350" y="233"/>
      <point x="503" y="137"/>
      <point x="803" y="137" type="curve" smooth="yes"/>
      <point x="1093" y="137"/>
      <point x="1248" y="233"/>
      <point x="1248" y="417" type="curve" smooth="yes"/>
      <point x="1248" y="423" type="line" smooth="yes"/>
      <point x="1248" y="562.668"/>
      <point x="1164" y="643.595"/>
      <point x="991" y="685" type="curve"/>
    </contour>
  </outline>
</glyph>
<glyph name="Dda.dv" format="2">
  <advance width="1461"/>
  <unicode hex="0921"/>
  <anchor x="790" y="-23" name="bottom"/>
  <anchor x="666" y="-23" name="bottom2"/>
  <anchor x="1293.5" y="-17" name="bottom3"/>
  <anchor x="750.5" y="-3" name="bottom5"/>
  <anchor x="1135.5" y="1217.5" name="top"/>
  <outline>
    <contour>
      <point x="908.5" y="1093.5" type="line"/>
      <point x="894.5" y="1248" type="line"/>
      <point x="1476" y="1248" type="line"/>
      <point x="1490" y="1093.5" type="line"/>
    </contour>
    <contour>
      <point x="1240.5" y="1145.5" type="line"/>
      <point x="1240.5" y="912.5" type="line"/>
      <point x="1037" y="912.5" type="line"/>
      <point x="1037" y="1145.5" type="line"/>
    </contour>
    <contour>
      <point x="1497" y="1093" type="line"/>
      <point x="-26" y="1093" type="line"/>
      <point x="-40" y="1248" type="line"/>
      <point x="1483" y="1248" type="line"/>
    </contour>
    <contour>
      <point x="1037" y="1153" type="line"/>
      <point x="1241" y="1153" type="line"/>
      <point x="1241" y="734" type="line"/>
      <point x="1205.92" y="739.675"/>
      <point x="1073.14" y="761.154"/>
      <point x="1037" y="767" type="curve"/>
    </contour>
    <contour>
      <point x="125" y="269" type="line"/>
      <point x="304.639" y="174"/>
      <point x="505.235" y="122"/>
      <point x="731.779" y="122" type="curve" smooth="yes"/>
      <point x="1030.41" y="122"/>
      <point x="1119" y="166.724"/>
      <point x="1119" y="262.979" type="curve" smooth="yes"/>
      <point x="1119" y="266.922" type="line" smooth="yes"/>
      <point x="1119" y="348.152"/>
      <point x="1052.37" y="401"/>
      <point x="829.597" y="401" type="curve" smooth="yes"/>
      <point x="659.947" y="401"/>
      <point x="530.214" y="375"/>
      <point x="410.461" y="338" type="curve"/>
      <point x="242.809" y="396.202"/>
      <point x="149" y="484.18"/>
      <point x="149" y="617.672" type="curve" smooth="yes"/>
      <point x="149" y="624.725" type="line" smooth="yes"/>
      <point x="149" y="809.736"/>
      <point x="288" y="926"/>
      <point x="726" y="926" type="curve" smooth="yes"/>
      <point x="909" y="926"/>
      <point x="1053" y="916"/>
      <point x="1241" y="889" type="curve"/>
      <point x="1241" y="734" type="line"/>
      <point x="1085.35" y="756"/>
      <point x="927.714" y="766"/>
      <point x="767.08" y="766" type="curve" smooth="yes"/>
      <point x="451.579" y="766"/>
      <point x="363" y="708.419"/>
      <point x="363" y="624.572" type="curve" smooth="yes"/>
      <point x="363" y="620.502" type="line" smooth="yes"/>
      <point x="363" y="568.611"/>
      <point x="390.61" y="533"/>
      <point x="445.829" y="508" type="curve"/>
      <point x="558.597" y="542"/>
      <point x="688.329" y="566"/>
      <point x="849.996" y="566" type="curve" smooth="yes"/>
      <point x="1210.25" y="566"/>
      <point x="1333" y="439.825"/>
      <point x="1333" y="265.961" type="curve" smooth="yes"/>
      <point x="1333" y="260.994" type="line" smooth="yes"/>
      <point x="1333" y="72.2273"/>
      <point x="1189" y="-46"/>
      <point x="762" y="-46" type="curve" smooth="yes"/>
      <point x="498" y="-46"/>
      <point x="294" y="0"/>
      <point x="142" y="76" type="curve"/>
    </contour>
  </outline>
</glyph>
<glyph name="Ddha.dv" format="2">
  <advance width="1566"/>
  <unicode hex="0922"/>
  <anchor x="873" y="-16" name="bottom"/>
  <anchor x="766" y="-16" name="bottom2"/>
  <anchor x="1361" y="-16" name="bottom3"/>
  <anchor x="817" y="4" name="bottom5"/>
  <anchor x="1223.5" y="1217.5" name="top"/>
  <outline>
    <contour>
      <point x="996.5" y="1093.5" type="line"/>
      <point x="982.5" y="1248" type="line"/>
      <point x="1564" y="1248" type="line"/>
      <point x="1578" y="1093.5" type="line"/>
    </contour>
    <contour>
      <point x="1328.5" y="1145.5" type="line"/>
      <point x="1328.5" y="912.5" type="line"/>
      <point x="1125" y="912.5" type="line"/>
      <point x="1125" y="1145.5" type="line"/>
    </contour>
    <contour>
      <point x="-29" y="1093" type="line"/>
      <point x="-43" y="1248" type="line"/>
      <point x="1607" y="1248" type="line"/>
      <point x="1621" y="1093" type="line"/>
    </contour>
    <contour>
      <point x="1125" y="1151" type="line"/>
      <point x="1329" y="1151" type="line"/>
      <point x="1329" y="703" type="line"/>
      <point x="1125" y="778" type="line"/>
    </contour>
    <contour>
      <point x="132" y="447" type="line" smooth="yes"/>
      <point x="132" y="743.676"/>
      <point x="354.373" y="895"/>
      <point x="841" y="895" type="curve" smooth="yes"/>
      <point x="1003.67" y="895"/>
      <point x="1146.25" y="885"/>
      <point x="1329" y="859" type="curve"/>
      <point x="1329" y="703" type="line"/>
      <point x="1162" y="728.667"/>
      <point x="1020" y="735"/>
      <point x="870" y="735" type="curve" smooth="yes"/>
      <point x="507" y="735"/>
      <point x="346" y="636.02"/>
      <point x="346" y="444" type="curve" smooth="yes"/>
      <point x="346" y="434" type="line" smooth="yes"/>
      <point x="346" y="241.4"/>
      <point x="508" y="114"/>
      <point x="879" y="114" type="curve" smooth="yes"/>
      <point x="1138" y="114"/>
      <point x="1247" y="174.587"/>
      <point x="1247" y="262" type="curve" smooth="yes"/>
      <point x="1247" y="266" type="line" smooth="yes"/>
      <point x="1247" y="333.393"/>
      <point x="1191.44" y="377"/>
      <point x="1050" y="377" type="curve" smooth="yes"/>
      <point x="917.307" y="377"/>
      <point x="847" y="333.373"/>
      <point x="847" y="260" type="curve" smooth="yes"/>
      <point x="847" y="255" type="line" smooth="yes"/>
      <point x="847" y="192.432"/>
      <point x="896" y="142.781"/>
      <point x="1008" y="111" type="curve"/>
      <point x="822" y="105" type="line"/>
      <point x="822" y="123" type="line"/>
      <point x="704.143" y="159.794"/>
      <point x="657" y="216.472"/>
      <point x="657" y="301" type="curve" smooth="yes"/>
      <point x="657" y="306" type="line" smooth="yes"/>
      <point x="657" y="438.592"/>
      <point x="782.359" y="530"/>
      <point x="1048" y="530" type="curve" smooth="yes"/>
      <point x="1313.33" y="530"/>
      <point x="1447" y="427.215"/>
      <point x="1447" y="268" type="curve" smooth="yes"/>
      <point x="1447" y="260" type="line" smooth="yes"/>
      <point x="1447" y="79.6033"/>
      <point x="1252" y="-39"/>
      <point x="863" y="-39" type="curve" smooth="yes"/>
      <point x="399" y="-39"/>
      <point x="132" y="135.734"/>
      <point x="132" y="437" type="curve" smooth="yes"/>
    </contour>
  </outline>
</glyph>
<glyph name="Nna.dv" format="2">
  <advance width="2068"/>
  <unicode hex="0923"/>
  <anchor x="1738.5" y="23" name="bottom"/>
  <anchor x="1733.5" y="23" name="bottom2"/>
  <anchor x="1843" y="23" name="bottom3"/>
  <anchor x="1738" y="42.5" name="bottom5"/>
  <anchor x="1738" y="1217.5" name="top"/>
  <outline>
    <contour>
      <point x="1843" y="1145.5" type="line"/>
      <point x="1843" y="0" type="line"/>
      <point x="1633" y="0" type="line"/>
      <point x="1633" y="1145.5" type="line"/>
    </contour>
    <contour>
      <point x="1509.5" y="1092.5" type="line"/>
      <point x="1495.5" y="1248" type="line"/>
      <point x="2103.5" y="1248" type="line"/>
      <point x="2117.5" y="1092.5" type="line"/>
    </contour>
    <contour>
      <point x="-28" y="1092.5" type="line"/>
      <point x="-42" y="1248" type="line"/>
      <point x="2003.5" y="1248" type="line"/>
      <point x="2017.5" y="1092.5" type="line"/>
    </contour>
    <contour>
      <point x="711" y="263.5" type="curve" smooth="yes"/>
      <point x="373" y="263.5"/>
      <point x="199.5" y="412.761"/>
      <point x="199.5" y="740" type="curve" smooth="yes"/>
      <point x="199.5" y="1145" type="line"/>
      <point x="410" y="1145" type="line"/>
      <point x="410" y="736" type="line" smooth="yes"/>
      <point x="410" y="526.939"/>
      <point x="504.712" y="432"/>
      <point x="708.517" y="432" type="curve" smooth="yes"/>
      <point x="913.313" y="432"/>
      <point x="1011" y="526.939"/>
      <point x="1011" y="736" type="curve" smooth="yes"/>
      <point x="1011" y="1145" type="line"/>
      <point x="1222" y="1145" type="line"/>
      <point x="1222" y="740" type="line" smooth="yes"/>
      <point x="1222" y="412.761"/>
      <point x="1049" y="263.5"/>
    </contour>
  </outline>
</glyph>
<glyph name="Ta.dv" format="2">
  <advance width="1563"/>
  <unicode hex="0924"/>
  <anchor x="1234" y="23" name="bottom"/>
  <anchor x="1229" y="23" name="bottom2"/>
  <anchor x="1338.5" y="23" name="bottom3"/>
  <anchor x="1233.5" y="42.5" name="bottom5"/>
  <anchor x="1233.5" y="1217.5" name="top"/>
  <outline>
    <contour>
      <point x="1338.5" y="1145.5" type="line"/>
      <point x="1338.5" y="0" type="line"/>
      <point x="1128.5" y="0" type="line"/>
      <point x="1128.5" y="1145.5" type="line"/>
    </contour>
    <contour>
      <point x="1005" y="1092.5" type="line"/>
      <point x="991" y="1248" type="line"/>
      <point x="1599" y="1248" type="line"/>
      <point x="1613" y="1092.5" type="line"/>
    </contour>
    <contour>
      <point x="-33" y="1093" type="line"/>
      <point x="-47" y="1248" type="line"/>
      <point x="1539" y="1248" type="line"/>
      <point x="1553" y="1093" type="line"/>
    </contour>
    <contour>
      <point x="363.945" y="0" type="line"/>
      <point x="218.331" y="141"/>
      <point x="140" y="275"/>
      <point x="140" y="445" type="curve" smooth="yes"/>
      <point x="140" y="674"/>
      <point x="294" y="822"/>
      <point x="624" y="822" type="curve" smooth="yes"/>
      <point x="1230" y="822" type="line"/>
      <point x="1230" y="658" type="line"/>
      <point x="656.319" y="658" type="line" smooth="yes"/>
      <point x="450.791" y="658"/>
      <point x="360" y="579"/>
      <point x="360" y="431" type="curve" smooth="yes"/>
      <point x="360" y="285"/>
      <point x="448" y="158"/>
      <point x="614" y="0" type="curve"/>
    </contour>
  </outline>
</glyph>
<glyph name="Tha.dv" format="2">
  <advance width="1786"/>
  <unicode hex="0925"/>
  <anchor x="1457" y="23" name="bottom"/>
  <anchor x="1452" y="23" name="bottom2"/>
  <anchor x="1561.5" y="23" name="bottom3"/>
  <anchor x="1456.5" y="42.5" name="bottom5"/>
  <anchor x="1456.5" y="1217.5" name="top"/>
  <outline>
    <contour>
      <point x="1561.5" y="1145.5" type="line"/>
      <point x="1561.5" y="0" type="line"/>
      <point x="1351.5" y="0" type="line"/>
      <point x="1351.5" y="1145.5" type="line"/>
    </contour>
    <contour>
      <point x="1228" y="1092.5" type="line"/>
      <point x="1214" y="1248" type="line"/>
      <point x="1822" y="1248" type="line"/>
      <point x="1836" y="1092.5" type="line"/>
    </contour>
    <contour>
      <point x="1169" y="1248" type="line"/>
      <point x="1722" y="1248" type="line"/>
      <point x="1736" y="1093" type="line"/>
      <point x="1183" y="1093" type="line"/>
    </contour>
    <contour>
      <point x="192" y="892" type="line"/>
      <point x="180" y="923"/>
      <point x="175" y="954"/>
      <point x="175" y="990" type="curve" smooth="yes"/>
      <point x="175" y="1170"/>
      <point x="324" y="1279"/>
      <point x="613" y="1279" type="curve" smooth="yes"/>
      <point x="894" y="1279"/>
      <point x="1051" y="1148"/>
      <point x="1051" y="937" type="curve" smooth="yes"/>
      <point x="1051" y="928" type="line" smooth="yes"/>
      <point x="1051" y="707"/>
      <point x="887" y="571"/>
      <point x="496" y="571" type="curve" smooth="yes"/>
      <point x="235" y="571" type="line"/>
      <point x="154" y="723" type="line"/>
      <point x="442" y="723" type="line" smooth="yes"/>
      <point x="735" y="723"/>
      <point x="838" y="801"/>
      <point x="838" y="938" type="curve" smooth="yes"/>
      <point x="838" y="945" type="line" smooth="yes"/>
      <point x="838" y="1053"/>
      <point x="759" y="1119"/>
      <point x="616" y="1119" type="curve" smooth="yes"/>
      <point x="458" y="1119"/>
      <point x="384" y="1058"/>
      <point x="384" y="940" type="curve" smooth="yes"/>
      <point x="384" y="892" type="line"/>
    </contour>
    <contour>
      <point x="143" y="612" type="line" smooth="yes"/>
      <point x="143" y="641"/>
      <point x="146" y="682"/>
      <point x="154" y="723" type="curve"/>
      <point x="350" y="684" type="line"/>
      <point x="350" y="594" type="line" smooth="yes"/>
      <point x="350" y="399"/>
      <point x="502" y="311"/>
      <point x="819" y="311" type="curve" smooth="yes"/>
      <point x="1138" y="311"/>
      <point x="1303" y="407"/>
      <point x="1357" y="564" type="curve"/>
      <point x="1362" y="385" type="line"/>
      <point x="1341" y="385" type="line"/>
      <point x="1281.1" y="234.253"/>
      <point x="1118.4" y="139"/>
      <point x="799" y="139" type="curve" smooth="yes"/>
      <point x="363" y="139"/>
      <point x="143" y="304"/>
      <point x="143" y="606" type="curve" smooth="yes"/>
    </contour>
  </outline>
  <guideline angle="90" x="512" y="0"/>
  <guideline angle="90" x="1290" y="0"/>
  <guideline angle="0" x="0" y="9"/>
  <guideline angle="90" x="1295" y="0"/>
  <guideline angle="90" x="1278" y="0"/>
  <guideline angle="0" x="0" y="1262"/>
  <guideline angle="90" x="1457" y="0"/>
  <guideline angle="0" x="0" y="30"/>
</glyph>
<glyph name="Dha.dv" format="2">
  <advance width="1771"/>
  <unicode hex="0927"/>
  <anchor x="1442" y="23" name="bottom"/>
  <anchor x="1437" y="23" name="bottom2"/>
  <anchor x="1546.5" y="23" name="bottom3"/>
  <anchor x="1441.5" y="42.5" name="bottom5"/>
  <anchor x="1441.5" y="1217.5" name="top"/>
  <outline>
    <contour>
      <point x="1546.5" y="1145.5" type="line"/>
      <point x="1546.5" y="0" type="line"/>
      <point x="1336.5" y="0" type="line"/>
      <point x="1336.5" y="1145.5" type="line"/>
    </contour>
    <contour>
      <point x="1213" y="1092.5" type="line"/>
      <point x="1199" y="1248" type="line"/>
      <point x="1807" y="1248" type="line"/>
      <point x="1821" y="1092.5" type="line"/>
    </contour>
    <contour>
      <point x="1166" y="1093" type="line"/>
      <point x="1152" y="1248" type="line"/>
      <point x="1707" y="1248" type="line"/>
      <point x="1721" y="1093" type="line"/>
    </contour>
    <contour>
      <point x="147" y="434" type="line" smooth="yes"/>
      <point x="147" y="566.552"/>
      <point x="222.312" y="661.95"/>
      <point x="478" y="674" type="curve"/>
      <point x="478" y="682" type="line"/>
      <point x="221.843" y="710.097"/>
      <point x="117" y="807.434"/>
      <point x="117" y="971" type="curve" smooth="yes"/>
      <point x="117" y="978" type="line" smooth="yes"/>
      <point x="117" y="1158.8"/>
      <point x="268" y="1279"/>
      <point x="586" y="1279" type="curve" smooth="yes"/>
      <point x="893" y="1279"/>
      <point x="1033" y="1169"/>
      <point x="1033" y="997" type="curve" smooth="yes"/>
      <point x="1033" y="968"/>
      <point x="1028" y="941"/>
      <point x="1021" y="919" type="curve"/>
      <point x="828" y="919" type="line"/>
      <point x="828" y="954" type="line" smooth="yes"/>
      <point x="828" y="1065"/>
      <point x="747" y="1119"/>
      <point x="585" y="1119" type="curve" smooth="yes"/>
      <point x="421" y="1119"/>
      <point x="331" y="1054.77"/>
      <point x="331" y="952" type="curve" smooth="yes"/>
      <point x="331" y="946" type="line" smooth="yes"/>
      <point x="331" y="819.677"/>
      <point x="430.996" y="761.881"/>
      <point x="763" y="755" type="curve" smooth="yes"/>
      <point x="956" y="751" type="line"/>
      <point x="956" y="593" type="line"/>
      <point x="752" y="590" type="line" smooth="yes"/>
      <point x="432.995" y="585.309"/>
      <point x="365" y="539"/>
      <point x="365" y="450" type="curve" smooth="yes"/>
      <point x="365" y="447" type="line" smooth="yes"/>
      <point x="365" y="345"/>
      <point x="486" y="289"/>
      <point x="802" y="289" type="curve" smooth="yes"/>
      <point x="1121" y="289"/>
      <point x="1286" y="368.068"/>
      <point x="1342" y="511" type="curve"/>
      <point x="1347" y="342" type="line"/>
      <point x="1326" y="342" type="line"/>
      <point x="1269" y="210.089"/>
      <point x="1115" y="117"/>
      <point x="771" y="117" type="curve" smooth="yes"/>
      <point x="341" y="117"/>
      <point x="147" y="228"/>
      <point x="147" y="429" type="curve" smooth="yes"/>
    </contour>
  </outline>
  <guideline angle="90" x="508" y="0"/>
  <guideline angle="90" x="1275" y="0"/>
  <guideline angle="0" x="0" y="9"/>
  <guideline angle="90" x="1280" y="0"/>
  <guideline angle="90" x="1263" y="0"/>
  <guideline angle="0" x="0" y="1262"/>
  <guideline angle="90" x="1442" y="0"/>
  <guideline angle="0" x="0" y="30"/>
</glyph>
<glyph name="Na.dv" format="2">
  <advance width="1515"/>
  <unicode hex="0928"/>
  <anchor x="1185.5" y="23" name="bottom"/>
  <anchor x="1180.5" y="23" name="bottom2"/>
  <anchor x="1290" y="23" name="bottom3"/>
  <anchor x="1185" y="42.5" name="bottom5"/>
  <anchor x="1185" y="1217.5" name="top"/>
  <outline>
    <contour>
      <point x="1290" y="1145.5" type="line"/>
      <point x="1290" y="0" type="line"/>
      <point x="1080" y="0" type="line"/>
      <point x="1080" y="1145.5" type="line"/>
    </contour>
    <contour>
      <point x="956.5" y="1092.5" type="line"/>
      <point x="942.5" y="1248" type="line"/>
      <point x="1550.5" y="1248" type="line"/>
      <point x="1564.5" y="1092.5" type="line"/>
    </contour>
    <contour>
      <point x="1466" y="1093" type="line"/>
      <point x="-36" y="1093" type="line"/>
      <point x="-50" y="1248" type="line"/>
      <point x="1452" y="1248" type="line"/>
    </contour>
    <contour>
      <point x="1171" y="750" type="line"/>
      <point x="1171" y="584" type="line"/>
      <point x="337" y="584" type="line"/>
      <point x="337" y="750" type="line"/>
    </contour>
    <contour>
      <point x="252" y="234" type="line"/>
      <point x="192" y="373"/>
      <point x="152" y="499"/>
      <point x="134" y="673" type="curve"/>
      <point x="256" y="750" type="line"/>
      <point x="447" y="750" type="line"/>
      <point x="447" y="234" type="line"/>
    </contour>
  </outline>
  <guideline angle="90" x="1018.5" y="0"/>
  <guideline angle="0" x="0" y="9"/>
  <guideline angle="90" x="1023.5" y="0"/>
  <guideline angle="90" x="1006.5" y="0"/>
  <guideline angle="0" x="0" y="1262"/>
  <guideline angle="90" x="1185.5" y="0"/>
  <guideline angle="0" x="0" y="30"/>
</glyph>
<glyph name="NaNukta.dv" format="2">
  <advance width="1515"/>
  <unicode hex="0929"/>
  <anchor x="1185.5" y="23" name="bottom"/>
  <anchor x="1180.5" y="23" name="bottom2"/>
  <anchor x="1290" y="23" name="bottom3"/>
  <anchor x="1185" y="42.5" name="bottom5"/>
  <anchor x="1185" y="1217.5" name="top"/>
  <outline>
    <contour>
      <point x="1290" y="1145.5" type="line"/>
      <point x="1290" y="0" type="line"/>
      <point x="1080" y="0" type="line"/>
      <point x="1080" y="1145.5" type="line"/>
    </contour>
    <contour>
      <point x="956.5" y="1092.5" type="line"/>
      <point x="942.5" y="1248" type="line"/>
      <point x="1550.5" y="1248" type="line"/>
      <point x="1564.5" y="1092.5" type="line"/>
    </contour>
    <contour>
      <point x="1466" y="1093" type="line"/>
      <point x="-36" y="1093" type="line"/>
      <point x="-50" y="1248" type="line"/>
      <point x="1452" y="1248" type="line"/>
    </contour>
    <contour>
      <point x="1171" y="750" type="line"/>
      <point x="1171" y="584" type="line"/>
      <point x="337" y="584" type="line"/>
      <point x="337" y="750" type="line"/>
    </contour>
    <contour>
      <point x="252" y="234" type="line"/>
      <point x="192" y="373"/>
      <point x="152" y="499"/>
      <point x="134" y="673" type="curve"/>
      <point x="256" y="750" type="line"/>
      <point x="447" y="750" type="line"/>
      <point x="447" y="234" type="line"/>
    </contour>
    <contour>
      <point x="340.5" y="-161" type="curve" smooth="yes"/>
      <point x="250.5" y="-161"/>
      <point x="202.5" y="-112.5"/>
      <point x="202.5" y="-42" type="curve"/>
      <point x="202.5" y="-40.8952"/>
      <point x="202.5" y="-37.957"/>
      <point x="202.5" y="-37" type="curve"/>
      <point x="202.5" y="36"/>
      <point x="250.5" y="83.5"/>
      <point x="340.5" y="83.5" type="curve" smooth="yes"/>
      <point x="430.5" y="83.5"/>
      <point x="477.5" y="35"/>
      <point x="477.5" y="-37" type="curve"/>
      <point x="477.5" y="-38.1048"/>
      <point x="477.5" y="-41.043"/>
      <point x="477.5" y="-42" type="curve"/>
      <point x="477.5" y="-113"/>
      <point x="430" y="-161"/>
    </contour>
  </outline>
</glyph>
<glyph name="Pa.dv" format="2">
  <advance width="1549"/>
  <unicode hex="092A"/>
  <anchor x="1220" y="23" name="bottom"/>
  <anchor x="1215" y="23" name="bottom2"/>
  <anchor x="1324.5" y="23" name="bottom3"/>
  <anchor x="1219.5" y="42.5" name="bottom5"/>
  <anchor x="1219.5" y="1217.5" name="top"/>
  <outline>
    <contour>
      <point x="1324.5" y="1145.5" type="line"/>
      <point x="1324.5" y="0" type="line"/>
      <point x="1114.5" y="0" type="line"/>
      <point x="1114.5" y="1145.5" type="line"/>
    </contour>
    <contour>
      <point x="991" y="1092.5" type="line"/>
      <point x="977" y="1248" type="line"/>
      <point x="1585" y="1248" type="line"/>
      <point x="1599" y="1092.5" type="line"/>
    </contour>
    <contour>
      <point x="-36" y="1093" type="line"/>
      <point x="-50" y="1248" type="line"/>
      <point x="1485" y="1248" type="line"/>
      <point x="1499" y="1093" type="line"/>
    </contour>
    <contour>
      <point x="686" y="284" type="curve" smooth="yes"/>
      <point x="371.748" y="284"/>
      <point x="184" y="439"/>
      <point x="184" y="780" type="curve" smooth="yes"/>
      <point x="184" y="1143" type="line"/>
      <point x="394" y="1143" type="line"/>
      <point x="394" y="804" type="line" smooth="yes"/>
      <point x="394" y="548"/>
      <point x="522" y="456"/>
      <point x="736" y="456" type="curve" smooth="yes"/>
      <point x="953" y="456"/>
      <point x="1078" y="550"/>
      <point x="1118" y="688" type="curve"/>
      <point x="1125" y="517" type="line"/>
      <point x="1105" y="517" type="line"/>
      <point x="1052.25" y="368.415"/>
      <point x="916.898" y="284"/>
    </contour>
  </outline>
</glyph>
<glyph name="Ma.dv" format="2">
  <advance width="1605"/>
  <unicode hex="092E"/>
  <anchor x="1276" y="23" name="bottom"/>
  <anchor x="1271" y="23" name="bottom2"/>
  <anchor x="1380.5" y="23" name="bottom3"/>
  <anchor x="1275.5" y="42.5" name="bottom5"/>
  <anchor x="1275.5" y="1217.5" name="top"/>
  <outline>
    <contour>
      <point x="1380.5" y="1145.5" type="line"/>
      <point x="1380.5" y="0" type="line"/>
      <point x="1170.5" y="0" type="line"/>
      <point x="1170.5" y="1145.5" type="line"/>
    </contour>
    <contour>
      <point x="1047" y="1092.5" type="line"/>
      <point x="1033" y="1248" type="line"/>
      <point x="1641" y="1248" type="line"/>
      <point x="1655" y="1092.5" type="line"/>
    </contour>
    <contour>
      <point x="1554" y="1093" type="line"/>
      <point x="-35" y="1093" type="line"/>
      <point x="-49" y="1248" type="line"/>
      <point x="1540" y="1248" type="line"/>
    </contour>
    <contour>
      <point x="1247" y="637" type="line"/>
      <point x="1247" y="473" type="line"/>
      <point x="360" y="473" type="line"/>
      <point x="360" y="637" type="line"/>
    </contour>
    <contour>
      <point x="490" y="1149" type="line"/>
      <point x="490" y="545" type="line"/>
      <point x="282" y="545" type="line"/>
      <point x="282" y="1149" type="line"/>
    </contour>
    <contour>
      <point x="276" y="166" type="line"/>
      <point x="221" y="292"/>
      <point x="180" y="406"/>
      <point x="161" y="564" type="curve"/>
      <point x="283" y="628" type="line"/>
      <point x="490" y="628" type="line"/>
      <point x="490" y="166" type="line"/>
    </contour>
  </outline>
</glyph>
<glyph name="Ra.dv" format="2">
  <advance width="1102"/>
  <unicode hex="0930"/>
  <anchor x="514" y="23" name="bottom2"/>
  <anchor x="1120.5" y="23" name="bottom3"/>
  <anchor x="545.5" y="42.5" name="bottom5"/>
  <anchor x="673.5" y="1217.5" name="top"/>
  <outline>
    <contour>
      <point x="1161" y="1093" type="line"/>
      <point x="-36" y="1093" type="line"/>
      <point x="-50" y="1248" type="line"/>
      <point x="1147" y="1248" type="line"/>
    </contour>
    <contour>
      <point x="939" y="0" type="line"/>
      <point x="668.323" y="0" type="line"/>
      <point x="222.852" y="459" type="line"/>
      <point x="76" y="469" type="line"/>
      <point x="76" y="639" type="line"/>
      <point x="390" y="560" type="line"/>
      <point x="390" y="488.831" type="line"/>
      <point x="500.238" y="420.712"/>
      <point x="569.727" y="366.44"/>
      <point x="672.012" y="268.206" type="curve" smooth="yes"/>
      <point x="939" y="11.7893" type="line"/>
    </contour>
    <contour>
      <point x="795" y="1139" type="line"/>
      <point x="896" y="1064.89"/>
      <point x="949" y="970.744"/>
      <point x="949" y="848.558" type="curve" smooth="yes"/>
      <point x="949" y="841.547" type="line" smooth="yes"/>
      <point x="949" y="621.215"/>
      <point x="771" y="482.183"/>
      <point x="364.998" y="478.279" type="curve" smooth="yes"/>
      <point x="232" y="477" type="line"/>
      <point x="76" y="639" type="line"/>
      <point x="272.998" y="639" type="line" smooth="yes"/>
      <point x="590" y="639"/>
      <point x="732" y="715"/>
      <point x="732" y="876" type="curve" smooth="yes"/>
      <point x="732" y="882" type="line" smooth="yes"/>
      <point x="732" y="985"/>
      <point x="681" y="1066"/>
      <point x="569" y="1139" type="curve"/>
    </contour>
  </outline>
</glyph>
<glyph name="RaNukta.dv" format="2">
  <advance width="1102"/>
  <unicode hex="0931"/>
  <anchor x="514" y="23" name="bottom2"/>
  <anchor x="1120.5" y="23" name="bottom3"/>
  <anchor x="545.5" y="42.5" name="bottom5"/>
  <anchor x="673.5" y="1217.5" name="top"/>
  <outline>
    <contour>
      <point x="1161" y="1093" type="line"/>
      <point x="-36" y="1093" type="line"/>
      <point x="-50" y="1248" type="line"/>
      <point x="1147" y="1248" type="line"/>
    </contour>
    <contour>
      <point x="939" y="0" type="line"/>
      <point x="668.323" y="0" type="line"/>
      <point x="222.852" y="459" type="line"/>
      <point x="76" y="469" type="line"/>
      <point x="76" y="639" type="line"/>
      <point x="390" y="560" type="line"/>
      <point x="390" y="488.831" type="line"/>
      <point x="500.238" y="420.712"/>
      <point x="569.727" y="366.44"/>
      <point x="672.012" y="268.206" type="curve" smooth="yes"/>
      <point x="939" y="11.7893" type="line"/>
    </contour>
    <contour>
      <point x="795" y="1139" type="line"/>
      <point x="896" y="1064.89"/>
      <point x="949" y="970.744"/>
      <point x="949" y="848.558" type="curve" smooth="yes"/>
      <point x="949" y="841.547" type="line" smooth="yes"/>
      <point x="949" y="621.215"/>
      <point x="771" y="482.183"/>
      <point x="364.998" y="478.279" type="curve" smooth="yes"/>
      <point x="232" y="477" type="line"/>
      <point x="76" y="639" type="line"/>
      <point x="272.998" y="639" type="line" smooth="yes"/>
      <point x="590" y="639"/>
      <point x="732" y="715"/>
      <point x="732" y="876" type="curve" smooth="yes"/>
      <point x="732" y="882" type="line" smooth="yes"/>
      <point x="732" y="985"/>
      <point x="681" y="1066"/>
      <point x="569" y="1139" type="curve"/>
    </contour>
    <contour>
      <point x="198" y="-210" type="curve" smooth="yes"/>
      <point x="108" y="-210"/>
      <point x="60" y="-161.5"/>
      <point x="60" y="-91" type="curve"/>
      <point x="60" y="-89.8952"/>
      <point x="60" y="-86.957"/>
      <point x="60" y="-86" type="curve"/>
      <point x="60" y="-13"/>
      <point x="108" y="34.5"/>
      <point x="198" y="34.5" type="curve" smooth="yes"/>
      <point x="288" y="34.5"/>
      <point x="335" y="-14"/>
      <point x="335" y="-86" type="curve"/>
      <point x="335" y="-87.1048"/>
      <point x="335" y="-90.043"/>
      <point x="335" y="-91" type="curve"/>
      <point x="335" y="-162"/>
      <point x="287.5" y="-210"/>
    </contour>
  </outline>
  <guideline angle="90" x="261" y="0"/>
  <guideline angle="90" x="205" y="0"/>
  <guideline angle="0" x="0" y="1262"/>
  <guideline angle="0" x="0" y="30"/>
</glyph>
<glyph name="La.dv" format="2">
  <advance width="1901"/>
  <unicode hex="0932"/>
  <anchor x="1571.5" y="23" name="bottom"/>
  <anchor x="1566.5" y="23" name="bottom2"/>
  <anchor x="1676" y="23" name="bottom3"/>
  <anchor x="1571" y="42.5" name="bottom5"/>
  <anchor x="1571" y="1217.5" name="top"/>
  <outline>
    <contour>
      <point x="1676" y="1145.5" type="line"/>
      <point x="1676" y="0" type="line"/>
      <point x="1466" y="0" type="line"/>
      <point x="1466" y="1145.5" type="line"/>
    </contour>
    <contour>
      <point x="1342.5" y="1092.5" type="line"/>
      <point x="1328.5" y="1248" type="line"/>
      <point x="1936.5" y="1248" type="line"/>
      <point x="1950.5" y="1092.5" type="line"/>
    </contour>
    <contour>
      <point x="-34" y="1093" type="line"/>
      <point x="-48" y="1248" type="line"/>
      <point x="1833" y="1248" type="line"/>
      <point x="1847" y="1093" type="line"/>
    </contour>
    <contour>
      <point x="587" y="866" type="curve" smooth="yes"/>
      <point x="789.586" y="866"/>
      <point x="897.89" y="782.908"/>
      <point x="934" y="651" type="curve"/>
      <point x="942" y="651" type="line"/>
      <point x="972.888" y="784.995"/>
      <point x="1084.53" y="864"/>
      <point x="1246" y="864" type="curve" smooth="yes"/>
      <point x="1361" y="864"/>
      <point x="1435" y="828"/>
      <point x="1478" y="770" type="curve"/>
      <point x="1472" y="566" type="line"/>
      <point x="1438" y="643"/>
      <point x="1372" y="694"/>
      <point x="1266" y="694" type="curve" smooth="yes"/>
      <point x="1131" y="694"/>
      <point x="1053.8" y="617.008"/>
      <point x="1048" y="467" type="curve" smooth="yes"/>
      <point x="1040" y="260" type="line"/>
      <point x="841" y="260" type="line"/>
      <point x="834" y="466" type="line" smooth="yes"/>
      <point x="828.903" y="615.997"/>
      <point x="757.849" y="696"/>
      <point x="607.529" y="696" type="curve" smooth="yes"/>
      <point x="453.2" y="696"/>
      <point x="359" y="606"/>
      <point x="359" y="457" type="curve" smooth="yes"/>
      <point x="359" y="288"/>
      <point x="459" y="161"/>
      <point x="652" y="4" type="curve"/>
      <point x="652" y="0" type="line"/>
      <point x="390" y="0" type="line"/>
      <point x="224.659" y="133"/>
      <point x="139" y="283"/>
      <point x="139" y="465" type="curve" smooth="yes"/>
      <point x="139" y="713"/>
      <point x="308" y="866"/>
    </contour>
  </outline>
  <guideline angle="0" x="0" y="519"/>
  <guideline angle="0" x="0" y="518"/>
  <guideline angle="90" x="70" y="0"/>
  <guideline angle="90" x="1404.5" y="0"/>
  <guideline angle="0" x="0" y="9"/>
  <guideline angle="90" x="1409.5" y="0"/>
  <guideline angle="90" x="1392.5" y="0"/>
  <guideline angle="0" x="0" y="1262"/>
  <guideline angle="90" x="1571.5" y="0"/>
  <guideline angle="0" x="0" y="30"/>
</glyph>
<glyph name="Va.dv" format="2">
  <advance width="1597"/>
  <unicode hex="0935"/>
  <anchor x="1268" y="23" name="bottom"/>
  <anchor x="1263" y="23" name="bottom2"/>
  <anchor x="1372.5" y="23" name="bottom3"/>
  <anchor x="1267.5" y="42.5" name="bottom5"/>
  <anchor x="1267.5" y="1217.5" name="top"/>
  <outline>
    <contour>
      <point x="1372.5" y="1145.5" type="line"/>
      <point x="1372.5" y="0" type="line"/>
      <point x="1162.5" y="0" type="line"/>
      <point x="1162.5" y="1145.5" type="line"/>
    </contour>
    <contour>
      <point x="1039" y="1092.5" type="line"/>
      <point x="1025" y="1248" type="line"/>
      <point x="1633" y="1248" type="line"/>
      <point x="1647" y="1092.5" type="line"/>
    </contour>
    <contour>
      <point x="-33" y="1093" type="line"/>
      <point x="-47" y="1248" type="line"/>
      <point x="1531" y="1248" type="line"/>
      <point x="1546" y="1093" type="line"/>
    </contour>
    <contour>
      <point x="129" y="521" type="curve" smooth="yes"/>
      <point x="129" y="529" type="line" smooth="yes"/>
      <point x="129" y="777"/>
      <point x="317" y="913"/>
      <point x="677" y="913" type="curve" smooth="yes"/>
      <point x="791" y="913"/>
      <point x="887" y="902"/>
      <point x="982" y="877" type="curve"/>
      <point x="997" y="714" type="line"/>
      <point x="908" y="736"/>
      <point x="810" y="748"/>
      <point x="707" y="748" type="curve" smooth="yes"/>
      <point x="466" y="748"/>
      <point x="347" y="674"/>
      <point x="347" y="529" type="curve" smooth="yes"/>
      <point x="347" y="523" type="line" smooth="yes"/>
      <point x="347" y="382"/>
      <point x="469" y="301"/>
      <point x="715" y="301" type="curve" smooth="yes"/>
      <point x="978" y="301"/>
      <point x="1127" y="386"/>
      <point x="1167" y="517" type="curve"/>
      <point x="1170" y="347" type="line"/>
      <point x="1151" y="347" type="line"/>
      <point x="1099.21" y="213.14"/>
      <point x="950.976" y="129"/>
      <point x="683" y="129" type="curve" smooth="yes"/>
      <point x="325.531" y="129"/>
      <point x="129" y="278"/>
    </contour>
  </outline>
</glyph>
<glyph name="Ssa.dv" format="2">
  <advance width="1565"/>
  <unicode hex="0937"/>
  <anchor x="1236" y="23" name="bottom"/>
  <anchor x="1231" y="23" name="bottom2"/>
  <anchor x="1340.5" y="23" name="bottom3"/>
  <anchor x="1235.5" y="42.5" name="bottom5"/>
  <anchor x="1235.5" y="1217.5" name="top"/>
  <outline>
    <contour>
      <point x="1340.5" y="1145.5" type="line"/>
      <point x="1340.5" y="0" type="line"/>
      <point x="1130.5" y="0" type="line"/>
      <point x="1130.5" y="1145.5" type="line"/>
    </contour>
    <contour>
      <point x="1007" y="1092.5" type="line"/>
      <point x="993" y="1248" type="line"/>
      <point x="1601" y="1248" type="line"/>
      <point x="1615" y="1092.5" type="line"/>
    </contour>
    <contour>
      <point x="-36" y="1092.5" type="line"/>
      <point x="-50" y="1248" type="line"/>
      <point x="1500.5" y="1248" type="line"/>
      <point x="1514.5" y="1092.5" type="line"/>
    </contour>
    <contour>
      <point x="708" y="285.5" type="curve" smooth="yes"/>
      <point x="367.805" y="285.5"/>
      <point x="185" y="447.366"/>
      <point x="185" y="784.5" type="curve" smooth="yes"/>
      <point x="185" y="1142.5" type="line"/>
      <point x="391.5" y="1142.5" type="line"/>
      <point x="391.5" y="794.5" type="line" smooth="yes"/>
      <point x="391.5" y="553.418"/>
      <point x="520.009" y="453"/>
      <point x="744" y="453" type="curve" smooth="yes"/>
      <point x="963.991" y="453"/>
      <point x="1083.71" y="528.911"/>
      <point x="1134" y="664.5" type="curve"/>
      <point x="1138.5" y="497.5" type="line"/>
      <point x="1121" y="497.5" type="line"/>
      <point x="1074.3" y="375.217"/>
      <point x="943.05" y="285.5"/>
    </contour>
    <contour>
      <point x="318" y="1016" type="curve"/>
      <point x="378" y="1128" type="line"/>
      <point x="939" y="789.5" type="line" smooth="yes"/>
      <point x="1034.87" y="731.654"/>
      <point x="1100" y="691.638"/>
      <point x="1179" y="636" type="curve"/>
      <point x="1116" y="520" type="line"/>
      <point x="565" y="848.5" type="line" smooth="yes"/>
      <point x="449.815" y="917.172"/>
      <point x="389" y="955"/>
    </contour>
  </outline>
</glyph>
<glyph name="Ha.dv" format="2">
  <advance width="1461"/>
  <unicode hex="0939"/>
  <anchor x="838" y="-132" name="bottom"/>
  <anchor x="671" y="-208.5" name="bottom2"/>
  <anchor x="1289" y="-208.5" name="bottom3"/>
  <anchor x="384" y="-121" name="bottom4"/>
  <anchor x="750.5" y="-189" name="bottom5"/>
  <anchor x="1146.5" y="1217.5" name="top"/>
  <outline>
    <contour>
      <point x="919.5" y="1093.5" type="line"/>
      <point x="905.5" y="1248" type="line"/>
      <point x="1487" y="1248" type="line"/>
      <point x="1501" y="1093.5" type="line"/>
    </contour>
    <contour>
      <point x="1251.5" y="1145.5" type="line"/>
      <point x="1251.5" y="912.5" type="line"/>
      <point x="1048" y="912.5" type="line"/>
      <point x="1048" y="1145.5" type="line"/>
    </contour>
    <contour>
      <point x="1509.5" y="1092.5" type="line"/>
      <point x="-29.5" y="1092.5" type="line"/>
      <point x="-43.5" y="1248" type="line"/>
      <point x="1495.5" y="1248" type="line"/>
    </contour>
    <contour>
      <point x="1048" y="1144" type="line"/>
      <point x="1251.5" y="1144" type="line"/>
      <point x="1251.5" y="725.5" type="line"/>
      <point x="1048" y="763" type="line"/>
    </contour>
    <contour>
      <point x="306.5" y="398" type="line"/>
      <point x="199.919" y="452.982"/>
      <point x="147.5" y="530.326"/>
      <point x="147.5" y="622" type="curve" smooth="yes"/>
      <point x="147.5" y="628" type="line" smooth="yes"/>
      <point x="147.5" y="812.398"/>
      <point x="309.294" y="919.5"/>
      <point x="726.5" y="919.5" type="curve" smooth="yes"/>
      <point x="907.551" y="919.5"/>
      <point x="1075.85" y="908"/>
      <point x="1251.5" y="879" type="curve"/>
      <point x="1251.5" y="725.5" type="line"/>
      <point x="1089.68" y="749.5"/>
      <point x="929.609" y="759.5"/>
      <point x="763.5" y="759.5" type="curve" smooth="yes"/>
      <point x="463.205" y="759.5"/>
      <point x="361.5" y="701.506"/>
      <point x="361.5" y="601.5" type="curve" smooth="yes"/>
      <point x="361.5" y="597.5" type="line" smooth="yes"/>
      <point x="361.5" y="544.5"/>
      <point x="391.5" y="502"/>
      <point x="444" y="469" type="curve"/>
    </contour>
    <contour>
      <point x="1175.5" y="-190" type="line"/>
      <point x="1073" y="-217.5"/>
      <point x="953" y="-232"/>
      <point x="802" y="-232" type="curve" smooth="yes"/>
      <point x="418.5" y="-232"/>
      <point x="163" y="-101"/>
      <point x="163" y="154" type="curve" smooth="yes"/>
      <point x="163" y="163" type="line" smooth="yes"/>
      <point x="163" y="283"/>
      <point x="221" y="377.5"/>
      <point x="344.5" y="441.5" type="curve"/>
      <point x="371.5" y="456.5" type="line"/>
      <point x="463.974" y="502.511"/>
      <point x="600.119" y="534"/>
      <point x="780" y="534" type="curve" smooth="yes"/>
      <point x="1152.18" y="534"/>
      <point x="1330.5" y="403.596"/>
      <point x="1330.5" y="211.5" type="curve" smooth="yes"/>
      <point x="1330.5" y="185.684"/>
      <point x="1326" y="152.357"/>
      <point x="1317.5" y="128" type="curve"/>
      <point x="1116" y="128" type="line"/>
      <point x="1116" y="172" type="line" smooth="yes"/>
      <point x="1116" y="298.288"/>
      <point x="1008.7" y="368.5"/>
      <point x="759.5" y="368.5" type="curve" smooth="yes"/>
      <point x="510.292" y="368.5"/>
      <point x="381" y="300.028"/>
      <point x="381" y="164.5" type="curve" smooth="yes"/>
      <point x="381" y="157.5" type="line" smooth="yes"/>
      <point x="381" y="13.3568"/>
      <point x="536.408" y="-64"/>
      <point x="821" y="-64" type="curve" smooth="yes"/>
      <point x="950.765" y="-64"/>
      <point x="1085.64" y="-48"/>
      <point x="1196.5" y="-23" type="curve"/>
    </contour>
  </outline>
</glyph>
<glyph name="uni093A" format="2">
  <unicode hex="093A"/>
  <anchor x="-329.5" y="1217.5" name="_top"/>
  <outline>
    <contour>
      <point x="-426.5" y="1711" type="line"/>
      <point x="-235.5" y="1711" type="line"/>
      <point x="-235.5" y="1224.5" type="line"/>
      <point x="-426.5" y="1224.5" type="line"/>
    </contour>
  </outline>
  <guideline angle="90" x="-98" y="0"/>
</glyph>
<glyph name="uni093B" format="2">
  <advance width="659"/>
  <unicode hex="093B"/>
  <outline>
    <contour>
      <point x="434.5" y="0" type="line"/>
      <point x="224.5" y="0" type="line"/>
      <point x="224.5" y="1145.5" type="line"/>
      <point x="434.5" y="1145.5" type="line"/>
    </contour>
    <contour>
      <point x="709" y="1092.5" type="line"/>
      <point x="-36" y="1092.5" type="line"/>
      <point x="-50" y="1248" type="line"/>
      <point x="695" y="1248" type="line"/>
    </contour>
    <contour>
      <point x="232.5" y="1711" type="line"/>
      <point x="423.5" y="1711" type="line"/>
      <point x="423.5" y="1224.5" type="line"/>
      <point x="232.5" y="1224.5" type="line"/>
    </contour>
  </outline>
  <guideline angle="90" x="89" y="0"/>
</glyph>
<glyph name="Nukta.dv" format="2">
  <unicode hex="093C"/>
  <anchor x="-481.5" y="175.5" name="_bottom4"/>
  <outline>
    <contour>
      <point x="-481.5" y="-244.5" type="curve" smooth="yes"/>
      <point x="-571.5" y="-244.5"/>
      <point x="-619.5" y="-196"/>
      <point x="-619.5" y="-125.5" type="curve"/>
      <point x="-619.5" y="-124.395"/>
      <point x="-619.5" y="-121.457"/>
      <point x="-619.5" y="-120.5" type="curve"/>
      <point x="-619.5" y="-47.5"/>
      <point x="-571.5" y="0"/>
      <point x="-481.5" y="0" type="curve" smooth="yes"/>
      <point x="-391.5" y="0"/>
      <point x="-344.5" y="-48.5"/>
      <point x="-344.5" y="-120.5" type="curve"/>
      <point x="-344.5" y="-121.605"/>
      <point x="-344.5" y="-124.543"/>
      <point x="-344.5" y="-125.5" type="curve"/>
      <point x="-344.5" y="-196.5"/>
      <point x="-392" y="-244.5"/>
    </contour>
  </outline>
</glyph>
<glyph name="matraA.dv" format="2">
  <advance width="659"/>
  <unicode hex="093E"/>
  <outline>
    <contour>
      <point x="434.5" y="0" type="line"/>
      <point x="224.5" y="0" type="line"/>
      <point x="224.5" y="1145.5" type="line"/>
      <point x="434.5" y="1145.5" type="line"/>
    </contour>
    <contour>
      <point x="709" y="1092.5" type="line"/>
      <point x="-36" y="1092.5" type="line"/>
      <point x="-50" y="1248" type="line"/>
      <point x="695" y="1248" type="line"/>
    </contour>
  </outline>
</glyph>
<glyph name="matraI.dv" format="2">
  <advance width="659"/>
  <unicode hex="093F"/>
  <outline>
    <contour>
      <point x="434.5" y="0" type="line"/>
      <point x="224.5" y="0" type="line"/>
      <point x="224.5" y="1145.5" type="line"/>
      <point x="434.5" y="1145.5" type="line"/>
    </contour>
    <contour>
      <point x="709" y="1092.5" type="line"/>
      <point x="-36" y="1092.5" type="line"/>
      <point x="-50" y="1248" type="line"/>
      <point x="695" y="1248" type="line"/>
    </contour>
    <contour>
      <point x="911.334" y="1778.5" type="curve" smooth="yes"/>
      <point x="1269.8" y="1778.5"/>
      <point x="1610.98" y="1682.29"/>
      <point x="1857.5" y="1528" type="curve"/>
      <point x="1890" y="1335.5" type="line"/>
      <point x="1884.02" y="1333" type="line"/>
      <point x="1590.25" y="1512.5"/>
      <point x="1256.79" y="1611"/>
      <point x="920.691" y="1611" type="curve" smooth="yes"/>
      <point x="583.45" y="1611"/>
      <point x="431.5" y="1484.98"/>
      <point x="431.5" y="1254.5" type="curve" smooth="yes"/>
      <point x="431.5" y="1218" type="line"/>
      <point x="225" y="1218" type="line"/>
      <point x="225" y="1260" type="line" smooth="yes"/>
      <point x="225" y="1595.02"/>
      <point x="446.299" y="1778.5"/>
    </contour>
  </outline>
</glyph>
<glyph name="matraIi.dv" format="2">
  <advance width="659"/>
  <unicode hex="0940"/>
  <outline>
    <contour>
      <point x="434.5" y="0" type="line"/>
      <point x="224.5" y="0" type="line"/>
      <point x="224.5" y="1145.5" type="line"/>
      <point x="434.5" y="1145.5" type="line"/>
    </contour>
    <contour>
      <point x="709" y="1092.5" type="line"/>
      <point x="-36" y="1092.5" type="line"/>
      <point x="-50" y="1248" type="line"/>
      <point x="695" y="1248" type="line"/>
    </contour>
    <contour>
      <point x="-10.98" y="1797" type="curve" smooth="yes"/>
      <point x="272.185" y="1797"/>
      <point x="425.5" y="1659.66"/>
      <point x="425.5" y="1363.5" type="curve" smooth="yes"/>
      <point x="425.5" y="1227.5" type="line"/>
      <point x="225.5" y="1227.5" type="line"/>
      <point x="225.5" y="1362.97" type="line" smooth="yes"/>
      <point x="225.5" y="1555.18"/>
      <point x="143.598" y="1631"/>
      <point x="-9.52187" y="1631" type="curve" smooth="yes"/>
      <point x="-157.508" y="1631"/>
      <point x="-235.5" y="1561.7"/>
      <point x="-235.5" y="1421.12" type="curve" smooth="yes"/>
      <point x="-235.5" y="1341.5" type="line"/>
      <point x="-422.5" y="1362.5" type="line"/>
      <point x="-431" y="1406.5"/>
      <point x="-434" y="1441"/>
      <point x="-434" y="1474.5" type="curve" smooth="yes"/>
      <point x="-434" y="1672"/>
      <point x="-289.854" y="1797"/>
    </contour>
  </outline>
</glyph>
<glyph name="matraUu.dv" format="2">
  <unicode hex="0942"/>
  <anchor x="-329.5" y="23" name="_bottom"/>
  <outline>
    <contour>
      <point x="-209.5" y="-586.866" type="line"/>
      <point x="-274.476" y="-616.461"/>
      <point x="-354.634" y="-631.5"/>
      <point x="-451.5" y="-631.5" type="curve" smooth="yes"/>
      <point x="-690.832" y="-631.5"/>
      <point x="-855.5" y="-508.813"/>
      <point x="-855.5" y="-309.51" type="curve" smooth="yes"/>
      <point x="-855.5" y="-299.494" type="line" smooth="yes"/>
      <point x="-855.5" y="-102.192"/>
      <point x="-692.117" y="25"/>
      <point x="-418.5" y="25" type="curve" smooth="yes"/>
      <point x="-5.43034" y="25"/>
      <point x="197.6" y="-238.5"/>
      <point x="326" y="-625" type="curve"/>
      <point x="115" y="-625" type="line"/>
      <point x="4.7161" y="-318.992"/>
      <point x="-128.268" y="-134.5"/>
      <point x="-403.625" y="-134.5" type="curve" smooth="yes"/>
      <point x="-558.853" y="-134.5"/>
      <point x="-650" y="-193.678"/>
      <point x="-650" y="-301.525" type="curve" smooth="yes"/>
      <point x="-650" y="-307.371" type="line" smooth="yes"/>
      <point x="-650" y="-414.414"/>
      <point x="-572.043" y="-471"/>
      <point x="-434.392" y="-471" type="curve" smooth="yes"/>
      <point x="-346.871" y="-471"/>
      <point x="-264.36" y="-454"/>
      <point x="-188.5" y="-418.5" type="curve"/>
    </contour>
  </outline>
</glyph>
<glyph name="matraRu.dv" format="2">
  <unicode hex="0943"/>
  <anchor x="-329" y="23" name="_bottom"/>
  <outline>
    <contour>
      <point x="-418" y="-611" type="curve" smooth="yes"/>
      <point x="-702.275" y="-611"/>
      <point x="-874" y="-490.216"/>
      <point x="-874" y="-285.395" type="curve" smooth="yes"/>
      <point x="-874" y="-274.254" type="line" smooth="yes"/>
      <point x="-874" y="-83.3472"/>
      <point x="-726.774" y="25.5"/>
      <point x="-435.826" y="25.5" type="curve" smooth="yes"/>
      <point x="-223.5" y="25.5" type="line"/>
      <point x="-223.5" y="-134.5" type="line"/>
      <point x="-400.605" y="-134.5" type="line" smooth="yes"/>
      <point x="-586.887" y="-134.5"/>
      <point x="-665.5" y="-179.463"/>
      <point x="-665.5" y="-279.431" type="curve" smooth="yes"/>
      <point x="-665.5" y="-284.479" type="line" smooth="yes"/>
      <point x="-665.5" y="-384.94"/>
      <point x="-579.629" y="-445"/>
      <point x="-397.361" y="-445" type="curve" smooth="yes"/>
      <point x="-265.787" y="-445"/>
      <point x="-144.668" y="-414.79"/>
      <point x="-35" y="-351.5" type="curve"/>
      <point x="-50.5" y="-531.455" type="line"/>
      <point x="-147.02" y="-585.902"/>
      <point x="-265.163" y="-611"/>
    </contour>
  </outline>
</glyph>
<glyph name="matraRuu.dv" format="2">
  <unicode hex="0944"/>
  <anchor x="-329" y="23" name="_bottom"/>
  <outline>
    <contour>
      <point x="-223.5" y="26" type="line"/>
      <point x="-223.5" y="-126" type="line"/>
      <point x="-427" y="-126" type="line" smooth="yes"/>
      <point x="-591.935" y="-126"/>
      <point x="-659.5" y="-153.034"/>
      <point x="-659.5" y="-231.131" type="curve" smooth="yes"/>
      <point x="-659.5" y="-234.954" type="line" smooth="yes"/>
      <point x="-659.5" y="-299.71"/>
      <point x="-582.578" y="-339.5"/>
      <point x="-421.984" y="-339.5" type="curve" smooth="yes"/>
      <point x="-288.663" y="-339.5"/>
      <point x="-179.132" y="-318.5"/>
      <point x="-81" y="-270" type="curve"/>
      <point x="-93.6771" y="-438.347" type="line"/>
      <point x="-186.323" y="-483.664"/>
      <point x="-302.644" y="-502"/>
      <point x="-436.465" y="-502" type="curve" smooth="yes"/>
      <point x="-711.648" y="-502"/>
      <point x="-868.5" y="-395.891"/>
      <point x="-868.5" y="-229" type="curve" smooth="yes"/>
      <point x="-868.5" y="-222" type="line" smooth="yes"/>
      <point x="-868.5" y="-60.3827"/>
      <point x="-741.843" y="26"/>
      <point x="-455.457" y="26" type="curve" smooth="yes"/>
    </contour>
    <contour>
      <point x="-500.5" y="-494.5" type="line"/>
      <point x="-602.633" y="-500.396"/>
      <point x="-653" y="-530.054"/>
      <point x="-653" y="-587.598" type="curve" smooth="yes"/>
      <point x="-653" y="-592.341" type="line" smooth="yes"/>
      <point x="-653" y="-658.455"/>
      <point x="-582.901" y="-700"/>
      <point x="-415.584" y="-700" type="curve" smooth="yes"/>
      <point x="-286.866" y="-700"/>
      <point x="-174.62" y="-674.676"/>
      <point x="-70.5" y="-625" type="curve"/>
      <point x="-82.2677" y="-795.1" type="line"/>
      <point x="-173.361" y="-841.081"/>
      <point x="-293.693" y="-864"/>
      <point x="-437.059" y="-864" type="curve" smooth="yes"/>
      <point x="-717.743" y="-864"/>
      <point x="-861" y="-765.674"/>
      <point x="-861" y="-629" type="curve" smooth="yes"/>
      <point x="-861" y="-623" type="line" smooth="yes"/>
      <point x="-861" y="-533.521"/>
      <point x="-803.185" y="-480.741"/>
      <point x="-697.5" y="-464" type="curve"/>
      <point x="-697.5" y="-435.5" type="line"/>
    </contour>
  </outline>
</glyph>
<glyph name="Chandra.dv" format="2">
  <unicode hex="0945"/>
  <anchor x="-329.5" y="1217.5" name="_top"/>
  <outline>
    <contour>
      <point x="100.5" y="1787" type="line"/>
      <point x="102.3" y="1770"/>
      <point x="102" y="1757.5"/>
      <point x="102" y="1748" type="curve" smooth="yes"/>
      <point x="102" y="1530"/>
      <point x="-43.3729" y="1415.5"/>
      <point x="-329.512" y="1415.5" type="curve" smooth="yes"/>
      <point x="-613.603" y="1415.5"/>
      <point x="-760" y="1530"/>
      <point x="-760" y="1748" type="curve" smooth="yes"/>
      <point x="-760" y="1755.5"/>
      <point x="-760" y="1766"/>
      <point x="-757.5" y="1787" type="curve"/>
      <point x="-574.5" y="1787" type="line"/>
      <point x="-574.5" y="1784.19"/>
      <point x="-574.5" y="1764.35"/>
      <point x="-574.5" y="1762.71" type="curve"/>
      <point x="-574.5" y="1631.28"/>
      <point x="-495.781" y="1567.5"/>
      <point x="-329.498" y="1567.5" type="curve" smooth="yes"/>
      <point x="-163.215" y="1567.5"/>
      <point x="-83.5" y="1632.23"/>
      <point x="-83.5" y="1762.71" type="curve"/>
      <point x="-83.5" y="1764.5"/>
      <point x="-83.5" y="1784.82"/>
      <point x="-83.5" y="1787" type="curve"/>
    </contour>
  </outline>
  <guideline angle="90" x="-88" y="0"/>
  <guideline angle="0" x="0" y="1424"/>
  <guideline angle="90" x="-169" y="0"/>
  <guideline angle="0" x="0" y="1262"/>
</glyph>
<glyph name="matraShortE.dv" format="2">
  <unicode hex="0946"/>
  <anchor x="-329.5" y="1217.5" name="_top"/>
  <outline>
    <contour>
      <point x="-1155.5" y="1816" type="curve" smooth="yes"/>
      <point x="-1153.48" y="1686.49"/>
      <point x="-1091.57" y="1626"/>
      <point x="-905.273" y="1626" type="curve" smooth="yes"/>
      <point x="-643.559" y="1626" type="line" smooth="yes"/>
      <point x="-349.563" y="1626"/>
      <point x="-239.5" y="1501.5"/>
      <point x="-239.5" y="1271.5" type="curve" smooth="yes"/>
      <point x="-239.5" y="1216.5" type="line"/>
      <point x="-424.5" y="1216.5" type="line"/>
      <point x="-424.5" y="1261.46" type="line" smooth="yes"/>
      <point x="-424.5" y="1398.8"/>
      <point x="-482.315" y="1465"/>
      <point x="-658.211" y="1465" type="curve" smooth="yes"/>
      <point x="-929.137" y="1465" type="line" smooth="yes"/>
      <point x="-1210.98" y="1465"/>
      <point x="-1339" y="1576.37"/>
      <point x="-1339" y="1759.31" type="curve" smooth="yes"/>
      <point x="-1339" y="1789.54"/>
      <point x="-1335" y="1819.78"/>
      <point x="-1326.5" y="1848" type="curve"/>
      <point x="-1156" y="1848" type="line"/>
      <point x="-1155.96" y="1845.38"/>
      <point x="-1155.54" y="1818.69"/>
    </contour>
  </outline>
</glyph>
<glyph name="matraE.dv" format="2">
  <unicode hex="0947"/>
  <anchor x="-329.5" y="1217.5" name="_top"/>
  <outline>
    <contour>
      <point x="-1260" y="1798" type="line"/>
      <point x="-979.207" y="1798" type="line"/>
      <point x="-833.127" y="1687.32"/>
      <point x="-384.304" y="1347.28"/>
      <point x="-246" y="1242.5" type="curve"/>
      <point x="-246" y="1217.5" type="line"/>
      <point x="-449.5" y="1217.5" type="line"/>
      <point x="-449.5" y="1253" type="line"/>
      <point x="-654.391" y="1338"/>
      <point x="-774.104" y="1412.61"/>
      <point x="-954.5" y="1546" type="curve" smooth="yes"/>
      <point x="-1260" y="1771.9" type="line"/>
    </contour>
  </outline>
</glyph>
<glyph name="matraAi.dv" format="2">
  <unicode hex="0948"/>
  <anchor x="-329.5" y="1217.5" name="_top"/>
  <outline>
    <contour>
      <point x="-1061.33" y="1663.5" type="line"/>
      <point x="-446.5" y="1352.5" type="line"/>
      <point x="-440" y="1363.5" type="line"/>
      <point x="-601.067" y="1507.96"/>
      <point x="-681.246" y="1597.65"/>
      <point x="-762.344" y="1710.02" type="curve" smooth="yes"/>
      <point x="-899" y="1899.36" type="line"/>
      <point x="-899" y="1926" type="line"/>
      <point x="-661.719" y="1926" type="line"/>
      <point x="-236" y="1239.5" type="line"/>
      <point x="-236" y="1217.5" type="line"/>
      <point x="-444" y="1217.5" type="line"/>
      <point x="-444" y="1258" type="line"/>
      <point x="-692.729" y="1307.43"/>
      <point x="-873.849" y="1366.57"/>
      <point x="-1042" y="1453.09" type="curve" smooth="yes"/>
      <point x="-1380" y="1627" type="line"/>
      <point x="-1380" y="1663.5" type="line"/>
    </contour>
  </outline>
</glyph>
<glyph name="matraAChandra.dv" format="2">
  <advance width="659"/>
  <unicode hex="0949"/>
  <outline>
    <contour>
      <point x="434.5" y="0" type="line"/>
      <point x="224.5" y="0" type="line"/>
      <point x="224.5" y="1145.5" type="line"/>
      <point x="434.5" y="1145.5" type="line"/>
    </contour>
    <contour>
      <point x="709" y="1092.5" type="line"/>
      <point x="-36" y="1092.5" type="line"/>
      <point x="-50" y="1248" type="line"/>
      <point x="695" y="1248" type="line"/>
    </contour>
    <contour>
      <point x="434.5" y="1787" type="line"/>
      <point x="436.3" y="1770"/>
      <point x="436" y="1757.5"/>
      <point x="436" y="1748" type="curve" smooth="yes"/>
      <point x="436" y="1530"/>
      <point x="290.627" y="1415.5"/>
      <point x="4.48813" y="1415.5" type="curve" smooth="yes"/>
      <point x="-279.603" y="1415.5"/>
      <point x="-426" y="1530"/>
      <point x="-426" y="1748" type="curve" smooth="yes"/>
      <point x="-426" y="1755.5"/>
      <point x="-426" y="1766"/>
      <point x="-423.5" y="1787" type="curve"/>
      <point x="-240.5" y="1787" type="line"/>
      <point x="-240.5" y="1784.19"/>
      <point x="-240.5" y="1764.35"/>
      <point x="-240.5" y="1762.71" type="curve"/>
      <point x="-240.5" y="1631.28"/>
      <point x="-161.781" y="1567.5"/>
      <point x="4.50201" y="1567.5" type="curve" smooth="yes"/>
      <point x="170.785" y="1567.5"/>
      <point x="250.5" y="1632.23"/>
      <point x="250.5" y="1762.71" type="curve"/>
      <point x="250.5" y="1764.5"/>
      <point x="250.5" y="1784.82"/>
      <point x="250.5" y="1787" type="curve"/>
    </contour>
  </outline>
</glyph>
<glyph name="matraO.dv" format="2">
  <advance width="659"/>
  <unicode hex="094B"/>
  <outline>
    <contour>
      <point x="434.5" y="0" type="line"/>
      <point x="224.5" y="0" type="line"/>
      <point x="224.5" y="1145.5" type="line"/>
      <point x="434.5" y="1145.5" type="line"/>
    </contour>
    <contour>
      <point x="709" y="1092.5" type="line"/>
      <point x="-36" y="1092.5" type="line"/>
      <point x="-50" y="1248" type="line"/>
      <point x="695" y="1248" type="line"/>
    </contour>
    <contour>
      <point x="-599.5" y="1798" type="line"/>
      <point x="-318.707" y="1798" type="line"/>
      <point x="-172.627" y="1687.32"/>
      <point x="276.196" y="1347.28"/>
      <point x="414.5" y="1242.5" type="curve"/>
      <point x="414.5" y="1217.5" type="line"/>
      <point x="211" y="1217.5" type="line"/>
      <point x="211" y="1253" type="line"/>
      <point x="6.10895" y="1338"/>
      <point x="-113.604" y="1412.61"/>
      <point x="-294" y="1546" type="curve" smooth="yes"/>
      <point x="-599.5" y="1771.9" type="line"/>
    </contour>
  </outline>
</glyph>
<glyph name="Halant.dv" format="2">
  <unicode hex="094D"/>
  <anchor x="-332" y="23" name="_bottom2"/>
  <outline>
    <contour>
      <point x="-471.5" y="-146" type="line"/>
      <point x="-220.651" y="-146" type="line"/>
      <point x="207" y="-598" type="line"/>
      <point x="207" y="-608" type="line"/>
      <point x="-13.5" y="-608" type="line"/>
      <point x="-471.5" y="-166.5" type="line"/>
    </contour>
  </outline>
</glyph>
<glyph name="uni094F" format="2">
  <advance width="659"/>
  <unicode hex="094F"/>
  <outline>
    <contour>
      <point x="-655.5" y="1633" type="curve" smooth="yes"/>
      <point x="-655.5" y="1663.35"/>
      <point x="-651.192" y="1690.11"/>
      <point x="-644" y="1711" type="curve"/>
      <point x="-477.5" y="1711" type="line"/>
      <point x="-477.5" y="1686.13" type="line" smooth="yes"/>
      <point x="-477.5" y="1582.2"/>
      <point x="-408.659" y="1550.41"/>
      <point x="-248.548" y="1536.4" type="curve" smooth="yes"/>
      <point x="-55.5" y="1519.5" type="line" smooth="yes"/>
      <point x="159.039" y="1500.72"/>
      <point x="239.751" y="1445.62"/>
      <point x="284.5" y="1370" type="curve"/>
      <point x="291" y="1372" type="line"/>
      <point x="276.752" y="1501.44"/>
      <point x="228.387" y="1555.43"/>
      <point x="56" y="1615.39" type="curve" smooth="yes"/>
      <point x="-99.5" y="1669.48" type="line" smooth="yes"/>
      <point x="-281.802" y="1732.9"/>
      <point x="-343" y="1807.6"/>
      <point x="-343" y="1925.43" type="curve" smooth="yes"/>
      <point x="-343" y="1956.53"/>
      <point x="-337.568" y="1987.23"/>
      <point x="-328.5" y="2012.5" type="curve"/>
      <point x="-156" y="2011.5" type="line"/>
      <point x="-156" y="1988" type="line" smooth="yes"/>
      <point x="-156" y="1889.65"/>
      <point x="-112.877" y="1847.35"/>
      <point x="12.5" y="1800.5" type="curve" smooth="yes"/>
      <point x="153" y="1748" type="line" smooth="yes"/>
      <point x="368.291" y="1667.55"/>
      <point x="424" y="1546.43"/>
      <point x="424" y="1312" type="curve" smooth="yes"/>
      <point x="424" y="1224.5" type="line"/>
      <point x="228.5" y="1224.5" type="line"/>
      <point x="228.5" y="1243" type="line" smooth="yes"/>
      <point x="228.5" y="1304.11"/>
      <point x="170.03" y="1354.21"/>
      <point x="-49.5" y="1370" type="curve" smooth="yes"/>
      <point x="-272" y="1386" type="line" smooth="yes"/>
      <point x="-537.74" y="1405.11"/>
      <point x="-655.5" y="1468.79"/>
    </contour>
    <contour>
      <point x="434.5" y="0" type="line"/>
      <point x="224.5" y="0" type="line"/>
      <point x="224.5" y="1145.5" type="line"/>
      <point x="434.5" y="1145.5" type="line"/>
    </contour>
    <contour>
      <point x="709" y="1092.5" type="line"/>
      <point x="-36" y="1092.5" type="line"/>
      <point x="-50" y="1248" type="line"/>
      <point x="695" y="1248" type="line"/>
    </contour>
  </outline>
</glyph>
<glyph name="Udatta.dv" format="2">
  <unicode hex="0951"/>
  <anchor x="-329.5" y="1217.5" name="_top"/>
  <outline>
    <contour>
      <point x="-422" y="1438" type="line"/>
      <point x="-422" y="1965" type="line"/>
      <point x="-240.5" y="1965" type="line"/>
      <point x="-240.5" y="1438" type="line"/>
    </contour>
  </outline>
</glyph>
<glyph name="Anudatta.dv" format="2">
  <unicode hex="0952"/>
  <anchor x="-224.5" y="23" name="_bottom3"/>
  <outline>
    <contour>
      <point x="-1285" y="-466" type="line"/>
      <point x="-1300.5" y="-300.5" type="line"/>
      <point x="-230" y="-300.5" type="line"/>
      <point x="-213.5" y="-466" type="line"/>
    </contour>
  </outline>
  <guideline angle="90" x="-151" y="0"/>
  <guideline angle="0" x="0" y="9"/>
</glyph>
<glyph name="uni0953" format="2">
  <unicode hex="0953"/>
  <anchor x="-329.5" y="1217.5" name="_top"/>
  <outline>
    <contour>
      <point x="-472" y="1406" type="line"/>
      <point x="-868.5" y="1783.5" type="line"/>
      <point x="-868.5" y="1797" type="line"/>
      <point x="-620.5" y="1797" type="line"/>
      <point x="-261" y="1415.5" type="line"/>
      <point x="-261" y="1406" type="line"/>
    </contour>
  </outline>
</glyph>
<glyph name="uni0956" format="2">
  <unicode hex="0956"/>
  <anchor x="-329.5" y="42.5" name="_bottom5"/>
  <outline>
    <contour>
      <point x="-324.5" y="-463" type="curve" smooth="yes"/>
      <point x="-524.657" y="-463"/>
      <point x="-693.971" y="-427.548"/>
      <point x="-814.474" y="-364.805" type="curve"/>
      <point x="-827.5" y="-181" type="line"/>
      <point x="-685.408" y="-252.585"/>
      <point x="-519.01" y="-292"/>
      <point x="-325.5" y="-292" type="curve" smooth="yes"/>
      <point x="-131.99" y="-292"/>
      <point x="34.4076" y="-252.585"/>
      <point x="176.5" y="-181" type="curve"/>
      <point x="163.526" y="-364.805" type="line"/>
      <point x="40.51" y="-426.548"/>
      <point x="-125.139" y="-463"/>
    </contour>
  </outline>
</glyph>
<glyph name="uni0957" format="2">
  <unicode hex="0957"/>
  <anchor x="-329.5" y="42.5" name="_bottom5"/>
  <outline>
    <contour>
      <point x="-324.5" y="-433" type="curve" smooth="yes"/>
      <point x="-524.657" y="-433"/>
      <point x="-693.971" y="-397.548"/>
      <point x="-814.474" y="-334.805" type="curve"/>
      <point x="-827.5" y="-151" type="line"/>
      <point x="-685.408" y="-222.585"/>
      <point x="-519.01" y="-262"/>
      <point x="-325.5" y="-262" type="curve" smooth="yes"/>
      <point x="-131.99" y="-262"/>
      <point x="34.4076" y="-222.585"/>
      <point x="176.5" y="-151" type="curve"/>
      <point x="163.526" y="-334.805" type="line"/>
      <point x="40.51" y="-396.548"/>
      <point x="-125.139" y="-433"/>
    </contour>
    <contour>
      <point x="-324.5" y="-784" type="curve" smooth="yes"/>
      <point x="-524.657" y="-784"/>
      <point x="-693.971" y="-748.548"/>
      <point x="-814.474" y="-685.805" type="curve"/>
      <point x="-827.5" y="-502" type="line"/>
      <point x="-685.408" y="-573.585"/>
      <point x="-519.01" y="-613"/>
      <point x="-325.5" y="-613" type="curve" smooth="yes"/>
      <point x="-131.99" y="-613"/>
      <point x="34.4076" y="-573.585"/>
      <point x="176.5" y="-502" type="curve"/>
      <point x="163.526" y="-685.805" type="line"/>
      <point x="40.51" y="-747.548"/>
      <point x="-125.139" y="-784"/>
    </contour>
  </outline>
  <guideline angle="90" x="-169" y="0"/>
  <guideline angle="0" x="0" y="9"/>
</glyph>
<glyph name="GaNukta.dv" format="2">
  <advance width="1570"/>
  <unicode hex="095A"/>
  <anchor x="1241" y="23" name="bottom"/>
  <anchor x="1236" y="23" name="bottom2"/>
  <anchor x="1345.5" y="23" name="bottom3"/>
  <anchor x="1240.5" y="42.5" name="bottom5"/>
  <anchor x="1240.5" y="1217.5" name="top"/>
  <outline>
    <contour>
      <point x="1514" y="1093" type="line"/>
      <point x="-36" y="1093" type="line"/>
      <point x="-50" y="1248" type="line"/>
      <point x="1500" y="1248" type="line"/>
    </contour>
    <contour>
      <point x="302" y="1118" type="curve"/>
      <point x="555.26" y="1118" type="line"/>
      <point x="670.415" y="1043.94"/>
      <point x="737" y="916.11"/>
      <point x="737" y="770.395" type="curve" smooth="yes"/>
      <point x="737" y="762.997" type="line" smooth="yes"/>
      <point x="737" y="511.084"/>
      <point x="570.011" y="368"/>
      <point x="266.822" y="368" type="curve" smooth="yes"/>
      <point x="196.905" y="368"/>
      <point x="132.815" y="375.905"/>
      <point x="90" y="388" type="curve"/>
      <point x="73" y="574" type="line"/>
      <point x="117.702" y="564.043"/>
      <point x="176.382" y="557"/>
      <point x="231.444" y="557" type="curve" smooth="yes"/>
      <point x="433.373" y="557"/>
      <point x="519" y="635.161"/>
      <point x="519" y="782.705" type="curve" smooth="yes"/>
      <point x="519" y="789.954" type="line" smooth="yes"/>
      <point x="519" y="927.221"/>
      <point x="445.369" y="1037.22"/>
    </contour>
    <contour>
      <point x="1345.5" y="1145.5" type="line"/>
      <point x="1345.5" y="0" type="line"/>
      <point x="1135.5" y="0" type="line"/>
      <point x="1135.5" y="1145.5" type="line"/>
    </contour>
    <contour>
      <point x="1012" y="1092.5" type="line"/>
      <point x="998" y="1248" type="line"/>
      <point x="1606" y="1248" type="line"/>
      <point x="1620" y="1092.5" type="line"/>
    </contour>
    <contour>
      <point x="363.5" y="-70.5" type="curve" smooth="yes"/>
      <point x="273.5" y="-70.5"/>
      <point x="225.5" y="-22"/>
      <point x="225.5" y="48.5" type="curve"/>
      <point x="225.5" y="49.6048"/>
      <point x="225.5" y="52.543"/>
      <point x="225.5" y="53.5" type="curve"/>
      <point x="225.5" y="126.5"/>
      <point x="273.5" y="174"/>
      <point x="363.5" y="174" type="curve" smooth="yes"/>
      <point x="453.5" y="174"/>
      <point x="500.5" y="125.5"/>
      <point x="500.5" y="53.5" type="curve"/>
      <point x="500.5" y="52.3952"/>
      <point x="500.5" y="49.457"/>
      <point x="500.5" y="48.5" type="curve"/>
      <point x="500.5" y="-22.5"/>
      <point x="453" y="-70.5"/>
    </contour>
  </outline>
</glyph>
<glyph name="DdaNukta.dv" format="2">
  <advance width="1461"/>
  <unicode hex="095C"/>
  <anchor x="787" y="-542" name="bottom"/>
  <anchor x="739" y="-390" name="bottom2"/>
  <anchor x="1293.5" y="-17" name="bottom3"/>
  <anchor x="750.5" y="-3" name="bottom5"/>
  <anchor x="1135.5" y="1217.5" name="top"/>
  <outline>
    <contour>
      <point x="908.5" y="1093.5" type="line"/>
      <point x="894.5" y="1248" type="line"/>
      <point x="1476" y="1248" type="line"/>
      <point x="1490" y="1093.5" type="line"/>
    </contour>
    <contour>
      <point x="1240.5" y="1145.5" type="line"/>
      <point x="1240.5" y="912.5" type="line"/>
      <point x="1037" y="912.5" type="line"/>
      <point x="1037" y="1145.5" type="line"/>
    </contour>
    <contour>
      <point x="1497" y="1093" type="line"/>
      <point x="-26" y="1093" type="line"/>
      <point x="-40" y="1248" type="line"/>
      <point x="1483" y="1248" type="line"/>
    </contour>
    <contour>
      <point x="1037" y="1153" type="line"/>
      <point x="1241" y="1153" type="line"/>
      <point x="1241" y="734" type="line"/>
      <point x="1205.92" y="739.675"/>
      <point x="1073.14" y="761.154"/>
      <point x="1037" y="767" type="curve"/>
    </contour>
    <contour>
      <point x="125" y="269" type="line"/>
      <point x="304.639" y="174"/>
      <point x="505.235" y="122"/>
      <point x="731.779" y="122" type="curve" smooth="yes"/>
      <point x="1030.41" y="122"/>
      <point x="1119" y="166.724"/>
      <point x="1119" y="262.979" type="curve" smooth="yes"/>
      <point x="1119" y="266.922" type="line" smooth="yes"/>
      <point x="1119" y="348.152"/>
      <point x="1052.37" y="401"/>
      <point x="829.597" y="401" type="curve" smooth="yes"/>
      <point x="659.947" y="401"/>
      <point x="530.214" y="375"/>
      <point x="410.461" y="338" type="curve"/>
      <point x="242.809" y="396.202"/>
      <point x="149" y="484.18"/>
      <point x="149" y="617.672" type="curve" smooth="yes"/>
      <point x="149" y="624.725" type="line" smooth="yes"/>
      <point x="149" y="809.736"/>
      <point x="288" y="926"/>
      <point x="726" y="926" type="curve" smooth="yes"/>
      <point x="909" y="926"/>
      <point x="1053" y="916"/>
      <point x="1241" y="889" type="curve"/>
      <point x="1241" y="734" type="line"/>
      <point x="1085.35" y="756"/>
      <point x="927.714" y="766"/>
      <point x="767.08" y="766" type="curve" smooth="yes"/>
      <point x="451.579" y="766"/>
      <point x="363" y="708.419"/>
      <point x="363" y="624.572" type="curve" smooth="yes"/>
      <point x="363" y="620.502" type="line" smooth="yes"/>
      <point x="363" y="568.611"/>
      <point x="390.61" y="533"/>
      <point x="445.829" y="508" type="curve"/>
      <point x="558.597" y="542"/>
      <point x="688.329" y="566"/>
      <point x="849.996" y="566" type="curve" smooth="yes"/>
      <point x="1210.25" y="566"/>
      <point x="1333" y="439.825"/>
      <point x="1333" y="265.961" type="curve" smooth="yes"/>
      <point x="1333" y="260.994" type="line" smooth="yes"/>
      <point x="1333" y="72.2273"/>
      <point x="1189" y="-46"/>
      <point x="762" y="-46" type="curve" smooth="yes"/>
      <point x="498" y="-46"/>
      <point x="294" y="0"/>
      <point x="142" y="76" type="curve"/>
    </contour>
    <contour>
      <point x="732" y="-421" type="curve" smooth="yes"/>
      <point x="642" y="-421"/>
      <point x="594" y="-372.5"/>
      <point x="594" y="-302" type="curve"/>
      <point x="594" y="-300.895"/>
      <point x="594" y="-297.957"/>
      <point x="594" y="-297" type="curve"/>
      <point x="594" y="-224"/>
      <point x="642" y="-176.5"/>
      <point x="732" y="-176.5" type="curve" smooth="yes"/>
      <point x="822" y="-176.5"/>
      <point x="869" y="-225"/>
      <point x="869" y="-297" type="curve"/>
      <point x="869" y="-298.105"/>
      <point x="869" y="-301.043"/>
      <point x="869" y="-302" type="curve"/>
      <point x="869" y="-373"/>
      <point x="821.5" y="-421"/>
    </contour>
  </outline>
  <guideline angle="0" x="0" y="22"/>
  <guideline angle="0" x="0" y="545"/>
  <guideline angle="90" x="275" y="0"/>
  <guideline angle="90" x="518" y="0"/>
  <guideline angle="0" x="0" y="43"/>
  <guideline angle="90" x="974" y="0"/>
</glyph>
<glyph name="DdhaNukta.dv" format="2">
  <advance width="1566"/>
  <unicode hex="095D"/>
  <anchor x="875" y="-542" name="bottom"/>
  <anchor x="834" y="-390" name="bottom2"/>
  <anchor x="1361" y="-16" name="bottom3"/>
  <anchor x="817" y="4" name="bottom5"/>
  <anchor x="1223.5" y="1217.5" name="top"/>
  <outline>
    <contour>
      <point x="996.5" y="1093.5" type="line"/>
      <point x="982.5" y="1248" type="line"/>
      <point x="1564" y="1248" type="line"/>
      <point x="1578" y="1093.5" type="line"/>
    </contour>
    <contour>
      <point x="1328.5" y="1145.5" type="line"/>
      <point x="1328.5" y="912.5" type="line"/>
      <point x="1125" y="912.5" type="line"/>
      <point x="1125" y="1145.5" type="line"/>
    </contour>
    <contour>
      <point x="-29" y="1093" type="line"/>
      <point x="-43" y="1248" type="line"/>
      <point x="1607" y="1248" type="line"/>
      <point x="1621" y="1093" type="line"/>
    </contour>
    <contour>
      <point x="1125" y="1151" type="line"/>
      <point x="1329" y="1151" type="line"/>
      <point x="1329" y="703" type="line"/>
      <point x="1125" y="778" type="line"/>
    </contour>
    <contour>
      <point x="132" y="447" type="line" smooth="yes"/>
      <point x="132" y="743.676"/>
      <point x="354.373" y="895"/>
      <point x="841" y="895" type="curve" smooth="yes"/>
      <point x="1003.67" y="895"/>
      <point x="1146.25" y="885"/>
      <point x="1329" y="859" type="curve"/>
      <point x="1329" y="703" type="line"/>
      <point x="1162" y="728.667"/>
      <point x="1020" y="735"/>
      <point x="870" y="735" type="curve" smooth="yes"/>
      <point x="507" y="735"/>
      <point x="346" y="636.02"/>
      <point x="346" y="444" type="curve" smooth="yes"/>
      <point x="346" y="434" type="line" smooth="yes"/>
      <point x="346" y="241.4"/>
      <point x="508" y="114"/>
      <point x="879" y="114" type="curve" smooth="yes"/>
      <point x="1138" y="114"/>
      <point x="1247" y="174.587"/>
      <point x="1247" y="262" type="curve" smooth="yes"/>
      <point x="1247" y="266" type="line" smooth="yes"/>
      <point x="1247" y="333.393"/>
      <point x="1191.44" y="377"/>
      <point x="1050" y="377" type="curve" smooth="yes"/>
      <point x="917.307" y="377"/>
      <point x="847" y="333.373"/>
      <point x="847" y="260" type="curve" smooth="yes"/>
      <point x="847" y="255" type="line" smooth="yes"/>
      <point x="847" y="192.432"/>
      <point x="896" y="142.781"/>
      <point x="1008" y="111" type="curve"/>
      <point x="822" y="105" type="line"/>
      <point x="822" y="123" type="line"/>
      <point x="704.143" y="159.794"/>
      <point x="657" y="216.472"/>
      <point x="657" y="301" type="curve" smooth="yes"/>
      <point x="657" y="306" type="line" smooth="yes"/>
      <point x="657" y="438.592"/>
      <point x="782.359" y="530"/>
      <point x="1048" y="530" type="curve" smooth="yes"/>
      <point x="1313.33" y="530"/>
      <point x="1447" y="427.215"/>
      <point x="1447" y="268" type="curve" smooth="yes"/>
      <point x="1447" y="260" type="line" smooth="yes"/>
      <point x="1447" y="79.6033"/>
      <point x="1252" y="-39"/>
      <point x="863" y="-39" type="curve" smooth="yes"/>
      <point x="399" y="-39"/>
      <point x="132" y="135.734"/>
      <point x="132" y="437" type="curve" smooth="yes"/>
    </contour>
    <contour>
      <point x="836" y="-421" type="curve" smooth="yes"/>
      <point x="746" y="-421"/>
      <point x="698" y="-372.5"/>
      <point x="698" y="-302" type="curve"/>
      <point x="698" y="-300.895"/>
      <point x="698" y="-297.957"/>
      <point x="698" y="-297" type="curve"/>
      <point x="698" y="-224"/>
      <point x="746" y="-176.5"/>
      <point x="836" y="-176.5" type="curve" smooth="yes"/>
      <point x="926" y="-176.5"/>
      <point x="973" y="-225"/>
      <point x="973" y="-297" type="curve"/>
      <point x="973" y="-298.105"/>
      <point x="973" y="-301.043"/>
      <point x="973" y="-302" type="curve"/>
      <point x="973" y="-373"/>
      <point x="925.5" y="-421"/>
    </contour>
  </outline>
  <guideline angle="0" x="0" y="9"/>
  <guideline angle="0" x="0" y="30"/>
  <guideline angle="90" x="1062" y="0"/>
</glyph>
<glyph name="PhaNukta.dv" format="2">
  <advance width="2175"/>
  <unicode hex="095E"/>
  <anchor x="1103" y="23" name="bottom"/>
  <anchor x="1098" y="23" name="bottom2"/>
  <anchor x="1642" y="23" name="bottom3"/>
  <anchor x="1102.5" y="42.5" name="bottom5"/>
  <anchor x="1102.5" y="1217.5" name="top"/>
  <outline>
    <contour>
      <point x="-36" y="1092.5" type="line"/>
      <point x="-50" y="1248" type="line"/>
      <point x="2210" y="1248" type="line"/>
      <point x="2224" y="1092.5" type="line"/>
    </contour>
    <contour>
      <point x="635" y="285.5" type="curve" smooth="yes"/>
      <point x="349.7" y="285.5"/>
      <point x="184" y="425.943"/>
      <point x="184" y="752.5" type="curve" smooth="yes"/>
      <point x="184" y="1142.5" type="line"/>
      <point x="394" y="1142.5" type="line"/>
      <point x="394" y="765.5" type="line" smooth="yes"/>
      <point x="394" y="541"/>
      <point x="497.068" y="458"/>
      <point x="688.5" y="458" type="curve" smooth="yes"/>
      <point x="867.05" y="458"/>
      <point x="960.654" y="531"/>
      <point x="1003" y="639" type="curve"/>
      <point x="1006" y="477" type="line"/>
      <point x="988" y="477" type="line"/>
      <point x="946.67" y="371.294"/>
      <point x="834.316" y="285.5"/>
    </contour>
    <contour>
      <point x="1549.05" y="737.5" type="curve" smooth="yes"/>
      <point x="1372.77" y="737.5"/>
      <point x="1251.08" y="657"/>
      <point x="1198.5" y="532.5" type="curve"/>
      <point x="1200.5" y="700.5" type="line"/>
      <point x="1218" y="700.5" type="line"/>
      <point x="1266.8" y="820.723"/>
      <point x="1404.72" y="906"/>
      <point x="1602" y="906" type="curve" smooth="yes"/>
      <point x="1887.76" y="906"/>
      <point x="2049" y="746.414"/>
      <point x="2049" y="520.5" type="curve" smooth="yes"/>
      <point x="2049" y="511.5" type="line" smooth="yes"/>
      <point x="2049" y="268.866"/>
      <point x="1887.35" y="129"/>
      <point x="1604.5" y="129" type="curve" smooth="yes"/>
      <point x="1524.48" y="129"/>
      <point x="1455.74" y="139.422"/>
      <point x="1401" y="158" type="curve"/>
      <point x="1387" y="325.5" type="line"/>
      <point x="1436.96" y="307"/>
      <point x="1500.68" y="294"/>
      <point x="1564.4" y="294" type="curve" smooth="yes"/>
      <point x="1736" y="294"/>
      <point x="1832.5" y="369.134"/>
      <point x="1832.5" y="514" type="curve" smooth="yes"/>
      <point x="1832.5" y="519" type="line" smooth="yes"/>
      <point x="1832.5" y="654.144"/>
      <point x="1740.03" y="737.5"/>
    </contour>
    <contour>
      <point x="1207.5" y="1145.5" type="line"/>
      <point x="1207.5" y="0" type="line"/>
      <point x="997.5" y="0" type="line"/>
      <point x="997.5" y="1145.5" type="line"/>
    </contour>
    <contour>
      <point x="363.5" y="-115.5" type="curve" smooth="yes"/>
      <point x="273.5" y="-115.5"/>
      <point x="225.5" y="-67"/>
      <point x="225.5" y="3.5" type="curve"/>
      <point x="225.5" y="4.6048"/>
      <point x="225.5" y="7.543"/>
      <point x="225.5" y="8.5" type="curve"/>
      <point x="225.5" y="81.5"/>
      <point x="273.5" y="129"/>
      <point x="363.5" y="129" type="curve" smooth="yes"/>
      <point x="453.5" y="129"/>
      <point x="500.5" y="80.5"/>
      <point x="500.5" y="8.5" type="curve"/>
      <point x="500.5" y="7.3952"/>
      <point x="500.5" y="4.457"/>
      <point x="500.5" y="3.5" type="curve"/>
      <point x="500.5" y="-67.5"/>
      <point x="453" y="-115.5"/>
    </contour>
  </outline>
  <guideline angle="90" x="178" y="0"/>
  <guideline angle="0" x="0" y="-101"/>
  <guideline angle="90" x="389" y="0"/>
  <guideline angle="0" x="0" y="9"/>
  <guideline angle="90" x="501" y="0"/>
  <guideline angle="0" x="0" y="9"/>
  <guideline angle="90" x="506" y="0"/>
  <guideline angle="90" x="489" y="0"/>
  <guideline angle="0" x="0" y="1262"/>
  <guideline angle="90" x="524" y="0"/>
  <guideline angle="0" x="0" y="30"/>
</glyph>
<glyph name="vowelRuu.dv" format="2">
  <advance width="2204"/>
  <unicode hex="0960"/>
  <anchor x="1671.5" y="23" name="bottom3"/>
  <anchor x="1130.5" y="42.5" name="bottom5"/>
  <anchor x="1130.5" y="1217.5" name="top"/>
  <outline>
    <contour>
      <point x="1236" y="-1" type="line"/>
      <point x="1026" y="-1" type="line"/>
      <point x="1026" y="1149" type="line"/>
      <point x="1236" y="1149" type="line"/>
    </contour>
    <contour>
      <point x="1057" y="338" type="line"/>
      <point x="123" y="39" type="line"/>
      <point x="123" y="224" type="line"/>
      <point x="546" y="352" type="line"/>
      <point x="560" y="345" type="line"/>
      <point x="632" y="374.821"/>
      <point x="710.905" y="403.946"/>
      <point x="780" y="425.518" type="curve" smooth="yes"/>
      <point x="1057" y="512" type="line"/>
    </contour>
    <contour>
      <point x="639" y="353" type="line"/>
      <point x="401" y="306" type="line"/>
      <point x="527" y="363.861"/>
      <point x="581" y="439.691"/>
      <point x="581" y="552.436" type="curve" smooth="yes"/>
      <point x="581" y="555.429" type="line" smooth="yes"/>
      <point x="581" y="664.176"/>
      <point x="520.21" y="736"/>
      <point x="370" y="736" type="curve" smooth="yes"/>
      <point x="287" y="736"/>
      <point x="199" y="712"/>
      <point x="114" y="672" type="curve"/>
      <point x="129" y="850" type="line"/>
      <point x="201.61" y="884.208"/>
      <point x="297.975" y="905"/>
      <point x="402" y="905" type="curve" smooth="yes"/>
      <point x="652.32" y="905"/>
      <point x="781" y="793"/>
      <point x="781" y="622" type="curve" smooth="yes"/>
      <point x="781" y="616" type="line" smooth="yes"/>
      <point x="781" y="513"/>
      <point x="730" y="436"/>
      <point x="633" y="385" type="curve"/>
    </contour>
    <contour>
      <point x="2250" y="1093.5" type="line"/>
      <point x="-35.5" y="1093.5" type="line"/>
      <point x="-49.5" y="1248" type="line"/>
      <point x="2236" y="1248" type="line"/>
    </contour>
    <contour>
      <point x="1775" y="725" type="line"/>
      <point x="1823" y="571" type="line"/>
      <point x="1211" y="378" type="line"/>
      <point x="1211" y="552" type="line"/>
    </contour>
    <contour>
      <point x="1838.5" y="909.5" type="line"/>
      <point x="1870.5" y="835.848"/>
      <point x="1891.5" y="762.37"/>
      <point x="1904" y="677.054" type="curve"/>
      <point x="1818.48" y="580.5" type="line"/>
      <point x="1623.5" y="559" type="line"/>
      <point x="1623.5" y="909.5" type="line"/>
    </contour>
    <contour>
      <point x="1899" y="-135" type="curve" smooth="yes"/>
      <point x="1666.8" y="-135"/>
      <point x="1522.5" y="-32.5667"/>
      <point x="1522.5" y="136.481" type="curve" smooth="yes"/>
      <point x="1522.5" y="142.955" type="line" smooth="yes"/>
      <point x="1522.5" y="298.079"/>
      <point x="1636.94" y="378.397"/>
      <point x="1860.5" y="389.5" type="curve"/>
      <point x="1860.5" y="397.5" type="line"/>
      <point x="1757.32" y="437.499"/>
      <point x="1691.65" y="490.799"/>
      <point x="1631" y="578.5" type="curve"/>
      <point x="1806.5" y="644.5" type="line"/>
      <point x="1854.86" y="546.091"/>
      <point x="1974.63" y="458.461"/>
      <point x="2092" y="412" type="curve"/>
      <point x="2092" y="275" type="line"/>
      <point x="1805.09" y="275"/>
      <point x="1721" y="234.634"/>
      <point x="1721" y="148.038" type="curve" smooth="yes"/>
      <point x="1721" y="144.099" type="line" smooth="yes"/>
      <point x="1721" y="66.7679"/>
      <point x="1791.4" y="24.5"/>
      <point x="1923" y="24.5" type="curve" smooth="yes"/>
      <point x="2009.4" y="24.5"/>
      <point x="2084.73" y="41.5"/>
      <point x="2159" y="74" type="curve"/>
      <point x="2146.5" y="-86.5362" type="line"/>
      <point x="2084.25" y="-117.454"/>
      <point x="1998.4" y="-135"/>
    </contour>
  </outline>
  <guideline angle="90" x="511" y="0"/>
</glyph>
<glyph name="vowelLruu.dv" format="2">
  <advance width="1856"/>
  <unicode hex="0961"/>
  <anchor x="1511" y="-462" name="bottom3"/>
  <anchor x="1340.5" y="1217.5" name="top"/>
  <outline>
    <contour>
      <point x="1726" y="511" type="line"/>
      <point x="1726" y="494.624" type="line" smooth="yes"/>
      <point x="1726" y="356.817"/>
      <point x="1674.59" y="274.211"/>
      <point x="1546.81" y="183.173" type="curve" smooth="yes"/>
      <point x="1418.74" y="91.9236"/>
      <point x="1360.5" y="60.8316"/>
      <point x="1360.5" y="-2.77059" type="curve" smooth="yes"/>
      <point x="1360.5" y="-56.0529"/>
      <point x="1416.74" y="-86.5"/>
      <point x="1523.5" y="-86.5" type="curve" smooth="yes"/>
      <point x="1615.55" y="-86.5"/>
      <point x="1703.03" y="-64.5"/>
      <point x="1776" y="-21" type="curve"/>
      <point x="1761" y="-189" type="line"/>
      <point x="1696.28" y="-225"/>
      <point x="1603.32" y="-245"/>
      <point x="1506" y="-245" type="curve" smooth="yes"/>
      <point x="1290.67" y="-245"/>
      <point x="1152.5" y="-148.475"/>
      <point x="1152.5" y="1.85343" type="curve" smooth="yes"/>
      <point x="1152.5" y="108.199"/>
      <point x="1203.53" y="177.332"/>
      <point x="1355.37" y="278" type="curve" smooth="yes"/>
      <point x="1468.79" y="353.189"/>
      <point x="1508" y="406.594"/>
      <point x="1508" y="483.272" type="curve" smooth="yes"/>
      <point x="1508" y="497.5" type="line"/>
    </contour>
    <contour>
      <point x="1469.5" y="-239" type="line"/>
      <point x="1392.01" y="-251.127"/>
      <point x="1351" y="-284.412"/>
      <point x="1351" y="-334.485" type="curve" smooth="yes"/>
      <point x="1351" y="-392.503"/>
      <point x="1404.13" y="-428.5"/>
      <point x="1524.5" y="-428.5" type="curve" smooth="yes"/>
      <point x="1618.74" y="-428.5"/>
      <point x="1706.4" y="-405.5"/>
      <point x="1783.5" y="-362" type="curve"/>
      <point x="1769.5" y="-529.5" type="line"/>
      <point x="1706.86" y="-566.883"/>
      <point x="1614.51" y="-588.5"/>
      <point x="1506.5" y="-588.5" type="curve" smooth="yes"/>
      <point x="1296.5" y="-588.5"/>
      <point x="1159.5" y="-506.129"/>
      <point x="1159.5" y="-370.859" type="curve" smooth="yes"/>
      <point x="1159.5" y="-291.198"/>
      <point x="1208.1" y="-242.449"/>
      <point x="1303.5" y="-218.5" type="curve"/>
      <point x="1304.5" y="-200" type="line"/>
    </contour>
    <contour>
      <point x="1113.5" y="1093.5" type="line"/>
      <point x="1099.5" y="1248" type="line"/>
      <point x="1681" y="1248" type="line"/>
      <point x="1695" y="1093.5" type="line"/>
    </contour>
    <contour>
      <point x="1445.5" y="1145.5" type="line"/>
      <point x="1445.5" y="912.5" type="line"/>
      <point x="1242" y="912.5" type="line"/>
      <point x="1242" y="1145.5" type="line"/>
    </contour>
    <contour>
      <point x="-36" y="1092.5" type="line"/>
      <point x="-50" y="1248" type="line"/>
      <point x="1891.5" y="1248" type="line"/>
      <point x="1906" y="1092.5" type="line"/>
    </contour>
    <contour>
      <point x="1445.5" y="1129.5" type="line"/>
      <point x="1445.5" y="833" type="line"/>
      <point x="1242" y="833" type="line"/>
      <point x="1242" y="1129.5" type="line"/>
    </contour>
    <contour>
      <point x="134.5" y="448" type="curve" smooth="yes"/>
      <point x="134.5" y="456" type="line" smooth="yes"/>
      <point x="134.5" y="702.806"/>
      <point x="304.687" y="866"/>
      <point x="581.511" y="866" type="curve" smooth="yes"/>
      <point x="792.803" y="866"/>
      <point x="901.43" y="776.285"/>
      <point x="935" y="637.5" type="curve"/>
      <point x="943.5" y="637.5" type="line"/>
      <point x="979.33" y="777.331"/>
      <point x="1103.34" y="866"/>
      <point x="1309.27" y="866" type="curve" smooth="yes"/>
      <point x="1576.56" y="866"/>
      <point x="1726" y="711.569"/>
      <point x="1726" y="508" type="curve" smooth="yes"/>
      <point x="1726" y="500" type="line"/>
      <point x="1508" y="485" type="line"/>
      <point x="1508" y="492" type="line" smooth="yes"/>
      <point x="1508" y="618.735"/>
      <point x="1434.3" y="695.5"/>
      <point x="1284.11" y="695.5" type="curve" smooth="yes"/>
      <point x="1141.91" y="695.5"/>
      <point x="1053.06" y="611.056"/>
      <point x="1047.98" y="454.5" type="curve" smooth="yes"/>
      <point x="1042" y="270.5" type="line"/>
      <point x="839" y="270.5" type="line"/>
      <point x="832.527" y="454.5" type="line" smooth="yes"/>
      <point x="827.037" y="610.542"/>
      <point x="751.976" y="695.5"/>
      <point x="607.173" y="695.5" type="curve" smooth="yes"/>
      <point x="453.898" y="695.5"/>
      <point x="353.5" y="601.327"/>
      <point x="353.5" y="447.5" type="curve" smooth="yes"/>
      <point x="353.5" y="440.5" type="line" smooth="yes"/>
      <point x="353.5" y="268.208"/>
      <point x="455.5" y="137.105"/>
      <point x="646.5" y="5.49999" type="curve"/>
      <point x="646.5" y="0" type="line"/>
      <point x="375.459" y="0" type="line"/>
      <point x="220.457" y="115.448"/>
      <point x="134.5" y="268.197"/>
    </contour>
  </outline>
  <guideline angle="90" x="1179" y="0"/>
</glyph>
<glyph name="matraLru.dv" format="2">
  <unicode hex="0962"/>
  <outline>
    <contour>
      <point x="-46" y="-231.5" type="line"/>
      <point x="-46" y="-236.266" type="line" smooth="yes"/>
      <point x="-46" y="-336.472"/>
      <point x="-85.6185" y="-395.297"/>
      <point x="-174.247" y="-465.366" type="curve" smooth="yes"/>
      <point x="-260.918" y="-533.886"/>
      <point x="-301.5" y="-557.263"/>
      <point x="-301.5" y="-602.2" type="curve" smooth="yes"/>
      <point x="-301.5" y="-640.991"/>
      <point x="-261.974" y="-659"/>
      <point x="-197" y="-659" type="curve" smooth="yes"/>
      <point x="-135.709" y="-659"/>
      <point x="-84.0425" y="-642.5"/>
      <point x="-42" y="-615" type="curve"/>
      <point x="-52" y="-765.371" type="line"/>
      <point x="-95" y="-789.733"/>
      <point x="-148.715" y="-802"/>
      <point x="-223.32" y="-802" type="curve" smooth="yes"/>
      <point x="-373.214" y="-802"/>
      <point x="-472.5" y="-724.489"/>
      <point x="-472.5" y="-602.431" type="curve" smooth="yes"/>
      <point x="-472.5" y="-513.356"/>
      <point x="-430.371" y="-459.767"/>
      <point x="-337.5" y="-385.536" type="curve" smooth="yes"/>
      <point x="-264.778" y="-327.41"/>
      <point x="-234" y="-295.718"/>
      <point x="-234" y="-245.337" type="curve"/>
      <point x="-234" y="-243.5" type="line"/>
    </contour>
    <contour>
      <point x="-681" y="-383.5" type="line"/>
      <point x="-685.208" y="-258" type="line" smooth="yes"/>
      <point x="-688.39" y="-163.102"/>
      <point x="-734.733" y="-120.5"/>
      <point x="-818.729" y="-120.5" type="curve" smooth="yes"/>
      <point x="-905.548" y="-120.5"/>
      <point x="-965" y="-172.614"/>
      <point x="-965" y="-268" type="curve" smooth="yes"/>
      <point x="-965" y="-272.5" type="line" smooth="yes"/>
      <point x="-965" y="-370"/>
      <point x="-905" y="-464.5"/>
      <point x="-776" y="-560.5" type="curve"/>
      <point x="-1002" y="-560.5" type="line"/>
      <point x="-1099.87" y="-479.73"/>
      <point x="-1156" y="-385.409"/>
      <point x="-1156" y="-261" type="curve" smooth="yes"/>
      <point x="-1156" y="-256" type="line" smooth="yes"/>
      <point x="-1156" y="-84.6741"/>
      <point x="-1032.16" y="25.5"/>
      <point x="-839.519" y="25.5" type="curve" smooth="yes"/>
      <point x="-694.834" y="25.5"/>
      <point x="-625.965" y="-33.3908"/>
      <point x="-600" y="-125" type="curve"/>
      <point x="-593" y="-125" type="line"/>
      <point x="-567.517" y="-32.7553"/>
      <point x="-486.369" y="24.5"/>
      <point x="-343.541" y="24.5" type="curve" smooth="yes"/>
      <point x="-144.22" y="24.5"/>
      <point x="-46" y="-92.1139"/>
      <point x="-46" y="-231.5" type="curve" smooth="yes"/>
      <point x="-46" y="-237" type="line"/>
      <point x="-234" y="-249" type="line"/>
      <point x="-234" y="-242" type="line" smooth="yes"/>
      <point x="-234" y="-170.732"/>
      <point x="-281.814" y="-121.5"/>
      <point x="-368.514" y="-121.5" type="curve" smooth="yes"/>
      <point x="-452.839" y="-121.5"/>
      <point x="-506.862" y="-161.324"/>
      <point x="-510" y="-259" type="curve" smooth="yes"/>
      <point x="-514" y="-383.5" type="line"/>
    </contour>
  </outline>
</glyph>
<glyph name="matraLruu.dv" format="2">
  <unicode hex="0963"/>
  <outline>
    <contour>
      <point x="-45.5" y="-228.5" type="line"/>
      <point x="-45.5" y="-234.339" type="line" smooth="yes"/>
      <point x="-45.5" y="-336.946"/>
      <point x="-87.6294" y="-398.281"/>
      <point x="-179.304" y="-468.295" type="curve" smooth="yes"/>
      <point x="-267.703" y="-535.808"/>
      <point x="-303" y="-559.938"/>
      <point x="-303" y="-599.455" type="curve" smooth="yes"/>
      <point x="-303" y="-635.217"/>
      <point x="-266.804" y="-655"/>
      <point x="-197.658" y="-655" type="curve" smooth="yes"/>
      <point x="-136.992" y="-655"/>
      <point x="-82.6354" y="-638"/>
      <point x="-37.5" y="-608" type="curve"/>
      <point x="-46.2394" y="-754.302" type="line"/>
      <point x="-91.8786" y="-781.929"/>
      <point x="-154.026" y="-794"/>
      <point x="-226.854" y="-794" type="curve" smooth="yes"/>
      <point x="-376.881" y="-794"/>
      <point x="-473.5" y="-719.218"/>
      <point x="-473.5" y="-598.881" type="curve" smooth="yes"/>
      <point x="-473.5" y="-513.731"/>
      <point x="-429.415" y="-457.115"/>
      <point x="-332.178" y="-381.15" type="curve" smooth="yes"/>
      <point x="-273.85" y="-335.582"/>
      <point x="-233.5" y="-298.448"/>
      <point x="-233.5" y="-247.959" type="curve" smooth="yes"/>
      <point x="-233.5" y="-244.5" type="line"/>
    </contour>
    <contour>
      <point x="-225" y="-789.5" type="line"/>
      <point x="-282" y="-800.287"/>
      <point x="-310.5" y="-821.463"/>
      <point x="-310.5" y="-855.823" type="curve" smooth="yes"/>
      <point x="-310.5" y="-896.343"/>
      <point x="-273.936" y="-920.5"/>
      <point x="-192.939" y="-920.5" type="curve" smooth="yes"/>
      <point x="-132.979" y="-920.5"/>
      <point x="-79.7889" y="-905.653"/>
      <point x="-29.5" y="-875" type="curve"/>
      <point x="-36.7838" y="-1016.57" type="line"/>
      <point x="-81.9435" y="-1044.11"/>
      <point x="-144.584" y="-1057.5"/>
      <point x="-219.365" y="-1057.5" type="curve" smooth="yes"/>
      <point x="-368.44" y="-1057.5"/>
      <point x="-467.5" y="-996.556"/>
      <point x="-467.5" y="-897.107" type="curve" smooth="yes"/>
      <point x="-467.5" y="-832.303"/>
      <point x="-434.226" y="-792.597"/>
      <point x="-359.5" y="-773.5" type="curve"/>
      <point x="-360" y="-759" type="line"/>
    </contour>
    <contour>
      <point x="-681" y="-383.5" type="line"/>
      <point x="-685.208" y="-258" type="line" smooth="yes"/>
      <point x="-688.39" y="-163.102"/>
      <point x="-734.733" y="-120.5"/>
      <point x="-818.729" y="-120.5" type="curve" smooth="yes"/>
      <point x="-905.548" y="-120.5"/>
      <point x="-965" y="-172.614"/>
      <point x="-965" y="-268" type="curve" smooth="yes"/>
      <point x="-965" y="-272.5" type="line" smooth="yes"/>
      <point x="-965" y="-370"/>
      <point x="-905" y="-464.5"/>
      <point x="-776" y="-560.5" type="curve"/>
      <point x="-1002" y="-560.5" type="line"/>
      <point x="-1099.87" y="-479.73"/>
      <point x="-1156" y="-385.409"/>
      <point x="-1156" y="-261" type="curve" smooth="yes"/>
      <point x="-1156" y="-256" type="line" smooth="yes"/>
      <point x="-1156" y="-84.6741"/>
      <point x="-1032.16" y="25.5"/>
      <point x="-839.519" y="25.5" type="curve" smooth="yes"/>
      <point x="-694.834" y="25.5"/>
      <point x="-625.965" y="-33.3908"/>
      <point x="-600" y="-125" type="curve"/>
      <point x="-593" y="-125" type="line"/>
      <point x="-567.517" y="-32.7553"/>
      <point x="-486.369" y="24.5"/>
      <point x="-343.541" y="24.5" type="curve" smooth="yes"/>
      <point x="-144.22" y="24.5"/>
      <point x="-46" y="-92.1139"/>
      <point x="-46" y="-231.5" type="curve" smooth="yes"/>
      <point x="-46" y="-237" type="line"/>
      <point x="-234" y="-249" type="line"/>
      <point x="-234" y="-242" type="line" smooth="yes"/>
      <point x="-234" y="-170.732"/>
      <point x="-281.814" y="-121.5"/>
      <point x="-368.514" y="-121.5" type="curve" smooth="yes"/>
      <point x="-452.839" y="-121.5"/>
      <point x="-506.862" y="-161.324"/>
      <point x="-510" y="-259" type="curve" smooth="yes"/>
      <point x="-514" y="-383.5" type="line"/>
    </contour>
  </outline>
</glyph>
<glyph name="Danda.dv" format="2">
  <advance width="966"/>
  <unicode hex="0964"/>
  <outline>
    <contour>
      <point x="584.5" y="1276" type="line"/>
      <point x="584.5" y="-9" type="line"/>
      <point x="381" y="-9" type="line"/>
      <point x="381" y="1308.5" type="line"/>
    </contour>
  </outline>
</glyph>
<glyph name="Shunya.dv" format="2">
  <advance width="1446"/>
  <unicode hex="0966"/>
  <outline>
    <contour>
      <point x="723.57" y="361.67" type="curve" smooth="yes"/>
      <point x="971.88" y="361.67"/>
      <point x="1105.5" y="453.998"/>
      <point x="1105.5" y="638" type="curve" smooth="yes"/>
      <point x="1105.5" y="645" type="line" smooth="yes"/>
      <point x="1105.5" y="828.016"/>
      <point x="971.88" y="921.71"/>
      <point x="723.57" y="921.71" type="curve" smooth="yes"/>
      <point x="475.26" y="921.71"/>
      <point x="341" y="828.512"/>
      <point x="341" y="645.5" type="curve" smooth="yes"/>
      <point x="341" y="638.5" type="line" smooth="yes"/>
      <point x="341" y="454.494"/>
      <point x="475.26" y="361.67"/>
    </contour>
    <contour>
      <point x="723.57" y="194.02" type="curve" smooth="yes"/>
      <point x="332.86" y="194.02"/>
      <point x="123.71" y="349.77"/>
      <point x="123.71" y="636.35" type="curve" smooth="yes"/>
      <point x="123.71" y="647.03" type="line" smooth="yes"/>
      <point x="123.71" y="933.61"/>
      <point x="333.75" y="1089.36"/>
      <point x="723.57" y="1089.36" type="curve" smooth="yes"/>
      <point x="1113.39" y="1089.36"/>
      <point x="1322.54" y="932.72"/>
      <point x="1322.54" y="647.03" type="curve" smooth="yes"/>
      <point x="1322.54" y="636.35" type="line" smooth="yes"/>
      <point x="1322.54" y="350.66"/>
      <point x="1113.39" y="194.02"/>
    </contour>
  </outline>
  <guideline angle="0" x="0" y="711"/>
  <guideline angle="0" x="0" y="1655"/>
</glyph>
<glyph name="Ek.dv" format="2">
  <advance width="1376"/>
  <unicode hex="0967"/>
  <outline>
    <contour>
      <point x="1189.82" y="780.13" type="curve" smooth="yes"/>
      <point x="1189.82" y="0" type="line"/>
      <point x="982.52" y="0" type="line"/>
      <point x="982.52" y="794.63" type="line" smooth="yes"/>
      <point x="982.52" y="989.004"/>
      <point x="878" y="1097.08"/>
      <point x="655.74" y="1097.31" type="curve" smooth="yes"/>
      <point x="453" y="1097.52"/>
      <point x="337" y="1002.75"/>
      <point x="337" y="845.5" type="curve" smooth="yes"/>
      <point x="337" y="841" type="line" smooth="yes"/>
      <point x="337" y="683.281"/>
      <point x="447.908" y="594.75"/>
      <point x="650.13" y="594.75" type="curve" smooth="yes"/>
      <point x="830.581" y="594.75"/>
      <point x="950.379" y="670.54"/>
      <point x="987.91" y="793.32" type="curve"/>
      <point x="990.58" y="628.12" type="line"/>
      <point x="972.3" y="628.12" type="line"/>
      <point x="933.379" y="514.212"/>
      <point x="815.768" y="427.34"/>
      <point x="593.13" y="427.34" type="curve" smooth="yes"/>
      <point x="309.574" y="427.34"/>
      <point x="122.77" y="582.93"/>
      <point x="122.77" y="831.86" type="curve" smooth="yes"/>
      <point x="122.77" y="842.7" type="line" smooth="yes"/>
      <point x="122.77" y="1097.35"/>
      <point x="304.117" y="1262.22"/>
      <point x="650.74" y="1262.22" type="curve" smooth="yes"/>
      <point x="1019.96" y="1262.22"/>
      <point x="1189.82" y="1095"/>
    </contour>
  </outline>
</glyph>
<glyph name="Teen.dv" format="2">
  <advance width="1331"/>
  <unicode hex="0969"/>
  <outline>
    <contour>
      <point x="89.96" y="314.81" type="line"/>
      <point x="249.11" y="232.03"/>
      <point x="438.97" y="177.04"/>
      <point x="616.85" y="177.04" type="curve" smooth="yes"/>
      <point x="859.91" y="177.04"/>
      <point x="974" y="242.5"/>
      <point x="974" y="365.5" type="curve" smooth="yes"/>
      <point x="974" y="368.5" type="line" smooth="yes"/>
      <point x="974" y="499.125"/>
      <point x="846.416" y="554.499"/>
      <point x="545" y="562" type="curve" smooth="yes"/>
      <point x="324" y="567.5" type="line"/>
      <point x="324" y="729" type="line"/>
      <point x="530.5" y="733.5" type="line" smooth="yes"/>
      <point x="828.983" y="740.004"/>
      <point x="950" y="800.403"/>
      <point x="950" y="916" type="curve" smooth="yes"/>
      <point x="950" y="922" type="line" smooth="yes"/>
      <point x="950" y="1025.82"/>
      <point x="852" y="1097.5"/>
      <point x="630.5" y="1097.5" type="curve" smooth="yes"/>
      <point x="455" y="1097.5"/>
      <point x="300" y="1064"/>
      <point x="146" y="993.9" type="curve"/>
      <point x="162.17" y="1172.87" type="line"/>
      <point x="287.52" y="1227.92"/>
      <point x="457.5" y="1262.01"/>
      <point x="650.91" y="1262.22" type="curve" smooth="yes"/>
      <point x="999" y="1262.59"/>
      <point x="1167.8" y="1126.67"/>
      <point x="1167.8" y="935.98" type="curve" smooth="yes"/>
      <point x="1167.8" y="927.92" type="line" smooth="yes"/>
      <point x="1167.8" y="777.115"/>
      <point x="1070.07" y="678.827"/>
      <point x="828.5" y="652" type="curve"/>
      <point x="828.5" y="643.5" type="line"/>
      <point x="1077.14" y="623.337"/>
      <point x="1193.2" y="505.208"/>
      <point x="1192" y="344.5" type="curve"/>
      <point x="1191.93" y="335.16" type="line"/>
      <point x="1190.48" y="141.522"/>
      <point x="1026.6" y="10.63"/>
      <point x="641.74" y="10.63" type="curve" smooth="yes"/>
      <point x="514.75" y="10.63"/>
      <point x="411.85" y="31.48"/>
      <point x="321.25" y="61.28" type="curve"/>
      <point x="104.13" y="117.28" type="line"/>
    </contour>
    <contour>
      <point x="885" y="-330.5" type="line"/>
      <point x="627.5" y="-330.5" type="line"/>
      <point x="289" y="46.5" type="line"/>
      <point x="104" y="117.5" type="line"/>
      <point x="118.5" y="132" type="line"/>
      <point x="501" y="73" type="line"/>
      <point x="502" y="13" type="line"/>
      <point x="599.47" y="-42.5659"/>
      <point x="661.553" y="-91.3894"/>
      <point x="740" y="-172" type="curve" smooth="yes"/>
      <point x="885" y="-321" type="line"/>
    </contour>
  </outline>
</glyph>
